<?xml version="1.0" encoding="utf-8" standalone="no"?>
<!DOCTYPE svg PUBLIC "-//W3C//DTD SVG 1.1//EN"
  "http://www.w3.org/Graphics/SVG/1.1/DTD/svg11.dtd">
<svg height="345.6pt" version="1.1" viewBox="0 0 460.8 345.6" width="460.8pt" xmlns="http://www.w3.org/2000/svg" xmlns:xlink="http://www.w3.org/1999/xlink">
 <metadata>
  <rdf:RDF xmlns:cc="http://creativecommons.org/ns#" xmlns:dc="http://purl.org/dc/elements/1.1/" xmlns:rdf="http://www.w3.org/1999/02/22-rdf-syntax-ns#">
   <cc:Work>
    <dc:type rdf:resource="http://purl.org/dc/dcmitype/StillImage"/>
    <dc:date>2021-05-25T01:02:23.509563</dc:date>
    <dc:format>image/svg+xml</dc:format>
    <dc:creator>
     <cc:Agent>
      <dc:title>Matplotlib v3.4.2, https://matplotlib.org/</dc:title>
     </cc:Agent>
    </dc:creator>
   </cc:Work>
  </rdf:RDF>
 </metadata>
 <defs>
  <style type="text/css">*{stroke-linecap:butt;stroke-linejoin:round;}</style>
 </defs>
 <g id="figure_1">
  <g id="patch_1">
   <path d="M 0 345.6 
L 460.8 345.6 
L 460.8 0 
L 0 0 
z
" style="fill:#ffffff;"/>
  </g>
  <g id="axes_1">
   <g id="patch_2">
    <path d="M 353.640802 176.648604 
C 353.640802 159.663548 349.988758 142.875375 342.932911 127.425225 
C 335.877064 111.975075 325.580988 98.221129 312.74454 87.098283 
C 299.908091 75.975437 284.828855 67.741552 268.531813 62.95631 
C 252.234772 58.171067 235.097737 56.945403 218.285565 59.362629 
C 201.473393 61.779856 185.375839 67.783934 171.087101 76.966749 
C 156.798364 86.149565 144.649698 98.298232 135.466885 112.586971 
C 126.284072 126.87571 120.279995 142.973265 117.862772 159.785437 
C 115.445548 176.597609 116.671214 193.734644 121.456459 210.031685 
L 235.148749 176.648604 
L 353.640802 176.648604 
z
" style="fill:#2e3e0f;opacity:0.5;stroke:#2e3e0f;stroke-linejoin:miter;"/>
   </g>
   <g id="patch_3">
    <path d="M 121.456459 210.031685 
C 127.855466 231.824693 140.387589 251.325052 157.552966 266.198932 
C 174.718343 281.072813 195.803726 290.702181 218.285587 293.934582 
C 240.767448 297.166982 263.711631 293.868103 284.372143 284.43276 
C 305.032655 274.997416 322.551022 259.81766 334.830618 240.710228 
L 235.148749 176.648604 
L 121.456459 210.031685 
z
" style="fill:#4c0000;opacity:0.5;stroke:#4c0000;stroke-linejoin:miter;"/>
   </g>
   <g id="patch_4">
    <path d="M 334.830618 240.710228 
C 340.939616 231.204439 345.657598 220.873494 348.841048 210.031653 
C 352.024497 199.189812 353.640804 187.948134 353.640802 176.648582 
L 235.148749 176.648604 
L 334.830618 240.710228 
z
" style="fill:#00004c;opacity:0.5;stroke:#00004c;stroke-linejoin:miter;"/>
   </g>
   <g id="patch_5">
    <path d="M 353.640802 176.648604 
C 353.640802 163.694357 351.516451 150.827349 347.352445 138.560583 
C 343.188438 126.293816 337.040862 114.792509 329.154816 104.515214 
C 321.268771 94.237918 311.750471 85.323058 300.979409 78.126064 
C 290.208346 70.929069 278.329594 65.546876 265.816752 62.19407 
C 253.303911 58.841264 240.325513 57.563003 227.399002 58.410251 
C 214.472491 59.257498 201.771972 62.218844 189.803808 67.176219 
C 177.835644 72.133594 166.761033 79.020229 157.021514 87.561557 
C 147.281995 96.102885 139.008748 106.183864 132.531624 117.402571 
C 126.054499 128.621277 121.460737 140.826608 118.933488 153.531943 
C 116.406239 166.237278 115.979542 179.27149 117.67041 192.114911 
C 119.361277 204.958333 123.146935 217.437979 128.876451 229.05629 
C 134.605967 240.674602 142.202171 251.275094 151.362206 260.435131 
C 160.522241 269.595168 171.122732 277.191374 182.741043 282.920892 
C 194.359353 288.65041 206.838998 292.43607 219.682419 294.12694 
C 232.525841 295.81781 245.560053 295.391116 258.265388 292.863869 
C 270.970723 290.336622 283.176055 285.742862 294.394763 279.26574 
L 235.148749 176.648604 
L 353.640802 176.648604 
z
" style="fill:#2e3e0f;opacity:0.5;stroke:#2e3e0f;stroke-linejoin:miter;"/>
   </g>
   <g id="patch_6">
    <path d="M 294.394763 279.26574 
C 312.406492 268.866666 327.366793 253.906369 337.765871 235.894642 
C 348.164949 217.882915 353.6408 197.446767 353.640802 176.648615 
L 235.148749 176.648604 
L 294.394763 279.26574 
z
" style="fill:#4c0000;opacity:0.5;stroke:#4c0000;stroke-linejoin:miter;"/>
   </g>
   <g id="patch_7">
    <path d="M 353.640802 176.648604 
C 353.640802 163.694357 351.516451 150.827349 347.352445 138.560583 
C 343.188438 126.293816 337.040862 114.792509 329.154816 104.515214 
C 321.268771 94.237918 311.750471 85.323058 300.979409 78.126064 
C 290.208346 70.929069 278.329594 65.546876 265.816752 62.19407 
C 253.303911 58.841264 240.325513 57.563003 227.399002 58.410251 
C 214.472491 59.257498 201.771972 62.218844 189.803808 67.176219 
C 177.835644 72.133594 166.761033 79.020229 157.021514 87.561557 
C 147.281995 96.102885 139.008748 106.183864 132.531624 117.402571 
C 126.054499 128.621277 121.460737 140.826608 118.933488 153.531943 
C 116.406239 166.237278 115.979542 179.27149 117.67041 192.114911 
C 119.361277 204.958333 123.146935 217.437979 128.876451 229.05629 
C 134.605967 240.674602 142.202171 251.275094 151.362206 260.435131 
C 160.522241 269.595168 171.122732 277.191374 182.741043 282.920892 
C 194.359353 288.65041 206.838998 292.43607 219.682419 294.12694 
C 232.525841 295.81781 245.560053 295.391116 258.265388 292.863869 
C 270.970723 290.336622 283.176055 285.742862 294.394763 279.26574 
L 235.148749 176.648604 
L 353.640802 176.648604 
z
" style="fill:#2e3e0f;opacity:0.5;stroke:#2e3e0f;stroke-linejoin:miter;"/>
   </g>
   <g id="patch_8">
    <path d="M 294.394763 279.26574 
C 312.406492 268.866666 327.366793 253.906369 337.765871 235.894642 
C 348.164949 217.882915 353.6408 197.446767 353.640802 176.648615 
L 235.148749 176.648604 
L 294.394763 279.26574 
z
" style="fill:#4c0000;opacity:0.5;stroke:#4c0000;stroke-linejoin:miter;"/>
   </g>
   <g id="patch_9">
    <path d="M 353.640802 176.648604 
C 353.640802 163.694357 351.516451 150.827349 347.352445 138.560583 
C 343.188438 126.293816 337.040862 114.792509 329.154816 104.515214 
C 321.268771 94.237918 311.750471 85.323058 300.979409 78.126064 
C 290.208346 70.929069 278.329594 65.546876 265.816752 62.19407 
C 253.303911 58.841264 240.325513 57.563003 227.399002 58.410251 
C 214.472491 59.257498 201.771972 62.218844 189.803808 67.176219 
C 177.835644 72.133594 166.761033 79.020229 157.021514 87.561557 
C 147.281995 96.102885 139.008748 106.183864 132.531624 117.402571 
C 126.054499 128.621277 121.460737 140.826608 118.933488 153.531943 
C 116.406239 166.237278 115.979542 179.27149 117.67041 192.114911 
C 119.361277 204.958333 123.146935 217.437979 128.876451 229.05629 
C 134.605967 240.674602 142.202171 251.275094 151.362206 260.435131 
C 160.522241 269.595168 171.122732 277.191374 182.741043 282.920892 
C 194.359353 288.65041 206.838998 292.43607 219.682419 294.12694 
C 232.525841 295.81781 245.560053 295.391116 258.265388 292.863869 
C 270.970723 290.336622 283.176055 285.742862 294.394763 279.26574 
L 235.148749 176.648604 
L 353.640802 176.648604 
z
" style="fill:#2e3e0f;opacity:0.5;stroke:#2e3e0f;stroke-linejoin:miter;"/>
   </g>
   <g id="patch_10">
    <path d="M 294.394763 279.26574 
C 312.406492 268.866666 327.366793 253.906369 337.765871 235.894642 
C 348.164949 217.882915 353.6408 197.446767 353.640802 176.648615 
L 235.148749 176.648604 
L 294.394763 279.26574 
z
" style="fill:#4c0000;opacity:0.5;stroke:#4c0000;stroke-linejoin:miter;"/>
   </g>
   <g id="patch_11">
    <path d="M 353.640802 176.648604 
C 353.640802 163.694357 351.516451 150.827349 347.352445 138.560583 
C 343.188438 126.293816 337.040862 114.792509 329.154816 104.515214 
C 321.268771 94.237918 311.750471 85.323058 300.979409 78.126064 
C 290.208346 70.929069 278.329594 65.546876 265.816752 62.19407 
C 253.303911 58.841264 240.325513 57.563003 227.399002 58.410251 
C 214.472491 59.257498 201.771972 62.218844 189.803808 67.176219 
C 177.835644 72.133594 166.761033 79.020229 157.021514 87.561557 
C 147.281995 96.102885 139.008748 106.183864 132.531624 117.402571 
C 126.054499 128.621277 121.460737 140.826608 118.933488 153.531943 
C 116.406239 166.237278 115.979542 179.27149 117.67041 192.114911 
C 119.361277 204.958333 123.146935 217.437979 128.876451 229.05629 
C 134.605967 240.674602 142.202171 251.275094 151.362206 260.435131 
C 160.522241 269.595168 171.122732 277.191374 182.741043 282.920892 
C 194.359353 288.65041 206.838998 292.43607 219.682419 294.12694 
C 232.525841 295.81781 245.560053 295.391116 258.265388 292.863869 
C 270.970723 290.336622 283.176055 285.742862 294.394763 279.26574 
L 235.148749 176.648604 
L 353.640802 176.648604 
z
" style="fill:#2e3e0f;opacity:0.5;stroke:#2e3e0f;stroke-linejoin:miter;"/>
   </g>
   <g id="patch_12">
    <path d="M 294.394763 279.26574 
C 312.406492 268.866666 327.366793 253.906369 337.765871 235.894642 
C 348.164949 217.882915 353.6408 197.446767 353.640802 176.648615 
L 235.148749 176.648604 
L 294.394763 279.26574 
z
" style="fill:#4c0000;opacity:0.5;stroke:#4c0000;stroke-linejoin:miter;"/>
   </g>
   <g id="patch_13">
    <path d="M 353.640802 176.648604 
C 353.640802 162.340185 351.049099 148.149368 345.991433 134.764643 
C 340.933766 121.379918 333.493276 109.021305 324.030949 98.288402 
C 314.568621 87.555499 303.24 78.624734 290.594711 71.929398 
C 277.949422 65.234063 264.19533 60.884215 249.999738 59.090895 
C 235.804145 57.297575 221.4004 58.090262 207.487324 61.430496 
C 193.574248 64.770731 180.380546 70.603606 168.546331 78.646131 
C 156.712116 86.688656 146.43192 96.808626 138.204505 108.515055 
C 129.97709 120.221484 123.937697 133.321941 120.379339 147.180835 
C 116.820981 161.039728 115.802149 175.429245 117.372274 189.651255 
C 118.9424 203.873264 123.075672 217.693984 129.571559 230.442878 
C 136.067446 243.191772 144.819168 254.659273 155.40212 264.289017 
C 165.985072 273.918761 178.225291 281.552454 191.528923 286.819733 
C 204.832555 292.087012 218.980913 294.901294 233.287566 295.12604 
C 247.59422 295.350786 261.823995 292.9823 275.286511 288.135495 
C 288.749026 283.28869 301.222984 276.043237 312.10319 266.750661 
C 322.983396 257.458085 332.091001 246.271139 338.984133 233.732575 
L 235.148749 176.648604 
L 353.640802 176.648604 
z
" style="fill:#2e3e0f;opacity:0.5;stroke:#2e3e0f;stroke-linejoin:miter;"/>
   </g>
   <g id="patch_14">
    <path d="M 338.984133 233.732575 
C 341.376047 229.381699 343.492135 224.884782 345.319878 220.268427 
C 347.147622 215.652072 348.683411 210.925399 349.918159 206.116368 
L 235.148749 176.648604 
L 338.984133 233.732575 
z
" style="fill:#4c0000;opacity:0.5;stroke:#4c0000;stroke-linejoin:miter;"/>
   </g>
   <g id="patch_15">
    <path d="M 349.918159 206.116368 
C 351.152908 201.307337 352.084177 196.42545 352.706458 191.499585 
C 353.328739 186.57372 353.640803 181.613609 353.640802 176.648593 
L 235.148749 176.648604 
L 349.918159 206.116368 
z
" style="fill:#00004c;opacity:0.5;stroke:#00004c;stroke-linejoin:miter;"/>
   </g>
   <g id="patch_16">
    <path d="M 353.640802 176.648604 
C 353.640802 162.340185 351.049099 148.149368 345.991433 134.764643 
C 340.933766 121.379918 333.493276 109.021305 324.030949 98.288402 
C 314.568621 87.555499 303.24 78.624734 290.594711 71.929398 
C 277.949422 65.234063 264.19533 60.884215 249.999738 59.090895 
C 235.804145 57.297575 221.4004 58.090262 207.487324 61.430496 
C 193.574248 64.770731 180.380546 70.603606 168.546331 78.646131 
C 156.712116 86.688656 146.43192 96.808626 138.204505 108.515055 
C 129.97709 120.221484 123.937697 133.321941 120.379339 147.180835 
C 116.820981 161.039728 115.802149 175.429245 117.372274 189.651255 
C 118.9424 203.873264 123.075672 217.693984 129.571559 230.442878 
C 136.067446 243.191772 144.819168 254.659273 155.40212 264.289017 
C 165.985072 273.918761 178.225291 281.552454 191.528923 286.819733 
C 204.832555 292.087012 218.980913 294.901294 233.287566 295.12604 
C 247.59422 295.350786 261.823995 292.9823 275.286511 288.135495 
C 288.749026 283.28869 301.222984 276.043237 312.10319 266.750661 
C 322.983396 257.458085 332.091001 246.271139 338.984133 233.732575 
L 235.148749 176.648604 
L 353.640802 176.648604 
z
" style="fill:#2e3e0f;opacity:0.5;stroke:#2e3e0f;stroke-linejoin:miter;"/>
   </g>
   <g id="patch_17">
    <path d="M 338.984133 233.732575 
C 341.376047 229.381699 343.492135 224.884782 345.319878 220.268427 
C 347.147622 215.652072 348.683411 210.925399 349.918159 206.116368 
L 235.148749 176.648604 
L 338.984133 233.732575 
z
" style="fill:#4c0000;opacity:0.5;stroke:#4c0000;stroke-linejoin:miter;"/>
   </g>
   <g id="patch_18">
    <path d="M 349.918159 206.116368 
C 351.152908 201.307337 352.084177 196.42545 352.706458 191.499585 
C 353.328739 186.57372 353.640803 181.613609 353.640802 176.648593 
L 235.148749 176.648604 
L 349.918159 206.116368 
z
" style="fill:#00004c;opacity:0.5;stroke:#00004c;stroke-linejoin:miter;"/>
   </g>
   <g id="patch_19">
    <path d="M 353.640802 176.648604 
C 353.640802 162.652862 351.161132 148.767168 346.316967 135.636484 
C 341.472802 122.5058 334.340322 110.336619 325.250815 99.694173 
C 316.161307 89.051727 305.257715 80.103379 293.046486 73.264762 
C 280.835257 66.426145 267.508425 61.804802 253.684994 59.615385 
C 239.861562 57.425968 225.758919 57.702908 212.032101 60.433341 
C 198.305283 63.163774 185.170159 68.304762 173.236826 75.617516 
C 161.303494 82.930271 150.759617 92.299792 142.094937 103.290884 
C 133.430257 114.281977 126.781035 126.721796 122.456111 140.032537 
C 118.131188 153.343279 116.198578 167.315618 116.748047 181.30057 
C 117.297517 195.285522 120.320424 209.063159 125.676361 221.99354 
C 131.032299 234.92392 138.637039 246.8037 148.137358 257.08109 
C 157.637677 267.358479 168.884173 275.871855 181.35447 282.225791 
C 193.824767 288.579726 207.322757 292.674298 221.221487 294.319323 
C 235.120217 295.964348 249.201115 295.133956 262.810154 291.866717 
C 276.419193 288.599477 289.342357 282.946771 300.979393 275.171155 
C 312.616428 267.395539 322.784331 257.619292 331.010823 246.2965 
L 235.148749 176.648604 
L 353.640802 176.648604 
z
" style="fill:#2e3e0f;opacity:0.5;stroke:#2e3e0f;stroke-linejoin:miter;"/>
   </g>
   <g id="patch_20">
    <path d="M 331.010823 246.2965 
C 336.853299 238.255024 341.660777 229.510258 345.319867 220.268455 
C 348.978957 211.026653 351.460664 201.361048 352.706455 191.499615 
L 235.148749 176.648604 
L 331.010823 246.2965 
z
" style="fill:#4c0000;opacity:0.5;stroke:#4c0000;stroke-linejoin:miter;"/>
   </g>
   <g id="patch_21">
    <path d="M 352.706455 191.499615 
C 353.017519 189.03729 353.251144 186.565799 353.406984 184.088801 
C 353.562824 181.611803 353.640802 179.130519 353.640802 176.648623 
L 235.148749 176.648604 
L 352.706455 191.499615 
z
" style="fill:#00004c;opacity:0.5;stroke:#00004c;stroke-linejoin:miter;"/>
   </g>
   <g id="patch_22">
    <path d="M 353.640802 176.648604 
C 353.640802 161.714505 350.817483 146.914145 345.319874 133.028771 
C 339.822266 119.143397 331.748834 106.421703 321.52574 95.535213 
C 311.302646 84.648723 299.11299 75.79242 285.600214 69.43379 
C 272.087438 63.075159 257.49356 59.328088 242.58893 58.390368 
C 227.684301 57.452647 212.735867 59.341073 198.532695 63.955963 
C 184.329523 68.570852 171.125997 75.829551 159.619076 85.348904 
C 148.112154 94.868256 138.507931 106.477766 131.313374 119.564616 
C 124.118816 132.651466 119.462781 146.981265 117.591041 161.797604 
C 115.719301 176.613943 116.66538 191.651454 120.379338 206.116371 
C 124.093297 220.581288 130.508616 234.214537 139.286657 246.296478 
C 148.064699 258.378418 159.048246 268.692657 171.657522 276.694748 
C 184.266798 284.696839 198.275965 290.243463 212.94554 293.041836 
C 227.615114 295.840208 242.682358 295.84021 257.351933 293.04184 
C 272.021508 290.243471 286.030677 284.69685 298.639954 276.694761 
C 311.249232 268.692673 322.23278 258.378436 331.010825 246.296498 
C 339.788869 234.214559 346.204191 220.581311 349.918153 206.116395 
L 235.148749 176.648604 
L 353.640802 176.648604 
z
" style="fill:#2e3e0f;opacity:0.5;stroke:#2e3e0f;stroke-linejoin:miter;"/>
   </g>
   <g id="patch_23">
    <path d="M 349.918153 206.116395 
C 351.152902 201.307365 352.084173 196.425478 352.706455 191.499612 
C 353.328737 186.573747 353.640802 181.613636 353.640802 176.648621 
L 235.148749 176.648604 
L 349.918153 206.116395 
z
" style="fill:#4c0000;opacity:0.5;stroke:#4c0000;stroke-linejoin:miter;"/>
   </g>
   <g id="patch_24">
    <path d="M 353.640802 176.648604 
C 353.640802 162.652862 351.161132 148.767168 346.316967 135.636484 
C 341.472802 122.5058 334.340322 110.336619 325.250815 99.694173 
C 316.161307 89.051727 305.257715 80.103379 293.046486 73.264762 
C 280.835257 66.426145 267.508425 61.804802 253.684994 59.615385 
C 239.861562 57.425968 225.758919 57.702908 212.032101 60.433341 
C 198.305283 63.163774 185.170159 68.304762 173.236826 75.617516 
C 161.303494 82.930271 150.759617 92.299792 142.094937 103.290884 
C 133.430257 114.281977 126.781035 126.721796 122.456111 140.032537 
C 118.131188 153.343279 116.198578 167.315618 116.748047 181.30057 
C 117.297517 195.285522 120.320424 209.063159 125.676361 221.99354 
C 131.032299 234.92392 138.637039 246.8037 148.137358 257.08109 
C 157.637677 267.358479 168.884173 275.871855 181.35447 282.225791 
C 193.824767 288.579726 207.322757 292.674298 221.221487 294.319323 
C 235.120217 295.964348 249.201115 295.133956 262.810154 291.866717 
C 276.419193 288.599477 289.342357 282.946771 300.979393 275.171155 
C 312.616428 267.395539 322.784331 257.619292 331.010823 246.2965 
L 235.148749 176.648604 
L 353.640802 176.648604 
z
" style="fill:#2e3e0f;opacity:0.5;stroke:#2e3e0f;stroke-linejoin:miter;"/>
   </g>
   <g id="patch_25">
    <path d="M 331.010823 246.2965 
C 335.390166 240.268853 339.191252 233.841571 342.363556 227.100083 
C 345.535861 220.358596 348.065266 213.332905 349.918152 206.116398 
L 235.148749 176.648604 
L 331.010823 246.2965 
z
" style="fill:#4c0000;opacity:0.5;stroke:#4c0000;stroke-linejoin:miter;"/>
   </g>
   <g id="patch_26">
    <path d="M 349.918152 206.116398 
C 351.152902 201.307367 352.084172 196.42548 352.706455 191.499615 
C 353.328737 186.57375 353.640801 181.613639 353.640802 176.648623 
L 235.148749 176.648604 
L 349.918152 206.116398 
z
" style="fill:#00004c;opacity:0.5;stroke:#00004c;stroke-linejoin:miter;"/>
   </g>
   <g id="patch_27">
    <path d="M 353.640802 176.648604 
C 353.640802 162.96543 351.270653 149.385087 346.635643 136.510852 
C 342.000634 123.636618 335.170428 111.661993 326.448445 101.118927 
C 317.726462 90.57586 307.243794 81.622816 295.466112 74.657514 
C 283.688429 67.692212 270.792753 62.819342 257.351946 60.255371 
C 243.911139 57.691399 230.12722 57.474864 216.612509 59.615384 
C 203.097798 61.755904 190.055424 66.221306 178.064767 72.813225 
C 166.074111 79.405144 155.315394 88.024502 146.266548 98.288402 
C 137.217703 108.552302 130.014736 120.306475 124.977624 133.028768 
C 119.940512 145.751061 117.144963 159.250255 116.715164 172.926677 
C 116.285364 186.603098 118.227775 200.251189 122.456108 213.26466 
C 126.684441 226.278132 133.135143 238.461389 141.521657 249.273218 
C 149.90817 260.085046 160.104444 269.362941 171.657529 276.694753 
C 183.210614 284.026564 195.946867 289.302093 209.300505 292.286985 
C 222.654143 295.271877 236.42446 295.921269 249.999738 294.206313 
C 263.575015 292.491357 276.751215 288.437829 288.943012 282.225799 
C 301.134809 276.013768 312.158959 267.736603 321.525736 257.761999 
L 235.148749 176.648604 
L 353.640802 176.648604 
z
" style="fill:#2e3e0f;opacity:0.5;stroke:#2e3e0f;stroke-linejoin:miter;"/>
   </g>
   <g id="patch_28">
    <path d="M 321.525736 257.761999 
C 326.62601 252.330759 331.202675 246.430559 335.194896 240.139825 
C 339.187118 233.849091 342.57713 227.195818 345.319872 220.268443 
L 235.148749 176.648604 
L 321.525736 257.761999 
z
" style="fill:#4c0000;opacity:0.5;stroke:#4c0000;stroke-linejoin:miter;"/>
   </g>
   <g id="patch_29">
    <path d="M 345.319872 220.268443 
C 348.062615 213.341067 350.145881 206.170417 351.541981 198.851806 
C 352.938081 191.533194 353.640802 184.099191 353.640802 176.64861 
L 235.148749 176.648604 
L 345.319872 220.268443 
z
" style="fill:#00004c;opacity:0.5;stroke:#00004c;stroke-linejoin:miter;"/>
   </g>
   <g id="patch_30">
    <path d="M 353.640802 176.648604 
C 353.640802 162.96543 351.270653 149.385087 346.635643 136.510852 
C 342.000634 123.636618 335.170428 111.661993 326.448445 101.118927 
C 317.726462 90.57586 307.243794 81.622816 295.466112 74.657514 
C 283.688429 67.692212 270.792753 62.819342 257.351946 60.255371 
C 243.911139 57.691399 230.12722 57.474864 216.612509 59.615384 
C 203.097798 61.755904 190.055424 66.221306 178.064767 72.813225 
C 166.074111 79.405144 155.315394 88.024502 146.266548 98.288402 
C 137.217703 108.552302 130.014736 120.306475 124.977624 133.028768 
C 119.940512 145.751061 117.144963 159.250255 116.715164 172.926677 
C 116.285364 186.603098 118.227775 200.251189 122.456108 213.26466 
C 126.684441 226.278132 133.135143 238.461389 141.521657 249.273218 
C 149.90817 260.085046 160.104444 269.362941 171.657529 276.694753 
C 183.210614 284.026564 195.946867 289.302093 209.300505 292.286985 
C 222.654143 295.271877 236.42446 295.921269 249.999738 294.206313 
C 263.575015 292.491357 276.751215 288.437829 288.943012 282.225799 
C 301.134809 276.013768 312.158959 267.736603 321.525736 257.761999 
L 235.148749 176.648604 
L 353.640802 176.648604 
z
" style="fill:#2e3e0f;opacity:0.5;stroke:#2e3e0f;stroke-linejoin:miter;"/>
   </g>
   <g id="patch_31">
    <path d="M 321.525736 257.761999 
C 326.62601 252.330759 331.202675 246.430559 335.194896 240.139825 
C 339.187118 233.849091 342.57713 227.195818 345.319872 220.268443 
L 235.148749 176.648604 
L 321.525736 257.761999 
z
" style="fill:#4c0000;opacity:0.5;stroke:#4c0000;stroke-linejoin:miter;"/>
   </g>
   <g id="patch_32">
    <path d="M 345.319872 220.268443 
C 348.062615 213.341067 350.145881 206.170417 351.541981 198.851806 
C 352.938081 191.533194 353.640802 184.099191 353.640802 176.64861 
L 235.148749 176.648604 
L 345.319872 220.268443 
z
" style="fill:#00004c;opacity:0.5;stroke:#00004c;stroke-linejoin:miter;"/>
   </g>
   <g id="patch_33">
    <path d="M 353.640802 176.648604 
C 353.640802 163.277895 351.377665 150.003123 346.947442 137.387697 
C 342.51722 124.77227 335.983487 112.997224 327.623549 102.562317 
C 319.263612 92.127409 309.197437 83.182383 297.852253 76.106885 
C 286.50707 69.031387 274.045686 63.926952 260.996987 61.010222 
C 247.948287 58.093493 234.499527 57.406325 221.221498 58.977883 
C 207.943468 60.549442 195.026714 64.357175 183.019449 70.239474 
C 171.012184 76.121773 160.086716 83.994225 150.706744 93.522708 
C 141.326771 103.051191 133.626901 114.098967 127.933931 126.197146 
C 122.24096 138.295326 118.636586 151.270296 117.273784 164.571372 
C 115.910982 177.872448 116.80931 191.308756 119.930641 204.310031 
C 123.051972 217.311306 128.351513 229.690976 135.604342 240.923622 
C 142.857171 252.156268 151.959206 262.080698 162.524139 270.275699 
C 173.089073 278.4707 184.965293 284.818671 197.648751 289.050192 
C 210.332208 293.281713 223.640891 295.336059 237.00995 295.12604 
C 250.37901 294.916021 263.616596 292.44465 276.160879 287.816819 
C 288.705162 283.188987 300.376127 276.471105 310.678434 267.948294 
L 235.148749 176.648604 
L 353.640802 176.648604 
z
" style="fill:#2e3e0f;opacity:0.5;stroke:#2e3e0f;stroke-linejoin:miter;"/>
   </g>
   <g id="patch_34">
    <path d="M 310.678434 267.948294 
C 318.33719 261.612419 325.168365 254.337955 331.01084 246.296478 
C 336.853314 238.255001 341.660789 229.510233 345.319877 220.26843 
L 235.148749 176.648604 
L 310.678434 267.948294 
z
" style="fill:#4c0000;opacity:0.5;stroke:#4c0000;stroke-linejoin:miter;"/>
   </g>
   <g id="patch_35">
    <path d="M 345.319877 220.26843 
C 348.062619 213.341054 350.145885 206.170404 351.541984 198.851792 
C 352.938083 191.533181 353.640803 184.099178 353.640802 176.648596 
L 235.148749 176.648604 
L 345.319877 220.26843 
z
" style="fill:#00004c;opacity:0.5;stroke:#00004c;stroke-linejoin:miter;"/>
   </g>
   <g id="patch_36">
    <path d="M 353.640802 176.648604 
C 353.640802 162.340185 351.049099 148.149368 345.991433 134.764643 
C 340.933766 121.379918 333.493276 109.021305 324.030949 98.288402 
C 314.568621 87.555499 303.24 78.624734 290.594711 71.929398 
C 277.949422 65.234063 264.19533 60.884215 249.999738 59.090895 
C 235.804145 57.297575 221.4004 58.090262 207.487324 61.430496 
C 193.574248 64.770731 180.380546 70.603606 168.546331 78.646131 
C 156.712116 86.688656 146.43192 96.808626 138.204505 108.515055 
C 129.97709 120.221484 123.937697 133.321941 120.379339 147.180835 
C 116.820981 161.039728 115.802149 175.429245 117.372274 189.651255 
C 118.9424 203.873264 123.075672 217.693984 129.571559 230.442878 
C 136.067446 243.191772 144.819168 254.659273 155.40212 264.289017 
C 165.985072 273.918761 178.225291 281.552454 191.528923 286.819733 
C 204.832555 292.087012 218.980913 294.901294 233.287566 295.12604 
C 247.59422 295.350786 261.823995 292.9823 275.286511 288.135495 
C 288.749026 283.28869 301.222984 276.043237 312.10319 266.750661 
C 322.983396 257.458085 332.091001 246.271139 338.984133 233.732575 
L 235.148749 176.648604 
L 353.640802 176.648604 
z
" style="fill:#2e3e0f;opacity:0.5;stroke:#2e3e0f;stroke-linejoin:miter;"/>
   </g>
   <g id="patch_37">
    <path d="M 338.984133 233.732575 
C 341.376047 229.381699 343.492135 224.884782 345.319878 220.268427 
C 347.147622 215.652072 348.683411 210.925399 349.918159 206.116368 
L 235.148749 176.648604 
L 338.984133 233.732575 
z
" style="fill:#4c0000;opacity:0.5;stroke:#4c0000;stroke-linejoin:miter;"/>
   </g>
   <g id="patch_38">
    <path d="M 349.918159 206.116368 
C 351.152908 201.307337 352.084177 196.42545 352.706458 191.499585 
C 353.328739 186.57372 353.640803 181.613609 353.640802 176.648593 
L 235.148749 176.648604 
L 349.918159 206.116368 
z
" style="fill:#00004c;opacity:0.5;stroke:#00004c;stroke-linejoin:miter;"/>
   </g>
   <g id="patch_39">
    <path d="M 353.640802 176.648604 
C 353.640802 162.027401 350.93455 147.531693 345.659062 133.895388 
C 340.383573 120.259084 332.629409 107.716266 322.789156 96.901969 
C 312.948904 86.087673 301.191482 77.187538 288.112164 70.652173 
C 275.032845 64.116807 260.85615 60.058399 246.299836 58.682422 
C 231.743523 57.306445 217.057466 58.63652 202.985213 62.605306 
C 188.912959 66.574092 175.696075 73.11346 164.003723 81.892326 
C 152.311372 90.671192 142.344265 101.538857 134.607031 113.945097 
C 126.869797 126.351337 121.495255 140.083185 118.755515 154.445406 
C 116.015775 168.807628 115.957867 183.553678 118.584723 197.936974 
C 121.211579 212.32027 126.478106 226.093906 134.117664 238.560531 
C 141.757221 251.027156 151.638667 261.972766 163.26171 270.843192 
C 174.884753 279.713618 188.049869 286.356589 202.090518 290.435775 
C 216.131167 294.51496 230.806324 295.960337 245.372996 294.698727 
C 259.939667 293.437117 274.147799 289.490176 287.278043 283.057736 
C 300.408287 276.625297 312.235246 267.817778 322.16013 257.0811 
C 332.085013 246.344421 339.937449 233.862891 345.319873 220.26844 
L 235.148749 176.648604 
L 353.640802 176.648604 
z
" style="fill:#2e3e0f;opacity:0.5;stroke:#2e3e0f;stroke-linejoin:miter;"/>
   </g>
   <g id="patch_40">
    <path d="M 345.319873 220.26844 
C 348.062615 213.341064 350.145882 206.170415 351.541982 198.851803 
C 352.938082 191.533192 353.640802 184.099189 353.640802 176.648607 
L 235.148749 176.648604 
L 345.319873 220.26844 
z
" style="fill:#4c0000;opacity:0.5;stroke:#4c0000;stroke-linejoin:miter;"/>
   </g>
   <g id="patch_41">
    <path d="M 353.640802 176.648604 
C 353.640802 163.277895 351.377665 150.003123 346.947442 137.387697 
C 342.51722 124.77227 335.983487 112.997224 327.623549 102.562317 
C 319.263612 92.127409 309.197437 83.182383 297.852253 76.106885 
C 286.50707 69.031387 274.045686 63.926952 260.996987 61.010222 
C 247.948287 58.093493 234.499527 57.406325 221.221498 58.977883 
C 207.943468 60.549442 195.026714 64.357175 183.019449 70.239474 
C 171.012184 76.121773 160.086716 83.994225 150.706744 93.522708 
C 141.326771 103.051191 133.626901 114.098967 127.933931 126.197146 
C 122.24096 138.295326 118.636586 151.270296 117.273784 164.571372 
C 115.910982 177.872448 116.80931 191.308756 119.930641 204.310031 
C 123.051972 217.311306 128.351513 229.690976 135.604342 240.923622 
C 142.857171 252.156268 151.959206 262.080698 162.524139 270.275699 
C 173.089073 278.4707 184.965293 284.818671 197.648751 289.050192 
C 210.332208 293.281713 223.640891 295.336059 237.00995 295.12604 
C 250.37901 294.916021 263.616596 292.44465 276.160879 287.816819 
C 288.705162 283.188987 300.376127 276.471105 310.678434 267.948294 
L 235.148749 176.648604 
L 353.640802 176.648604 
z
" style="fill:#2e3e0f;opacity:0.5;stroke:#2e3e0f;stroke-linejoin:miter;"/>
   </g>
   <g id="patch_42">
    <path d="M 310.678434 267.948294 
C 324.117378 256.830631 334.93732 242.881643 342.363569 227.100057 
C 349.789818 211.318471 353.640804 194.090142 353.640802 176.648593 
L 235.148749 176.648604 
L 310.678434 267.948294 
z
" style="fill:#4c0000;opacity:0.5;stroke:#4c0000;stroke-linejoin:miter;"/>
   </g>
   <g id="patch_43">
    <path d="M 353.640802 176.648604 
C 353.640802 163.590258 351.482172 150.621275 347.252346 138.266965 
C 343.022521 125.912655 336.779392 114.342108 328.77584 104.02399 
C 320.772288 93.705873 311.117854 84.781405 300.203593 77.612075 
C 289.289332 70.442745 277.264622 65.126676 264.616529 61.879197 
C 251.968435 58.631718 238.870066 57.497276 225.851975 58.521821 
C 212.833884 59.546367 200.074243 62.715877 188.089886 67.901971 
C 176.105529 73.088064 165.060479 80.219762 155.40212 89.008191 
C 145.743761 97.79662 137.604282 108.121498 131.313375 119.564613 
C 125.022468 131.007728 120.666234 143.412463 118.421123 156.276361 
C 116.176012 169.140259 116.072753 182.287257 118.115527 195.184833 
C 120.158301 208.082409 124.31915 220.554039 130.429538 232.094557 
C 136.539926 243.635075 144.516222 254.08653 154.035345 263.025584 
C 163.554469 271.964638 174.486134 279.268945 186.387553 284.642644 
C 198.288971 290.016342 210.997252 293.385883 223.997644 294.614784 
C 236.998036 295.843685 250.112608 294.915125 262.810151 291.866717 
C 275.507694 288.818309 287.614422 283.691774 298.639949 276.694764 
L 235.148749 176.648604 
L 353.640802 176.648604 
z
" style="fill:#2e3e0f;opacity:0.5;stroke:#2e3e0f;stroke-linejoin:miter;"/>
   </g>
   <g id="patch_44">
    <path d="M 298.639949 276.694764 
C 311.249227 268.692676 322.232777 258.37844 331.010822 246.296502 
C 339.788867 234.214564 346.204189 220.581316 349.918151 206.1164 
L 235.148749 176.648604 
L 298.639949 276.694764 
z
" style="fill:#4c0000;opacity:0.5;stroke:#4c0000;stroke-linejoin:miter;"/>
   </g>
   <g id="patch_45">
    <path d="M 349.918151 206.1164 
C 351.152901 201.30737 352.084172 196.425483 352.706454 191.499618 
C 353.328737 186.573753 353.640801 181.613642 353.640802 176.648626 
L 235.148749 176.648604 
L 349.918151 206.1164 
z
" style="fill:#00004c;opacity:0.5;stroke:#00004c;stroke-linejoin:miter;"/>
   </g>
   <g id="patch_46">
    <path d="M 353.640802 176.648604 
C 353.640802 163.590258 351.482172 150.621275 347.252346 138.266965 
C 343.022521 125.912655 336.779392 114.342108 328.77584 104.02399 
C 320.772288 93.705873 311.117854 84.781405 300.203593 77.612075 
C 289.289332 70.442745 277.264622 65.126676 264.616529 61.879197 
C 251.968435 58.631718 238.870066 57.497276 225.851975 58.521821 
C 212.833884 59.546367 200.074243 62.715877 188.089886 67.901971 
C 176.105529 73.088064 165.060479 80.219762 155.40212 89.008191 
C 145.743761 97.79662 137.604282 108.121498 131.313375 119.564613 
C 125.022468 131.007728 120.666234 143.412463 118.421123 156.276361 
C 116.176012 169.140259 116.072753 182.287257 118.115527 195.184833 
C 120.158301 208.082409 124.31915 220.554039 130.429538 232.094557 
C 136.539926 243.635075 144.516222 254.08653 154.035345 263.025584 
C 163.554469 271.964638 174.486134 279.268945 186.387553 284.642644 
C 198.288971 290.016342 210.997252 293.385883 223.997644 294.614784 
C 236.998036 295.843685 250.112608 294.915125 262.810151 291.866717 
C 275.507694 288.818309 287.614422 283.691774 298.639949 276.694764 
L 235.148749 176.648604 
L 353.640802 176.648604 
z
" style="fill:#2e3e0f;opacity:0.5;stroke:#2e3e0f;stroke-linejoin:miter;"/>
   </g>
   <g id="patch_47">
    <path d="M 298.639949 276.694764 
C 311.249227 268.692676 322.232777 258.37844 331.010822 246.296502 
C 339.788867 234.214564 346.204189 220.581316 349.918151 206.1164 
L 235.148749 176.648604 
L 298.639949 276.694764 
z
" style="fill:#4c0000;opacity:0.5;stroke:#4c0000;stroke-linejoin:miter;"/>
   </g>
   <g id="patch_48">
    <path d="M 349.918151 206.1164 
C 351.152901 201.30737 352.084172 196.425483 352.706454 191.499618 
C 353.328737 186.573753 353.640801 181.613642 353.640802 176.648626 
L 235.148749 176.648604 
L 349.918151 206.1164 
z
" style="fill:#00004c;opacity:0.5;stroke:#00004c;stroke-linejoin:miter;"/>
   </g>
   <g id="patch_49">
    <path d="M 353.640802 176.648604 
C 353.640802 162.027401 350.93455 147.531693 345.659062 133.895388 
C 340.383573 120.259084 332.629409 107.716266 322.789156 96.901969 
C 312.948904 86.087673 301.191482 77.187538 288.112164 70.652173 
C 275.032845 64.116807 260.85615 60.058399 246.299836 58.682422 
C 231.743523 57.306445 217.057466 58.63652 202.985213 62.605306 
C 188.912959 66.574092 175.696075 73.11346 164.003723 81.892326 
C 152.311372 90.671192 142.344265 101.538857 134.607031 113.945097 
C 126.869797 126.351337 121.495255 140.083185 118.755515 154.445406 
C 116.015775 168.807628 115.957867 183.553678 118.584723 197.936974 
C 121.211579 212.32027 126.478106 226.093906 134.117664 238.560531 
C 141.757221 251.027156 151.638667 261.972766 163.26171 270.843192 
C 174.884753 279.713618 188.049869 286.356589 202.090518 290.435775 
C 216.131167 294.51496 230.806324 295.960337 245.372996 294.698727 
C 259.939667 293.437117 274.147799 289.490176 287.278043 283.057736 
C 300.408287 276.625297 312.235246 267.817778 322.16013 257.0811 
C 332.085013 246.344421 339.937449 233.862891 345.319873 220.26844 
L 235.148749 176.648604 
L 353.640802 176.648604 
z
" style="fill:#2e3e0f;opacity:0.5;stroke:#2e3e0f;stroke-linejoin:miter;"/>
   </g>
   <g id="patch_50">
    <path d="M 345.319873 220.26844 
C 347.147617 215.652085 348.683407 210.925412 349.918156 206.116382 
C 351.152905 201.307351 352.084175 196.425464 352.706457 191.499599 
L 235.148749 176.648604 
L 345.319873 220.26844 
z
" style="fill:#4c0000;opacity:0.5;stroke:#4c0000;stroke-linejoin:miter;"/>
   </g>
   <g id="patch_51">
    <path d="M 352.706457 191.499599 
C 353.017521 189.037273 353.251146 186.565783 353.406985 184.088784 
C 353.562825 181.611786 353.640802 179.130503 353.640802 176.648607 
L 235.148749 176.648604 
L 352.706457 191.499599 
z
" style="fill:#00004c;opacity:0.5;stroke:#00004c;stroke-linejoin:miter;"/>
   </g>
   <g id="patch_52">
    <path d="M 353.640802 176.648604 
C 353.640802 162.96543 351.270653 149.385087 346.635643 136.510852 
C 342.000634 123.636618 335.170428 111.661993 326.448445 101.118927 
C 317.726462 90.57586 307.243794 81.622816 295.466112 74.657514 
C 283.688429 67.692212 270.792753 62.819342 257.351946 60.255371 
C 243.911139 57.691399 230.12722 57.474864 216.612509 59.615384 
C 203.097798 61.755904 190.055424 66.221306 178.064767 72.813225 
C 166.074111 79.405144 155.315394 88.024502 146.266548 98.288402 
C 137.217703 108.552302 130.014736 120.306475 124.977624 133.028768 
C 119.940512 145.751061 117.144963 159.250255 116.715164 172.926677 
C 116.285364 186.603098 118.227775 200.251189 122.456108 213.26466 
C 126.684441 226.278132 133.135143 238.461389 141.521657 249.273218 
C 149.90817 260.085046 160.104444 269.362941 171.657529 276.694753 
C 183.210614 284.026564 195.946867 289.302093 209.300505 292.286985 
C 222.654143 295.271877 236.42446 295.921269 249.999738 294.206313 
C 263.575015 292.491357 276.751215 288.437829 288.943012 282.225799 
C 301.134809 276.013768 312.158959 267.736603 321.525736 257.761999 
L 235.148749 176.648604 
L 353.640802 176.648604 
z
" style="fill:#2e3e0f;opacity:0.5;stroke:#2e3e0f;stroke-linejoin:miter;"/>
   </g>
   <g id="patch_53">
    <path d="M 321.525736 257.761999 
C 328.330005 250.516188 334.195584 242.442913 338.984125 233.73259 
C 343.772666 225.022267 347.446224 215.743918 349.918155 206.116384 
L 235.148749 176.648604 
L 321.525736 257.761999 
z
" style="fill:#4c0000;opacity:0.5;stroke:#4c0000;stroke-linejoin:miter;"/>
   </g>
   <g id="patch_54">
    <path d="M 349.918155 206.116384 
C 351.152905 201.307354 352.084175 196.425467 352.706456 191.499601 
C 353.328738 186.573736 353.640802 181.613625 353.640802 176.64861 
L 235.148749 176.648604 
L 349.918155 206.116384 
z
" style="fill:#00004c;opacity:0.5;stroke:#00004c;stroke-linejoin:miter;"/>
   </g>
   <g id="patch_55">
    <path d="M 353.640802 176.648604 
C 353.640802 163.277895 351.377665 150.003123 346.947442 137.387697 
C 342.51722 124.77227 335.983487 112.997224 327.623549 102.562317 
C 319.263612 92.127409 309.197437 83.182383 297.852253 76.106885 
C 286.50707 69.031387 274.045686 63.926952 260.996987 61.010222 
C 247.948287 58.093493 234.499527 57.406325 221.221498 58.977883 
C 207.943468 60.549442 195.026714 64.357175 183.019449 70.239474 
C 171.012184 76.121773 160.086716 83.994225 150.706744 93.522708 
C 141.326771 103.051191 133.626901 114.098967 127.933931 126.197146 
C 122.24096 138.295326 118.636586 151.270296 117.273784 164.571372 
C 115.910982 177.872448 116.80931 191.308756 119.930641 204.310031 
C 123.051972 217.311306 128.351513 229.690976 135.604342 240.923622 
C 142.857171 252.156268 151.959206 262.080698 162.524139 270.275699 
C 173.089073 278.4707 184.965293 284.818671 197.648751 289.050192 
C 210.332208 293.281713 223.640891 295.336059 237.00995 295.12604 
C 250.37901 294.916021 263.616596 292.44465 276.160879 287.816819 
C 288.705162 283.188987 300.376127 276.471105 310.678434 267.948294 
L 235.148749 176.648604 
L 353.640802 176.648604 
z
" style="fill:#2e3e0f;opacity:0.5;stroke:#2e3e0f;stroke-linejoin:miter;"/>
   </g>
   <g id="patch_56">
    <path d="M 310.678434 267.948294 
C 320.258931 260.022616 328.532479 250.638116 335.194904 240.139812 
C 341.857329 229.641508 346.825971 218.159651 349.918159 206.116368 
L 235.148749 176.648604 
L 310.678434 267.948294 
z
" style="fill:#4c0000;opacity:0.5;stroke:#4c0000;stroke-linejoin:miter;"/>
   </g>
   <g id="patch_57">
    <path d="M 349.918159 206.116368 
C 351.152908 201.307337 352.084177 196.42545 352.706458 191.499585 
C 353.328739 186.57372 353.640803 181.613609 353.640802 176.648593 
L 235.148749 176.648604 
L 349.918159 206.116368 
z
" style="fill:#00004c;opacity:0.5;stroke:#00004c;stroke-linejoin:miter;"/>
   </g>
   <g id="patch_58">
    <path d="M 353.640802 176.648604 
C 353.640802 155.850452 348.164953 135.414303 337.765876 117.402576 
C 327.3668 99.390848 312.4065 84.430549 294.394772 74.031474 
C 276.383044 63.632398 255.946895 58.156549 235.148743 58.15655 
C 214.350591 58.156551 193.914443 63.632402 175.902715 74.031479 
C 157.890988 84.430556 142.93069 99.390856 132.531615 117.402585 
C 122.132541 135.414314 116.656693 155.850463 116.656695 176.648615 
C 116.656697 197.446767 122.132548 217.882915 132.531626 235.894642 
C 142.930704 253.906369 157.891005 268.866666 175.902734 279.26574 
L 235.148749 176.648604 
L 353.640802 176.648604 
z
" style="fill:#2e3e0f;opacity:0.5;stroke:#2e3e0f;stroke-linejoin:miter;"/>
   </g>
   <g id="patch_59">
    <path d="M 175.902734 279.26574 
C 193.914464 289.664814 214.350613 295.140661 235.148765 295.140658 
C 255.946917 295.140655 276.383065 289.664802 294.394791 279.265723 
L 235.148749 176.648604 
L 175.902734 279.26574 
z
" style="fill:#4c0000;opacity:0.5;stroke:#4c0000;stroke-linejoin:miter;"/>
   </g>
   <g id="patch_60">
    <path d="M 294.394791 279.265723 
C 312.406518 268.866645 327.366815 253.906343 337.765887 235.894613 
C 348.16496 217.882884 353.640806 197.446734 353.640802 176.648582 
L 235.148749 176.648604 
L 294.394791 279.265723 
z
" style="fill:#00004c;opacity:0.5;stroke:#00004c;stroke-linejoin:miter;"/>
   </g>
   <g id="patch_61">
    <path d="M 353.640802 176.648604 
C 353.640802 162.340185 351.049099 148.149368 345.991433 134.764643 
C 340.933766 121.379918 333.493276 109.021305 324.030949 98.288402 
C 314.568621 87.555499 303.24 78.624734 290.594711 71.929398 
C 277.949422 65.234063 264.19533 60.884215 249.999738 59.090895 
C 235.804145 57.297575 221.4004 58.090262 207.487324 61.430496 
C 193.574248 64.770731 180.380546 70.603606 168.546331 78.646131 
C 156.712116 86.688656 146.43192 96.808626 138.204505 108.515055 
C 129.97709 120.221484 123.937697 133.321941 120.379339 147.180835 
C 116.820981 161.039728 115.802149 175.429245 117.372274 189.651255 
C 118.9424 203.873264 123.075672 217.693984 129.571559 230.442878 
C 136.067446 243.191772 144.819168 254.659273 155.40212 264.289017 
C 165.985072 273.918761 178.225291 281.552454 191.528923 286.819733 
C 204.832555 292.087012 218.980913 294.901294 233.287566 295.12604 
C 247.59422 295.350786 261.823995 292.9823 275.286511 288.135495 
C 288.749026 283.28869 301.222984 276.043237 312.10319 266.750661 
C 322.983396 257.458085 332.091001 246.271139 338.984133 233.732575 
L 235.148749 176.648604 
L 353.640802 176.648604 
z
" style="fill:#2e3e0f;opacity:0.5;stroke:#2e3e0f;stroke-linejoin:miter;"/>
   </g>
   <g id="patch_62">
    <path d="M 338.984133 233.732575 
C 341.376047 229.381699 343.492135 224.884782 345.319878 220.268427 
C 347.147622 215.652072 348.683411 210.925399 349.918159 206.116368 
L 235.148749 176.648604 
L 338.984133 233.732575 
z
" style="fill:#4c0000;opacity:0.5;stroke:#4c0000;stroke-linejoin:miter;"/>
   </g>
   <g id="patch_63">
    <path d="M 349.918159 206.116368 
C 351.152908 201.307337 352.084177 196.42545 352.706458 191.499585 
C 353.328739 186.57372 353.640803 181.613609 353.640802 176.648593 
L 235.148749 176.648604 
L 349.918159 206.116368 
z
" style="fill:#00004c;opacity:0.5;stroke:#00004c;stroke-linejoin:miter;"/>
   </g>
   <g id="patch_64">
    <path d="M 353.640802 176.648604 
C 353.640802 162.96543 351.270653 149.385087 346.635643 136.510852 
C 342.000634 123.636618 335.170428 111.661993 326.448445 101.118927 
C 317.726462 90.57586 307.243794 81.622816 295.466112 74.657514 
C 283.688429 67.692212 270.792753 62.819342 257.351946 60.255371 
C 243.911139 57.691399 230.12722 57.474864 216.612509 59.615384 
C 203.097798 61.755904 190.055424 66.221306 178.064767 72.813225 
C 166.074111 79.405144 155.315394 88.024502 146.266548 98.288402 
C 137.217703 108.552302 130.014736 120.306475 124.977624 133.028768 
C 119.940512 145.751061 117.144963 159.250255 116.715164 172.926677 
C 116.285364 186.603098 118.227775 200.251189 122.456108 213.26466 
C 126.684441 226.278132 133.135143 238.461389 141.521657 249.273218 
C 149.90817 260.085046 160.104444 269.362941 171.657529 276.694753 
C 183.210614 284.026564 195.946867 289.302093 209.300505 292.286985 
C 222.654143 295.271877 236.42446 295.921269 249.999738 294.206313 
C 263.575015 292.491357 276.751215 288.437829 288.943012 282.225799 
C 301.134809 276.013768 312.158959 267.736603 321.525736 257.761999 
L 235.148749 176.648604 
L 353.640802 176.648604 
z
" style="fill:#2e3e0f;opacity:0.5;stroke:#2e3e0f;stroke-linejoin:miter;"/>
   </g>
   <g id="patch_65">
    <path d="M 321.525736 257.761999 
C 326.62601 252.330759 331.202675 246.430559 335.194896 240.139825 
C 339.187118 233.849091 342.57713 227.195818 345.319872 220.268443 
L 235.148749 176.648604 
L 321.525736 257.761999 
z
" style="fill:#4c0000;opacity:0.5;stroke:#4c0000;stroke-linejoin:miter;"/>
   </g>
   <g id="patch_66">
    <path d="M 345.319872 220.268443 
C 348.062615 213.341067 350.145881 206.170417 351.541981 198.851806 
C 352.938081 191.533194 353.640802 184.099191 353.640802 176.64861 
L 235.148749 176.648604 
L 345.319872 220.268443 
z
" style="fill:#00004c;opacity:0.5;stroke:#00004c;stroke-linejoin:miter;"/>
   </g>
   <g id="patch_67">
    <path d="M 353.640802 176.648604 
C 353.640802 161.401495 350.697892 146.296725 344.97389 132.164841 
C 339.249888 118.032958 330.851665 105.137816 320.241007 94.188466 
C 309.630349 83.239117 297.005364 74.439993 283.060249 68.274922 
C 269.115134 62.109852 254.110256 58.693942 238.87067 58.215019 
C 223.631085 57.736096 208.441329 60.203102 194.136623 65.480387 
C 179.831918 70.757672 166.679345 78.746705 155.40211 89.0082 
C 144.124874 99.269696 134.933532 111.612064 128.333478 125.356648 
C 121.733423 139.101233 117.847884 153.991411 116.890511 169.208434 
C 115.933138 184.425456 117.921806 199.685207 122.747166 214.148617 
C 127.572526 228.612028 135.144484 242.009052 145.04669 253.603044 
C 154.948896 265.197036 166.996467 274.771525 180.526957 281.80005 
C 194.057447 288.828576 208.81823 293.179909 223.997672 294.614787 
C 239.177114 296.049665 254.491801 294.541299 269.099642 290.172626 
C 283.707484 285.803954 297.335738 278.656542 309.235045 269.123398 
C 321.134351 259.590254 331.082539 247.849369 338.532599 234.546327 
C 345.982659 221.243284 350.795491 206.626463 352.706459 191.499582 
L 235.148749 176.648604 
L 353.640802 176.648604 
z
" style="fill:#2e3e0f;opacity:0.5;stroke:#2e3e0f;stroke-linejoin:miter;"/>
   </g>
   <g id="patch_68">
    <path d="M 352.706459 191.499582 
C 353.017523 189.037257 353.251147 186.565766 353.406986 184.088768 
C 353.562825 181.611769 353.640803 179.130486 353.640802 176.64859 
L 235.148749 176.648604 
L 352.706459 191.499582 
z
" style="fill:#4c0000;opacity:0.5;stroke:#4c0000;stroke-linejoin:miter;"/>
   </g>
   <g id="patch_69">
    <path d="M 353.640802 176.648604 
C 353.640802 147.124122 342.605948 118.639879 322.715433 96.821023 
C 302.824918 75.002168 275.480351 61.386192 246.081815 58.662016 
C 216.683279 55.937841 187.302377 64.297429 163.741332 82.089904 
C 140.180287 99.88238 124.099356 125.853976 118.674247 154.875748 
L 235.148749 176.648604 
L 353.640802 176.648604 
z
" style="fill:#2e3e0f;opacity:0.5;stroke:#2e3e0f;stroke-linejoin:miter;"/>
   </g>
   <g id="patch_70">
    <path d="M 118.674247 154.875748 
C 113.939512 180.204346 117.593522 206.399086 129.079013 229.465059 
C 140.564503 252.531032 159.266325 271.232853 182.332298 282.718342 
C 205.398272 294.203832 231.593013 297.857841 256.92161 293.123105 
C 282.250208 288.388368 305.356095 275.518472 322.715436 256.476181 
L 235.148749 176.648604 
L 118.674247 154.875748 
z
" style="fill:#4c0000;opacity:0.5;stroke:#4c0000;stroke-linejoin:miter;"/>
   </g>
   <g id="patch_71">
    <path d="M 322.715436 256.476181 
C 332.578075 245.657381 340.350865 233.103892 345.6393 219.452866 
C 350.927735 205.80184 353.640803 191.288204 353.640802 176.648598 
L 235.148749 176.648604 
L 322.715436 256.476181 
z
" style="fill:#00004c;opacity:0.5;stroke:#00004c;stroke-linejoin:miter;"/>
   </g>
   <g id="patch_72">
    <path d="M 356.010643 174.278763 
C 356.010643 157.293707 352.3586 140.505533 345.302752 125.055384 
C 338.246905 109.605234 327.950829 95.851287 315.114381 84.728442 
C 302.277932 73.605596 287.198696 65.371711 270.901655 60.586469 
C 254.604613 55.801226 237.467578 54.575562 220.655406 56.992788 
C 203.843234 59.410015 187.74568 65.414093 173.456942 74.596908 
C 159.168205 83.779723 147.019539 95.928391 137.836726 110.21713 
C 128.653913 124.505869 122.649837 140.603424 120.232613 157.415596 
C 117.815389 174.227768 119.041055 191.364803 123.8263 207.661844 
L 237.51859 174.278763 
L 356.010643 174.278763 
z
" style="fill:#9acd32;"/>
   </g>
   <g id="patch_73">
    <path d="M 123.8263 207.661844 
C 130.225307 229.454852 142.75743 248.955211 159.922807 263.829091 
C 177.088184 278.702972 198.173567 288.33234 220.655428 291.564741 
C 243.137289 294.797141 266.081472 291.498262 286.741984 282.062919 
C 307.402496 272.627575 324.920863 257.447819 337.200459 238.340387 
L 237.51859 174.278763 
L 123.8263 207.661844 
z
" style="fill:#ff0000;"/>
   </g>
   <g id="patch_74">
    <path d="M 337.200459 238.340387 
C 343.309457 228.834598 348.027439 218.503653 351.210889 207.661812 
C 354.394338 196.819971 356.010645 185.578293 356.010643 174.278741 
L 237.51859 174.278763 
L 337.200459 238.340387 
z
" style="fill:#0000ff;"/>
   </g>
   <g id="patch_75">
    <path d="M 356.010643 174.278763 
C 356.010643 161.324516 353.886292 148.457508 349.722286 136.190741 
C 345.55828 123.923975 339.410703 112.422668 331.524657 102.145372 
C 323.638612 91.868077 314.120312 82.953217 303.34925 75.756223 
C 292.578187 68.559228 280.699435 63.177035 268.186593 59.824229 
C 255.673752 56.471423 242.695354 55.193162 229.768843 56.04041 
C 216.842332 56.887657 204.141813 59.849002 192.173649 64.806378 
C 180.205485 69.763753 169.130874 76.650388 159.391355 85.191716 
C 149.651836 93.733044 141.378589 103.814023 134.901465 115.03273 
C 128.42434 126.251436 123.830578 138.456767 121.303329 151.162102 
C 118.77608 163.867437 118.349383 176.901649 120.040251 189.74507 
C 121.731118 202.588492 125.516776 215.068138 131.246292 226.686449 
C 136.975808 238.304761 144.572012 248.905253 153.732047 258.06529 
C 162.892082 267.225327 173.492573 274.821533 185.110884 280.551051 
C 196.729194 286.280569 209.208839 290.066229 222.05226 291.757099 
C 234.895682 293.447969 247.929894 293.021275 260.635229 290.494028 
C 273.340564 287.966781 285.545896 283.373021 296.764604 276.895899 
L 237.51859 174.278763 
L 356.010643 174.278763 
z
" style="fill:#9acd32;"/>
   </g>
   <g id="patch_76">
    <path d="M 296.764604 276.895899 
C 314.776333 266.496825 329.736634 251.536528 340.135712 233.524801 
C 350.53479 215.513074 356.010641 195.076926 356.010643 174.278774 
L 237.51859 174.278763 
L 296.764604 276.895899 
z
" style="fill:#ff0000;"/>
   </g>
   <g id="patch_77">
    <path d="M 356.010643 174.278763 
C 356.010643 161.324516 353.886292 148.457508 349.722286 136.190741 
C 345.55828 123.923975 339.410703 112.422668 331.524657 102.145372 
C 323.638612 91.868077 314.120312 82.953217 303.34925 75.756223 
C 292.578187 68.559228 280.699435 63.177035 268.186593 59.824229 
C 255.673752 56.471423 242.695354 55.193162 229.768843 56.04041 
C 216.842332 56.887657 204.141813 59.849002 192.173649 64.806378 
C 180.205485 69.763753 169.130874 76.650388 159.391355 85.191716 
C 149.651836 93.733044 141.378589 103.814023 134.901465 115.03273 
C 128.42434 126.251436 123.830578 138.456767 121.303329 151.162102 
C 118.77608 163.867437 118.349383 176.901649 120.040251 189.74507 
C 121.731118 202.588492 125.516776 215.068138 131.246292 226.686449 
C 136.975808 238.304761 144.572012 248.905253 153.732047 258.06529 
C 162.892082 267.225327 173.492573 274.821533 185.110884 280.551051 
C 196.729194 286.280569 209.208839 290.066229 222.05226 291.757099 
C 234.895682 293.447969 247.929894 293.021275 260.635229 290.494028 
C 273.340564 287.966781 285.545896 283.373021 296.764604 276.895899 
L 237.51859 174.278763 
L 356.010643 174.278763 
z
" style="fill:#9acd32;"/>
   </g>
   <g id="patch_78">
    <path d="M 296.764604 276.895899 
C 314.776333 266.496825 329.736634 251.536528 340.135712 233.524801 
C 350.53479 215.513074 356.010641 195.076926 356.010643 174.278774 
L 237.51859 174.278763 
L 296.764604 276.895899 
z
" style="fill:#ff0000;"/>
   </g>
   <g id="patch_79">
    <path d="M 356.010643 174.278763 
C 356.010643 161.324516 353.886292 148.457508 349.722286 136.190741 
C 345.55828 123.923975 339.410703 112.422668 331.524657 102.145372 
C 323.638612 91.868077 314.120312 82.953217 303.34925 75.756223 
C 292.578187 68.559228 280.699435 63.177035 268.186593 59.824229 
C 255.673752 56.471423 242.695354 55.193162 229.768843 56.04041 
C 216.842332 56.887657 204.141813 59.849002 192.173649 64.806378 
C 180.205485 69.763753 169.130874 76.650388 159.391355 85.191716 
C 149.651836 93.733044 141.378589 103.814023 134.901465 115.03273 
C 128.42434 126.251436 123.830578 138.456767 121.303329 151.162102 
C 118.77608 163.867437 118.349383 176.901649 120.040251 189.74507 
C 121.731118 202.588492 125.516776 215.068138 131.246292 226.686449 
C 136.975808 238.304761 144.572012 248.905253 153.732047 258.06529 
C 162.892082 267.225327 173.492573 274.821533 185.110884 280.551051 
C 196.729194 286.280569 209.208839 290.066229 222.05226 291.757099 
C 234.895682 293.447969 247.929894 293.021275 260.635229 290.494028 
C 273.340564 287.966781 285.545896 283.373021 296.764604 276.895899 
L 237.51859 174.278763 
L 356.010643 174.278763 
z
" style="fill:#9acd32;"/>
   </g>
   <g id="patch_80">
    <path d="M 296.764604 276.895899 
C 314.776333 266.496825 329.736634 251.536528 340.135712 233.524801 
C 350.53479 215.513074 356.010641 195.076926 356.010643 174.278774 
L 237.51859 174.278763 
L 296.764604 276.895899 
z
" style="fill:#ff0000;"/>
   </g>
   <g id="patch_81">
    <path d="M 356.010643 174.278763 
C 356.010643 161.324516 353.886292 148.457508 349.722286 136.190741 
C 345.55828 123.923975 339.410703 112.422668 331.524657 102.145372 
C 323.638612 91.868077 314.120312 82.953217 303.34925 75.756223 
C 292.578187 68.559228 280.699435 63.177035 268.186593 59.824229 
C 255.673752 56.471423 242.695354 55.193162 229.768843 56.04041 
C 216.842332 56.887657 204.141813 59.849002 192.173649 64.806378 
C 180.205485 69.763753 169.130874 76.650388 159.391355 85.191716 
C 149.651836 93.733044 141.378589 103.814023 134.901465 115.03273 
C 128.42434 126.251436 123.830578 138.456767 121.303329 151.162102 
C 118.77608 163.867437 118.349383 176.901649 120.040251 189.74507 
C 121.731118 202.588492 125.516776 215.068138 131.246292 226.686449 
C 136.975808 238.304761 144.572012 248.905253 153.732047 258.06529 
C 162.892082 267.225327 173.492573 274.821533 185.110884 280.551051 
C 196.729194 286.280569 209.208839 290.066229 222.05226 291.757099 
C 234.895682 293.447969 247.929894 293.021275 260.635229 290.494028 
C 273.340564 287.966781 285.545896 283.373021 296.764604 276.895899 
L 237.51859 174.278763 
L 356.010643 174.278763 
z
" style="fill:#9acd32;"/>
   </g>
   <g id="patch_82">
    <path d="M 296.764604 276.895899 
C 314.776333 266.496825 329.736634 251.536528 340.135712 233.524801 
C 350.53479 215.513074 356.010641 195.076926 356.010643 174.278774 
L 237.51859 174.278763 
L 296.764604 276.895899 
z
" style="fill:#ff0000;"/>
   </g>
   <g id="patch_83">
    <path d="M 356.010643 174.278763 
C 356.010643 159.970344 353.41894 145.779527 348.361274 132.394802 
C 343.303608 119.010077 335.863117 106.651464 326.40079 95.918561 
C 316.938463 85.185658 305.609841 76.254893 292.964552 69.559557 
C 280.319263 62.864222 266.565171 58.514374 252.369579 56.721054 
C 238.173986 54.927734 223.770241 55.720421 209.857165 59.060655 
C 195.944089 62.400889 182.750387 68.233765 170.916172 76.27629 
C 159.081957 84.318815 148.801762 94.438785 140.574346 106.145214 
C 132.346931 117.851643 126.307538 130.9521 122.74918 144.810994 
C 119.190822 158.669887 118.17199 173.059404 119.742115 187.281414 
C 121.312241 201.503423 125.445513 215.324143 131.9414 228.073037 
C 138.437287 240.821931 147.189009 252.289432 157.771961 261.919176 
C 168.354913 271.54892 180.595132 279.182613 193.898764 284.449892 
C 207.202396 289.717171 221.350754 292.531453 235.657407 292.756199 
C 249.964061 292.980944 264.193836 290.612459 277.656352 285.765654 
C 291.118867 280.918849 303.592825 273.673396 314.473032 264.38082 
C 325.353238 255.088244 334.460842 243.901298 341.353974 231.362734 
L 237.51859 174.278763 
L 356.010643 174.278763 
z
" style="fill:#9acd32;"/>
   </g>
   <g id="patch_84">
    <path d="M 341.353974 231.362734 
C 343.745888 227.011858 345.861976 222.514941 347.689719 217.898586 
C 349.517463 213.282231 351.053252 208.555558 352.288001 203.746527 
L 237.51859 174.278763 
L 341.353974 231.362734 
z
" style="fill:#ff0000;"/>
   </g>
   <g id="patch_85">
    <path d="M 352.288001 203.746527 
C 353.522749 198.937496 354.454019 194.055609 355.0763 189.129744 
C 355.698581 184.203879 356.010644 179.243768 356.010643 174.278752 
L 237.51859 174.278763 
L 352.288001 203.746527 
z
" style="fill:#0000ff;"/>
   </g>
   <g id="patch_86">
    <path d="M 356.010643 174.278763 
C 356.010643 159.970344 353.41894 145.779527 348.361274 132.394802 
C 343.303608 119.010077 335.863117 106.651464 326.40079 95.918561 
C 316.938463 85.185658 305.609841 76.254893 292.964552 69.559557 
C 280.319263 62.864222 266.565171 58.514374 252.369579 56.721054 
C 238.173986 54.927734 223.770241 55.720421 209.857165 59.060655 
C 195.944089 62.400889 182.750387 68.233765 170.916172 76.27629 
C 159.081957 84.318815 148.801762 94.438785 140.574346 106.145214 
C 132.346931 117.851643 126.307538 130.9521 122.74918 144.810994 
C 119.190822 158.669887 118.17199 173.059404 119.742115 187.281414 
C 121.312241 201.503423 125.445513 215.324143 131.9414 228.073037 
C 138.437287 240.821931 147.189009 252.289432 157.771961 261.919176 
C 168.354913 271.54892 180.595132 279.182613 193.898764 284.449892 
C 207.202396 289.717171 221.350754 292.531453 235.657407 292.756199 
C 249.964061 292.980944 264.193836 290.612459 277.656352 285.765654 
C 291.118867 280.918849 303.592825 273.673396 314.473032 264.38082 
C 325.353238 255.088244 334.460842 243.901298 341.353974 231.362734 
L 237.51859 174.278763 
L 356.010643 174.278763 
z
" style="fill:#9acd32;"/>
   </g>
   <g id="patch_87">
    <path d="M 341.353974 231.362734 
C 343.745888 227.011858 345.861976 222.514941 347.689719 217.898586 
C 349.517463 213.282231 351.053252 208.555558 352.288001 203.746527 
L 237.51859 174.278763 
L 341.353974 231.362734 
z
" style="fill:#ff0000;"/>
   </g>
   <g id="patch_88">
    <path d="M 352.288001 203.746527 
C 353.522749 198.937496 354.454019 194.055609 355.0763 189.129744 
C 355.698581 184.203879 356.010644 179.243768 356.010643 174.278752 
L 237.51859 174.278763 
L 352.288001 203.746527 
z
" style="fill:#0000ff;"/>
   </g>
   <g id="patch_89">
    <path d="M 356.010643 174.278763 
C 356.010643 160.283021 353.530973 146.397327 348.686808 133.266643 
C 343.842643 120.135959 336.710163 107.966778 327.620656 97.324332 
C 318.531148 86.681885 307.627556 77.733538 295.416327 70.894921 
C 283.205098 64.056303 269.878266 59.434961 256.054835 57.245544 
C 242.231404 55.056127 228.12876 55.333066 214.401942 58.0635 
C 200.675124 60.793933 187.54 65.934921 175.606667 73.247675 
C 163.673335 80.56043 153.129459 89.92995 144.464778 100.921043 
C 135.800098 111.912136 129.150876 124.351955 124.825953 137.662696 
C 120.501029 150.973438 118.568419 164.945777 119.117889 178.930729 
C 119.667358 192.915681 122.690265 206.693318 128.046202 219.623699 
C 133.40214 232.554079 141.00688 244.433859 150.507199 254.711248 
C 160.007518 264.988638 171.254014 273.502014 183.724311 279.85595 
C 196.194608 286.209885 209.692598 290.304457 223.591328 291.949482 
C 237.490058 293.594507 251.570956 292.764115 265.179995 289.496875 
C 278.789034 286.229636 291.712198 280.57693 303.349234 272.801314 
C 314.986269 265.025698 325.154172 255.249451 333.380664 243.926659 
L 237.51859 174.278763 
L 356.010643 174.278763 
z
" style="fill:#9acd32;"/>
   </g>
   <g id="patch_90">
    <path d="M 333.380664 243.926659 
C 339.22314 235.885183 344.030618 227.140417 347.689708 217.898614 
C 351.348798 208.656812 353.830505 198.991207 355.076296 189.129774 
L 237.51859 174.278763 
L 333.380664 243.926659 
z
" style="fill:#ff0000;"/>
   </g>
   <g id="patch_91">
    <path d="M 355.076296 189.129774 
C 355.38736 186.667449 355.620985 184.195958 355.776825 181.71896 
C 355.932665 179.241961 356.010643 176.760678 356.010643 174.278782 
L 237.51859 174.278763 
L 355.076296 189.129774 
z
" style="fill:#0000ff;"/>
   </g>
   <g id="patch_92">
    <path d="M 356.010643 174.278763 
C 356.010643 159.344664 353.187324 144.544303 347.689715 130.65893 
C 342.192107 116.773556 334.118675 104.051862 323.895581 93.165372 
C 313.672487 82.278882 301.482831 73.422579 287.970055 67.063949 
C 274.457279 60.705318 259.863401 56.958247 244.958771 56.020526 
C 230.054142 55.082806 215.105708 56.971232 200.902536 61.586122 
C 186.699364 66.201011 173.495838 73.45971 161.988917 82.979063 
C 150.481995 92.498415 140.877772 104.107925 133.683215 117.194775 
C 126.488657 130.281625 121.832622 144.611424 119.960882 159.427763 
C 118.089142 174.244102 119.035221 189.281613 122.749179 203.74653 
C 126.463138 218.211447 132.878457 231.844696 141.656499 243.926637 
C 150.434541 256.008577 161.418087 266.322816 174.027363 274.324907 
C 186.636639 282.326998 200.645807 287.873622 215.315381 290.671994 
C 229.984956 293.470367 245.052199 293.470369 259.721774 290.671999 
C 274.391349 287.87363 288.400518 282.327009 301.009795 274.32492 
C 313.619073 266.322832 324.602621 256.008595 333.380666 243.926657 
C 342.15871 231.844718 348.574032 218.21147 352.287994 203.746554 
L 237.51859 174.278763 
L 356.010643 174.278763 
z
" style="fill:#9acd32;"/>
   </g>
   <g id="patch_93">
    <path d="M 352.287994 203.746554 
C 353.522743 198.937523 354.454014 194.055636 355.076296 189.129771 
C 355.698578 184.203906 356.010643 179.243795 356.010643 174.27878 
L 237.51859 174.278763 
L 352.287994 203.746554 
z
" style="fill:#ff0000;"/>
   </g>
   <g id="patch_94">
    <path d="M 356.010643 174.278763 
C 356.010643 160.283021 353.530973 146.397327 348.686808 133.266643 
C 343.842643 120.135959 336.710163 107.966778 327.620656 97.324332 
C 318.531148 86.681885 307.627556 77.733538 295.416327 70.894921 
C 283.205098 64.056303 269.878266 59.434961 256.054835 57.245544 
C 242.231404 55.056127 228.12876 55.333066 214.401942 58.0635 
C 200.675124 60.793933 187.54 65.934921 175.606667 73.247675 
C 163.673335 80.56043 153.129459 89.92995 144.464778 100.921043 
C 135.800098 111.912136 129.150876 124.351955 124.825953 137.662696 
C 120.501029 150.973438 118.568419 164.945777 119.117889 178.930729 
C 119.667358 192.915681 122.690265 206.693318 128.046202 219.623699 
C 133.40214 232.554079 141.00688 244.433859 150.507199 254.711248 
C 160.007518 264.988638 171.254014 273.502014 183.724311 279.85595 
C 196.194608 286.209885 209.692598 290.304457 223.591328 291.949482 
C 237.490058 293.594507 251.570956 292.764115 265.179995 289.496875 
C 278.789034 286.229636 291.712198 280.57693 303.349234 272.801314 
C 314.986269 265.025698 325.154172 255.249451 333.380664 243.926659 
L 237.51859 174.278763 
L 356.010643 174.278763 
z
" style="fill:#9acd32;"/>
   </g>
   <g id="patch_95">
    <path d="M 333.380664 243.926659 
C 337.760007 237.899012 341.561093 231.47173 344.733398 224.730242 
C 347.905702 217.988755 350.435107 210.963064 352.287993 203.746557 
L 237.51859 174.278763 
L 333.380664 243.926659 
z
" style="fill:#ff0000;"/>
   </g>
   <g id="patch_96">
    <path d="M 352.287993 203.746557 
C 353.522743 198.937526 354.454013 194.055639 355.076296 189.129774 
C 355.698578 184.203909 356.010643 179.243798 356.010643 174.278782 
L 237.51859 174.278763 
L 352.287993 203.746557 
z
" style="fill:#0000ff;"/>
   </g>
   <g id="patch_97">
    <path d="M 356.010643 174.278763 
C 356.010643 160.595589 353.640494 147.015246 349.005484 134.141011 
C 344.370475 121.266776 337.54027 109.292152 328.818286 98.749086 
C 320.096303 88.206019 309.613635 79.252975 297.835953 72.287673 
C 286.05827 65.322371 273.162594 60.449501 259.721787 57.885529 
C 246.28098 55.321558 232.497061 55.105023 218.98235 57.245543 
C 205.467639 59.386063 192.425265 63.851465 180.434609 70.443384 
C 168.443952 77.035303 157.685235 85.654661 148.636389 95.918561 
C 139.587544 106.182461 132.384577 117.936634 127.347465 130.658927 
C 122.310353 143.38122 119.514804 156.880414 119.085005 170.556836 
C 118.655206 184.233257 120.597616 197.881348 124.825949 210.894819 
C 129.054282 223.908291 135.504985 236.091548 143.891498 246.903377 
C 152.278011 257.715205 162.474285 266.9931 174.02737 274.324911 
C 185.580455 281.656723 198.316708 286.932252 211.670346 289.917144 
C 225.023984 292.902036 238.794301 293.551428 252.369579 291.836472 
C 265.944856 290.121516 279.121056 286.067988 291.312853 279.855957 
C 303.50465 273.643927 314.5288 265.366762 323.895577 255.392158 
L 237.51859 174.278763 
L 356.010643 174.278763 
z
" style="fill:#9acd32;"/>
   </g>
   <g id="patch_98">
    <path d="M 323.895577 255.392158 
C 328.995851 249.960918 333.572516 244.060718 337.564737 237.769984 
C 341.556959 231.47925 344.946971 224.825977 347.689713 217.898601 
L 237.51859 174.278763 
L 323.895577 255.392158 
z
" style="fill:#ff0000;"/>
   </g>
   <g id="patch_99">
    <path d="M 347.689713 217.898601 
C 350.432456 210.971226 352.515722 203.800576 353.911822 196.481965 
C 355.307923 189.163353 356.010643 181.72935 356.010643 174.278769 
L 237.51859 174.278763 
L 347.689713 217.898601 
z
" style="fill:#0000ff;"/>
   </g>
   <g id="patch_100">
    <path d="M 356.010643 174.278763 
C 356.010643 160.595589 353.640494 147.015246 349.005484 134.141011 
C 344.370475 121.266776 337.54027 109.292152 328.818286 98.749086 
C 320.096303 88.206019 309.613635 79.252975 297.835953 72.287673 
C 286.05827 65.322371 273.162594 60.449501 259.721787 57.885529 
C 246.28098 55.321558 232.497061 55.105023 218.98235 57.245543 
C 205.467639 59.386063 192.425265 63.851465 180.434609 70.443384 
C 168.443952 77.035303 157.685235 85.654661 148.636389 95.918561 
C 139.587544 106.182461 132.384577 117.936634 127.347465 130.658927 
C 122.310353 143.38122 119.514804 156.880414 119.085005 170.556836 
C 118.655206 184.233257 120.597616 197.881348 124.825949 210.894819 
C 129.054282 223.908291 135.504985 236.091548 143.891498 246.903377 
C 152.278011 257.715205 162.474285 266.9931 174.02737 274.324911 
C 185.580455 281.656723 198.316708 286.932252 211.670346 289.917144 
C 225.023984 292.902036 238.794301 293.551428 252.369579 291.836472 
C 265.944856 290.121516 279.121056 286.067988 291.312853 279.855957 
C 303.50465 273.643927 314.5288 265.366762 323.895577 255.392158 
L 237.51859 174.278763 
L 356.010643 174.278763 
z
" style="fill:#9acd32;"/>
   </g>
   <g id="patch_101">
    <path d="M 323.895577 255.392158 
C 328.995851 249.960918 333.572516 244.060718 337.564737 237.769984 
C 341.556959 231.47925 344.946971 224.825977 347.689713 217.898601 
L 237.51859 174.278763 
L 323.895577 255.392158 
z
" style="fill:#ff0000;"/>
   </g>
   <g id="patch_102">
    <path d="M 347.689713 217.898601 
C 350.432456 210.971226 352.515722 203.800576 353.911822 196.481965 
C 355.307923 189.163353 356.010643 181.72935 356.010643 174.278769 
L 237.51859 174.278763 
L 347.689713 217.898601 
z
" style="fill:#0000ff;"/>
   </g>
   <g id="patch_103">
    <path d="M 356.010643 174.278763 
C 356.010643 160.908054 353.747506 147.633282 349.317283 135.017855 
C 344.887061 122.402429 338.353328 110.627383 329.993391 100.192475 
C 321.633453 89.757568 311.567278 80.812542 300.222095 73.737044 
C 288.876911 66.661546 276.415527 61.557111 263.366828 58.640381 
C 250.318129 55.723651 236.869368 55.036484 223.591339 56.608042 
C 210.313309 58.179601 197.396556 61.987334 185.38929 67.869633 
C 173.382025 73.751932 162.456557 81.624384 153.076585 91.152867 
C 143.696612 100.68135 135.996742 111.729126 130.303772 123.827305 
C 124.610801 135.925485 121.006427 148.900454 119.643625 162.201531 
C 118.280824 175.502607 119.179152 188.938915 122.300482 201.94019 
C 125.421813 214.941465 130.721354 227.321135 137.974183 238.553781 
C 145.227012 249.786427 154.329047 259.710857 164.89398 267.905858 
C 175.458914 276.100859 187.335134 282.44883 200.018592 286.680351 
C 212.70205 290.911871 226.010732 292.966218 239.379791 292.756198 
C 252.748851 292.546179 265.986437 290.074809 278.53072 285.446978 
C 291.075003 280.819146 302.745968 274.101264 313.048275 265.578453 
L 237.51859 174.278763 
L 356.010643 174.278763 
z
" style="fill:#9acd32;"/>
   </g>
   <g id="patch_104">
    <path d="M 313.048275 265.578453 
C 320.707031 259.242578 327.538207 251.968114 333.380681 243.926637 
C 339.223155 235.885159 344.03063 227.140392 347.689718 217.898589 
L 237.51859 174.278763 
L 313.048275 265.578453 
z
" style="fill:#ff0000;"/>
   </g>
   <g id="patch_105">
    <path d="M 347.689718 217.898589 
C 350.43246 210.971213 352.515726 203.800563 353.911825 196.481951 
C 355.307924 189.163339 356.010644 181.729336 356.010643 174.278755 
L 237.51859 174.278763 
L 347.689718 217.898589 
z
" style="fill:#0000ff;"/>
   </g>
   <g id="patch_106">
    <path d="M 356.010643 174.278763 
C 356.010643 159.970344 353.41894 145.779527 348.361274 132.394802 
C 343.303608 119.010077 335.863117 106.651464 326.40079 95.918561 
C 316.938463 85.185658 305.609841 76.254893 292.964552 69.559557 
C 280.319263 62.864222 266.565171 58.514374 252.369579 56.721054 
C 238.173986 54.927734 223.770241 55.720421 209.857165 59.060655 
C 195.944089 62.400889 182.750387 68.233765 170.916172 76.27629 
C 159.081957 84.318815 148.801762 94.438785 140.574346 106.145214 
C 132.346931 117.851643 126.307538 130.9521 122.74918 144.810994 
C 119.190822 158.669887 118.17199 173.059404 119.742115 187.281414 
C 121.312241 201.503423 125.445513 215.324143 131.9414 228.073037 
C 138.437287 240.821931 147.189009 252.289432 157.771961 261.919176 
C 168.354913 271.54892 180.595132 279.182613 193.898764 284.449892 
C 207.202396 289.717171 221.350754 292.531453 235.657407 292.756199 
C 249.964061 292.980944 264.193836 290.612459 277.656352 285.765654 
C 291.118867 280.918849 303.592825 273.673396 314.473032 264.38082 
C 325.353238 255.088244 334.460842 243.901298 341.353974 231.362734 
L 237.51859 174.278763 
L 356.010643 174.278763 
z
" style="fill:#9acd32;"/>
   </g>
   <g id="patch_107">
    <path d="M 341.353974 231.362734 
C 343.745888 227.011858 345.861976 222.514941 347.689719 217.898586 
C 349.517463 213.282231 351.053252 208.555558 352.288001 203.746527 
L 237.51859 174.278763 
L 341.353974 231.362734 
z
" style="fill:#ff0000;"/>
   </g>
   <g id="patch_108">
    <path d="M 352.288001 203.746527 
C 353.522749 198.937496 354.454019 194.055609 355.0763 189.129744 
C 355.698581 184.203879 356.010644 179.243768 356.010643 174.278752 
L 237.51859 174.278763 
L 352.288001 203.746527 
z
" style="fill:#0000ff;"/>
   </g>
   <g id="patch_109">
    <path d="M 356.010643 174.278763 
C 356.010643 159.65756 353.304391 145.161852 348.028903 131.525547 
C 342.753415 117.889243 334.99925 105.346425 325.158997 94.532128 
C 315.318745 83.717832 303.561323 74.817697 290.482005 68.282332 
C 277.402686 61.746966 263.225991 57.688558 248.669677 56.312581 
C 234.113364 54.936604 219.427307 56.266679 205.355054 60.235465 
C 191.2828 64.204251 178.065916 70.743619 166.373565 79.522485 
C 154.681213 88.301351 144.714106 99.169016 136.976872 111.575256 
C 129.239638 123.981496 123.865096 137.713344 121.125356 152.075565 
C 118.385616 166.437787 118.327708 181.183837 120.954564 195.567133 
C 123.58142 209.950429 128.847947 223.724065 136.487505 236.19069 
C 144.127062 248.657315 154.008508 259.602925 165.631551 268.473351 
C 177.254594 277.343777 190.41971 283.986748 204.460359 288.065934 
C 218.501008 292.145119 233.176165 293.590496 247.742837 292.328886 
C 262.309508 291.067276 276.51764 287.120335 289.647884 280.687895 
C 302.778128 274.255456 314.605087 265.447937 324.529971 254.711259 
C 334.454854 243.97458 342.30729 231.49305 347.689714 217.898599 
L 237.51859 174.278763 
L 356.010643 174.278763 
z
" style="fill:#9acd32;"/>
   </g>
   <g id="patch_110">
    <path d="M 347.689714 217.898599 
C 350.432457 210.971223 352.515723 203.800574 353.911823 196.481962 
C 355.307923 189.16335 356.010643 181.729348 356.010643 174.278766 
L 237.51859 174.278763 
L 347.689714 217.898599 
z
" style="fill:#ff0000;"/>
   </g>
   <g id="patch_111">
    <path d="M 356.010643 174.278763 
C 356.010643 160.908054 353.747506 147.633282 349.317283 135.017855 
C 344.887061 122.402429 338.353328 110.627383 329.993391 100.192475 
C 321.633453 89.757568 311.567278 80.812542 300.222095 73.737044 
C 288.876911 66.661546 276.415527 61.557111 263.366828 58.640381 
C 250.318129 55.723651 236.869368 55.036484 223.591339 56.608042 
C 210.313309 58.179601 197.396556 61.987334 185.38929 67.869633 
C 173.382025 73.751932 162.456557 81.624384 153.076585 91.152867 
C 143.696612 100.68135 135.996742 111.729126 130.303772 123.827305 
C 124.610801 135.925485 121.006427 148.900454 119.643625 162.201531 
C 118.280824 175.502607 119.179152 188.938915 122.300482 201.94019 
C 125.421813 214.941465 130.721354 227.321135 137.974183 238.553781 
C 145.227012 249.786427 154.329047 259.710857 164.89398 267.905858 
C 175.458914 276.100859 187.335134 282.44883 200.018592 286.680351 
C 212.70205 290.911871 226.010732 292.966218 239.379791 292.756198 
C 252.748851 292.546179 265.986437 290.074809 278.53072 285.446978 
C 291.075003 280.819146 302.745968 274.101264 313.048275 265.578453 
L 237.51859 174.278763 
L 356.010643 174.278763 
z
" style="fill:#9acd32;"/>
   </g>
   <g id="patch_112">
    <path d="M 313.048275 265.578453 
C 326.487219 254.46079 337.307161 240.511802 344.73341 224.730216 
C 352.159659 208.94863 356.010645 191.720301 356.010643 174.278752 
L 237.51859 174.278763 
L 313.048275 265.578453 
z
" style="fill:#ff0000;"/>
   </g>
   <g id="patch_113">
    <path d="M 356.010643 174.278763 
C 356.010643 161.220417 353.852013 148.251434 349.622187 135.897124 
C 345.392362 123.542814 339.149233 111.972267 331.145681 101.654149 
C 323.142129 91.336032 313.487695 82.411564 302.573434 75.242234 
C 291.659173 68.072904 279.634463 62.756835 266.98637 59.509356 
C 254.338276 56.261877 241.239907 55.127435 228.221816 56.15198 
C 215.203725 57.176526 202.444085 60.346036 190.459727 65.53213 
C 178.47537 70.718223 167.43032 77.84992 157.771961 86.63835 
C 148.113602 95.426779 139.974123 105.751657 133.683216 117.194772 
C 127.392309 128.637887 123.036075 141.042622 120.790964 153.90652 
C 118.545853 166.770418 118.442594 179.917416 120.485368 192.814992 
C 122.528142 205.712568 126.688991 218.184198 132.799379 229.724716 
C 138.909767 241.265234 146.886063 251.716689 156.405186 260.655743 
C 165.92431 269.594797 176.855975 276.899104 188.757394 282.272802 
C 200.658812 287.646501 213.367093 291.016042 226.367485 292.244943 
C 239.367877 293.473844 252.482449 292.545284 265.179992 289.496876 
C 277.877535 286.448468 289.984264 281.321933 301.009791 274.324923 
L 237.51859 174.278763 
L 356.010643 174.278763 
z
" style="fill:#9acd32;"/>
   </g>
   <g id="patch_114">
    <path d="M 301.009791 274.324923 
C 313.619068 266.322835 324.602618 256.008599 333.380663 243.926661 
C 342.158708 231.844723 348.57403 218.211475 352.287992 203.746559 
L 237.51859 174.278763 
L 301.009791 274.324923 
z
" style="fill:#ff0000;"/>
   </g>
   <g id="patch_115">
    <path d="M 352.287992 203.746559 
C 353.522742 198.937529 354.454013 194.055642 355.076295 189.129777 
C 355.698578 184.203912 356.010642 179.243801 356.010643 174.278785 
L 237.51859 174.278763 
L 352.287992 203.746559 
z
" style="fill:#0000ff;"/>
   </g>
   <g id="patch_116">
    <path d="M 356.010643 174.278763 
C 356.010643 161.220417 353.852013 148.251434 349.622187 135.897124 
C 345.392362 123.542814 339.149233 111.972267 331.145681 101.654149 
C 323.142129 91.336032 313.487695 82.411564 302.573434 75.242234 
C 291.659173 68.072904 279.634463 62.756835 266.98637 59.509356 
C 254.338276 56.261877 241.239907 55.127435 228.221816 56.15198 
C 215.203725 57.176526 202.444085 60.346036 190.459727 65.53213 
C 178.47537 70.718223 167.43032 77.84992 157.771961 86.63835 
C 148.113602 95.426779 139.974123 105.751657 133.683216 117.194772 
C 127.392309 128.637887 123.036075 141.042622 120.790964 153.90652 
C 118.545853 166.770418 118.442594 179.917416 120.485368 192.814992 
C 122.528142 205.712568 126.688991 218.184198 132.799379 229.724716 
C 138.909767 241.265234 146.886063 251.716689 156.405186 260.655743 
C 165.92431 269.594797 176.855975 276.899104 188.757394 282.272802 
C 200.658812 287.646501 213.367093 291.016042 226.367485 292.244943 
C 239.367877 293.473844 252.482449 292.545284 265.179992 289.496876 
C 277.877535 286.448468 289.984264 281.321933 301.009791 274.324923 
L 237.51859 174.278763 
L 356.010643 174.278763 
z
" style="fill:#9acd32;"/>
   </g>
   <g id="patch_117">
    <path d="M 301.009791 274.324923 
C 313.619068 266.322835 324.602618 256.008599 333.380663 243.926661 
C 342.158708 231.844723 348.57403 218.211475 352.287992 203.746559 
L 237.51859 174.278763 
L 301.009791 274.324923 
z
" style="fill:#ff0000;"/>
   </g>
   <g id="patch_118">
    <path d="M 352.287992 203.746559 
C 353.522742 198.937529 354.454013 194.055642 355.076295 189.129777 
C 355.698578 184.203912 356.010642 179.243801 356.010643 174.278785 
L 237.51859 174.278763 
L 352.287992 203.746559 
z
" style="fill:#0000ff;"/>
   </g>
   <g id="patch_119">
    <path d="M 356.010643 174.278763 
C 356.010643 159.65756 353.304391 145.161852 348.028903 131.525547 
C 342.753415 117.889243 334.99925 105.346425 325.158997 94.532128 
C 315.318745 83.717832 303.561323 74.817697 290.482005 68.282332 
C 277.402686 61.746966 263.225991 57.688558 248.669677 56.312581 
C 234.113364 54.936604 219.427307 56.266679 205.355054 60.235465 
C 191.2828 64.204251 178.065916 70.743619 166.373565 79.522485 
C 154.681213 88.301351 144.714106 99.169016 136.976872 111.575256 
C 129.239638 123.981496 123.865096 137.713344 121.125356 152.075565 
C 118.385616 166.437787 118.327708 181.183837 120.954564 195.567133 
C 123.58142 209.950429 128.847947 223.724065 136.487505 236.19069 
C 144.127062 248.657315 154.008508 259.602925 165.631551 268.473351 
C 177.254594 277.343777 190.41971 283.986748 204.460359 288.065934 
C 218.501008 292.145119 233.176165 293.590496 247.742837 292.328886 
C 262.309508 291.067276 276.51764 287.120335 289.647884 280.687895 
C 302.778128 274.255456 314.605087 265.447937 324.529971 254.711259 
C 334.454854 243.97458 342.30729 231.49305 347.689714 217.898599 
L 237.51859 174.278763 
L 356.010643 174.278763 
z
" style="fill:#9acd32;"/>
   </g>
   <g id="patch_120">
    <path d="M 347.689714 217.898599 
C 349.517459 213.282244 351.053248 208.555571 352.287997 203.74654 
C 353.522746 198.93751 354.454016 194.055623 355.076298 189.129758 
L 237.51859 174.278763 
L 347.689714 217.898599 
z
" style="fill:#ff0000;"/>
   </g>
   <g id="patch_121">
    <path d="M 355.076298 189.129758 
C 355.387362 186.667432 355.620987 184.195942 355.776826 181.718943 
C 355.932666 179.241945 356.010643 176.760662 356.010643 174.278766 
L 237.51859 174.278763 
L 355.076298 189.129758 
z
" style="fill:#0000ff;"/>
   </g>
   <g id="patch_122">
    <path d="M 356.010643 174.278763 
C 356.010643 160.595589 353.640494 147.015246 349.005484 134.141011 
C 344.370475 121.266776 337.54027 109.292152 328.818286 98.749086 
C 320.096303 88.206019 309.613635 79.252975 297.835953 72.287673 
C 286.05827 65.322371 273.162594 60.449501 259.721787 57.885529 
C 246.28098 55.321558 232.497061 55.105023 218.98235 57.245543 
C 205.467639 59.386063 192.425265 63.851465 180.434609 70.443384 
C 168.443952 77.035303 157.685235 85.654661 148.636389 95.918561 
C 139.587544 106.182461 132.384577 117.936634 127.347465 130.658927 
C 122.310353 143.38122 119.514804 156.880414 119.085005 170.556836 
C 118.655206 184.233257 120.597616 197.881348 124.825949 210.894819 
C 129.054282 223.908291 135.504985 236.091548 143.891498 246.903377 
C 152.278011 257.715205 162.474285 266.9931 174.02737 274.324911 
C 185.580455 281.656723 198.316708 286.932252 211.670346 289.917144 
C 225.023984 292.902036 238.794301 293.551428 252.369579 291.836472 
C 265.944856 290.121516 279.121056 286.067988 291.312853 279.855957 
C 303.50465 273.643927 314.5288 265.366762 323.895577 255.392158 
L 237.51859 174.278763 
L 356.010643 174.278763 
z
" style="fill:#9acd32;"/>
   </g>
   <g id="patch_123">
    <path d="M 323.895577 255.392158 
C 330.699847 248.146347 336.565425 240.073072 341.353966 231.362749 
C 346.142507 222.652426 349.816065 213.374077 352.287996 203.746543 
L 237.51859 174.278763 
L 323.895577 255.392158 
z
" style="fill:#ff0000;"/>
   </g>
   <g id="patch_124">
    <path d="M 352.287996 203.746543 
C 353.522746 198.937513 354.454016 194.055625 355.076297 189.12976 
C 355.698579 184.203895 356.010643 179.243784 356.010643 174.278769 
L 237.51859 174.278763 
L 352.287996 203.746543 
z
" style="fill:#0000ff;"/>
   </g>
   <g id="patch_125">
    <path d="M 356.010643 174.278763 
C 356.010643 160.908054 353.747506 147.633282 349.317283 135.017855 
C 344.887061 122.402429 338.353328 110.627383 329.993391 100.192475 
C 321.633453 89.757568 311.567278 80.812542 300.222095 73.737044 
C 288.876911 66.661546 276.415527 61.557111 263.366828 58.640381 
C 250.318129 55.723651 236.869368 55.036484 223.591339 56.608042 
C 210.313309 58.179601 197.396556 61.987334 185.38929 67.869633 
C 173.382025 73.751932 162.456557 81.624384 153.076585 91.152867 
C 143.696612 100.68135 135.996742 111.729126 130.303772 123.827305 
C 124.610801 135.925485 121.006427 148.900454 119.643625 162.201531 
C 118.280824 175.502607 119.179152 188.938915 122.300482 201.94019 
C 125.421813 214.941465 130.721354 227.321135 137.974183 238.553781 
C 145.227012 249.786427 154.329047 259.710857 164.89398 267.905858 
C 175.458914 276.100859 187.335134 282.44883 200.018592 286.680351 
C 212.70205 290.911871 226.010732 292.966218 239.379791 292.756198 
C 252.748851 292.546179 265.986437 290.074809 278.53072 285.446978 
C 291.075003 280.819146 302.745968 274.101264 313.048275 265.578453 
L 237.51859 174.278763 
L 356.010643 174.278763 
z
" style="fill:#9acd32;"/>
   </g>
   <g id="patch_126">
    <path d="M 313.048275 265.578453 
C 322.628773 257.652775 330.902321 248.268275 337.564746 237.769971 
C 344.227171 227.271667 349.195812 215.78981 352.288001 203.746527 
L 237.51859 174.278763 
L 313.048275 265.578453 
z
" style="fill:#ff0000;"/>
   </g>
   <g id="patch_127">
    <path d="M 352.288001 203.746527 
C 353.522749 198.937496 354.454019 194.055609 355.0763 189.129744 
C 355.698581 184.203879 356.010644 179.243768 356.010643 174.278752 
L 237.51859 174.278763 
L 352.288001 203.746527 
z
" style="fill:#0000ff;"/>
   </g>
   <g id="patch_128">
    <path d="M 356.010643 174.278763 
C 356.010643 153.480611 350.534794 133.044462 340.135717 115.032734 
C 329.736641 97.021007 314.776341 82.060708 296.764613 71.661632 
C 278.752885 61.262557 258.316736 55.786708 237.518584 55.786709 
C 216.720432 55.78671 196.284284 61.262561 178.272556 71.661638 
C 160.260829 82.060715 145.300531 97.021015 134.901456 115.032744 
C 124.502382 133.044473 119.026534 153.480622 119.026536 174.278774 
C 119.026538 195.076926 124.502389 215.513074 134.901467 233.524801 
C 145.300545 251.536528 160.260846 266.496825 178.272576 276.895899 
L 237.51859 174.278763 
L 356.010643 174.278763 
z
" style="fill:#9acd32;"/>
   </g>
   <g id="patch_129">
    <path d="M 178.272576 276.895899 
C 196.284305 287.294973 216.720454 292.77082 237.518606 292.770817 
C 258.316758 292.770814 278.752906 287.294961 296.764632 276.895882 
L 237.51859 174.278763 
L 178.272576 276.895899 
z
" style="fill:#ff0000;"/>
   </g>
   <g id="patch_130">
    <path d="M 296.764632 276.895882 
C 314.776359 266.496804 329.736656 251.536502 340.135728 233.524772 
C 350.534801 215.513043 356.010647 195.076893 356.010643 174.278741 
L 237.51859 174.278763 
L 296.764632 276.895882 
z
" style="fill:#0000ff;"/>
   </g>
   <g id="patch_131">
    <path d="M 356.010643 174.278763 
C 356.010643 159.970344 353.41894 145.779527 348.361274 132.394802 
C 343.303608 119.010077 335.863117 106.651464 326.40079 95.918561 
C 316.938463 85.185658 305.609841 76.254893 292.964552 69.559557 
C 280.319263 62.864222 266.565171 58.514374 252.369579 56.721054 
C 238.173986 54.927734 223.770241 55.720421 209.857165 59.060655 
C 195.944089 62.400889 182.750387 68.233765 170.916172 76.27629 
C 159.081957 84.318815 148.801762 94.438785 140.574346 106.145214 
C 132.346931 117.851643 126.307538 130.9521 122.74918 144.810994 
C 119.190822 158.669887 118.17199 173.059404 119.742115 187.281414 
C 121.312241 201.503423 125.445513 215.324143 131.9414 228.073037 
C 138.437287 240.821931 147.189009 252.289432 157.771961 261.919176 
C 168.354913 271.54892 180.595132 279.182613 193.898764 284.449892 
C 207.202396 289.717171 221.350754 292.531453 235.657407 292.756199 
C 249.964061 292.980944 264.193836 290.612459 277.656352 285.765654 
C 291.118867 280.918849 303.592825 273.673396 314.473032 264.38082 
C 325.353238 255.088244 334.460842 243.901298 341.353974 231.362734 
L 237.51859 174.278763 
L 356.010643 174.278763 
z
" style="fill:#9acd32;"/>
   </g>
   <g id="patch_132">
    <path d="M 341.353974 231.362734 
C 343.745888 227.011858 345.861976 222.514941 347.689719 217.898586 
C 349.517463 213.282231 351.053252 208.555558 352.288001 203.746527 
L 237.51859 174.278763 
L 341.353974 231.362734 
z
" style="fill:#ff0000;"/>
   </g>
   <g id="patch_133">
    <path d="M 352.288001 203.746527 
C 353.522749 198.937496 354.454019 194.055609 355.0763 189.129744 
C 355.698581 184.203879 356.010644 179.243768 356.010643 174.278752 
L 237.51859 174.278763 
L 352.288001 203.746527 
z
" style="fill:#0000ff;"/>
   </g>
   <g id="patch_134">
    <path d="M 356.010643 174.278763 
C 356.010643 160.595589 353.640494 147.015246 349.005484 134.141011 
C 344.370475 121.266776 337.54027 109.292152 328.818286 98.749086 
C 320.096303 88.206019 309.613635 79.252975 297.835953 72.287673 
C 286.05827 65.322371 273.162594 60.449501 259.721787 57.885529 
C 246.28098 55.321558 232.497061 55.105023 218.98235 57.245543 
C 205.467639 59.386063 192.425265 63.851465 180.434609 70.443384 
C 168.443952 77.035303 157.685235 85.654661 148.636389 95.918561 
C 139.587544 106.182461 132.384577 117.936634 127.347465 130.658927 
C 122.310353 143.38122 119.514804 156.880414 119.085005 170.556836 
C 118.655206 184.233257 120.597616 197.881348 124.825949 210.894819 
C 129.054282 223.908291 135.504985 236.091548 143.891498 246.903377 
C 152.278011 257.715205 162.474285 266.9931 174.02737 274.324911 
C 185.580455 281.656723 198.316708 286.932252 211.670346 289.917144 
C 225.023984 292.902036 238.794301 293.551428 252.369579 291.836472 
C 265.944856 290.121516 279.121056 286.067988 291.312853 279.855957 
C 303.50465 273.643927 314.5288 265.366762 323.895577 255.392158 
L 237.51859 174.278763 
L 356.010643 174.278763 
z
" style="fill:#9acd32;"/>
   </g>
   <g id="patch_135">
    <path d="M 323.895577 255.392158 
C 328.995851 249.960918 333.572516 244.060718 337.564737 237.769984 
C 341.556959 231.47925 344.946971 224.825977 347.689713 217.898601 
L 237.51859 174.278763 
L 323.895577 255.392158 
z
" style="fill:#ff0000;"/>
   </g>
   <g id="patch_136">
    <path d="M 347.689713 217.898601 
C 350.432456 210.971226 352.515722 203.800576 353.911822 196.481965 
C 355.307923 189.163353 356.010643 181.72935 356.010643 174.278769 
L 237.51859 174.278763 
L 347.689713 217.898601 
z
" style="fill:#0000ff;"/>
   </g>
   <g id="patch_137">
    <path d="M 356.010643 174.278763 
C 356.010643 159.031654 353.067733 143.926883 347.343731 129.795 
C 341.619729 115.663117 333.221507 102.767975 322.610848 91.818625 
C 312.00019 80.869276 299.375205 72.070152 285.43009 65.905081 
C 271.484975 59.740011 256.480097 56.324101 241.240511 55.845178 
C 226.000926 55.366255 210.81117 57.833261 196.506465 63.110546 
C 182.201759 68.387831 169.049186 76.376864 157.771951 86.638359 
C 146.494715 96.899855 137.303373 109.242223 130.703319 122.986807 
C 124.103264 136.731392 120.217725 151.62157 119.260352 166.838592 
C 118.302979 182.055615 120.291647 197.315366 125.117007 211.778776 
C 129.942367 226.242186 137.514325 239.639211 147.416531 251.233203 
C 157.318737 262.827195 169.366308 272.401684 182.896798 279.430209 
C 196.427288 286.458735 211.188071 290.810067 226.367513 292.244946 
C 241.546955 293.679824 256.861642 292.171458 271.469483 287.802785 
C 286.077325 283.434113 299.705579 276.286701 311.604886 266.753557 
C 323.504192 257.220413 333.45238 245.479528 340.90244 232.176486 
C 348.3525 218.873443 353.165332 204.256622 355.0763 189.129741 
L 237.51859 174.278763 
L 356.010643 174.278763 
z
" style="fill:#9acd32;"/>
   </g>
   <g id="patch_138">
    <path d="M 355.0763 189.129741 
C 355.387364 186.667416 355.620988 184.195925 355.776827 181.718927 
C 355.932666 179.241928 356.010644 176.760645 356.010643 174.278749 
L 237.51859 174.278763 
L 355.0763 189.129741 
z
" style="fill:#ff0000;"/>
   </g>
   <g id="patch_139">
    <path d="M 356.010643 174.278763 
C 356.010643 144.754281 344.975789 116.270038 325.085274 94.451182 
C 305.194759 72.632327 277.850192 59.016351 248.451656 56.292175 
C 219.05312 53.568 189.672218 61.927588 166.111173 79.720063 
C 142.550128 97.512539 126.469197 123.484135 121.044088 152.505907 
L 237.51859 174.278763 
L 356.010643 174.278763 
z
" style="fill:#9acd32;"/>
   </g>
   <g id="patch_140">
    <path d="M 121.044088 152.505907 
C 116.309353 177.834505 119.963363 204.029245 131.448854 227.095218 
C 142.934344 250.161191 161.636166 268.863012 184.702139 280.348501 
C 207.768113 291.833991 233.962854 295.488 259.291452 290.753264 
C 284.620049 286.018527 307.725936 273.148631 325.085277 254.10634 
L 237.51859 174.278763 
L 121.044088 152.505907 
z
" style="fill:#ff0000;"/>
   </g>
   <g id="patch_141">
    <path d="M 325.085277 254.10634 
C 334.947916 243.28754 342.720706 230.734051 348.009141 217.083025 
C 353.297576 203.431999 356.010644 188.918363 356.010643 174.278757 
L 237.51859 174.278763 
L 325.085277 254.10634 
z
" style="fill:#0000ff;"/>
   </g>
   <g id="matplotlib.axis_1"/>
   <g id="matplotlib.axis_2"/>
   <g id="legend_1">
    <g id="patch_142">
     <path d="M 330.83875 93.506375 
L 407.72 93.506375 
Q 409.72 93.506375 409.72 91.506375 
L 409.72 48.472 
Q 409.72 46.472 407.72 46.472 
L 330.83875 46.472 
Q 328.83875 46.472 328.83875 48.472 
L 328.83875 91.506375 
Q 328.83875 93.506375 330.83875 93.506375 
z
" style="fill:#ffffff;opacity:0.8;stroke:#cccccc;stroke-linejoin:miter;"/>
    </g>
    <g id="patch_143">
     <path d="M 332.83875 58.070438 
L 352.83875 58.070438 
L 352.83875 51.070438 
L 332.83875 51.070438 
z
" style="fill:#9acd32;"/>
    </g>
    <g id="text_1">
     <!-- Positive -->
     <g transform="translate(360.83875 58.070438)scale(0.1 -0.1)">
      <defs>
       <path d="M 1259 4147 
L 1259 2394 
L 2053 2394 
Q 2494 2394 2734 2622 
Q 2975 2850 2975 3272 
Q 2975 3691 2734 3919 
Q 2494 4147 2053 4147 
L 1259 4147 
z
M 628 4666 
L 2053 4666 
Q 2838 4666 3239 4311 
Q 3641 3956 3641 3272 
Q 3641 2581 3239 2228 
Q 2838 1875 2053 1875 
L 1259 1875 
L 1259 0 
L 628 0 
L 628 4666 
z
" id="DejaVuSans-50" transform="scale(0.015625)"/>
       <path d="M 1959 3097 
Q 1497 3097 1228 2736 
Q 959 2375 959 1747 
Q 959 1119 1226 758 
Q 1494 397 1959 397 
Q 2419 397 2687 759 
Q 2956 1122 2956 1747 
Q 2956 2369 2687 2733 
Q 2419 3097 1959 3097 
z
M 1959 3584 
Q 2709 3584 3137 3096 
Q 3566 2609 3566 1747 
Q 3566 888 3137 398 
Q 2709 -91 1959 -91 
Q 1206 -91 779 398 
Q 353 888 353 1747 
Q 353 2609 779 3096 
Q 1206 3584 1959 3584 
z
" id="DejaVuSans-6f" transform="scale(0.015625)"/>
       <path d="M 2834 3397 
L 2834 2853 
Q 2591 2978 2328 3040 
Q 2066 3103 1784 3103 
Q 1356 3103 1142 2972 
Q 928 2841 928 2578 
Q 928 2378 1081 2264 
Q 1234 2150 1697 2047 
L 1894 2003 
Q 2506 1872 2764 1633 
Q 3022 1394 3022 966 
Q 3022 478 2636 193 
Q 2250 -91 1575 -91 
Q 1294 -91 989 -36 
Q 684 19 347 128 
L 347 722 
Q 666 556 975 473 
Q 1284 391 1588 391 
Q 1994 391 2212 530 
Q 2431 669 2431 922 
Q 2431 1156 2273 1281 
Q 2116 1406 1581 1522 
L 1381 1569 
Q 847 1681 609 1914 
Q 372 2147 372 2553 
Q 372 3047 722 3315 
Q 1072 3584 1716 3584 
Q 2034 3584 2315 3537 
Q 2597 3491 2834 3397 
z
" id="DejaVuSans-73" transform="scale(0.015625)"/>
       <path d="M 603 3500 
L 1178 3500 
L 1178 0 
L 603 0 
L 603 3500 
z
M 603 4863 
L 1178 4863 
L 1178 4134 
L 603 4134 
L 603 4863 
z
" id="DejaVuSans-69" transform="scale(0.015625)"/>
       <path d="M 1172 4494 
L 1172 3500 
L 2356 3500 
L 2356 3053 
L 1172 3053 
L 1172 1153 
Q 1172 725 1289 603 
Q 1406 481 1766 481 
L 2356 481 
L 2356 0 
L 1766 0 
Q 1100 0 847 248 
Q 594 497 594 1153 
L 594 3053 
L 172 3053 
L 172 3500 
L 594 3500 
L 594 4494 
L 1172 4494 
z
" id="DejaVuSans-74" transform="scale(0.015625)"/>
       <path d="M 191 3500 
L 800 3500 
L 1894 563 
L 2988 3500 
L 3597 3500 
L 2284 0 
L 1503 0 
L 191 3500 
z
" id="DejaVuSans-76" transform="scale(0.015625)"/>
       <path d="M 3597 1894 
L 3597 1613 
L 953 1613 
Q 991 1019 1311 708 
Q 1631 397 2203 397 
Q 2534 397 2845 478 
Q 3156 559 3463 722 
L 3463 178 
Q 3153 47 2828 -22 
Q 2503 -91 2169 -91 
Q 1331 -91 842 396 
Q 353 884 353 1716 
Q 353 2575 817 3079 
Q 1281 3584 2069 3584 
Q 2775 3584 3186 3129 
Q 3597 2675 3597 1894 
z
M 3022 2063 
Q 3016 2534 2758 2815 
Q 2500 3097 2075 3097 
Q 1594 3097 1305 2825 
Q 1016 2553 972 2059 
L 3022 2063 
z
" id="DejaVuSans-65" transform="scale(0.015625)"/>
      </defs>
      <use xlink:href="#DejaVuSans-50"/>
      <use x="56.677734" xlink:href="#DejaVuSans-6f"/>
      <use x="117.859375" xlink:href="#DejaVuSans-73"/>
      <use x="169.958984" xlink:href="#DejaVuSans-69"/>
      <use x="197.742188" xlink:href="#DejaVuSans-74"/>
      <use x="236.951172" xlink:href="#DejaVuSans-69"/>
      <use x="264.734375" xlink:href="#DejaVuSans-76"/>
      <use x="323.914062" xlink:href="#DejaVuSans-65"/>
     </g>
    </g>
    <g id="patch_144">
     <path d="M 332.83875 72.748563 
L 352.83875 72.748563 
L 352.83875 65.748563 
L 332.83875 65.748563 
z
" style="fill:#ff0000;"/>
    </g>
    <g id="text_2">
     <!-- Negative -->
     <g transform="translate(360.83875 72.748563)scale(0.1 -0.1)">
      <defs>
       <path d="M 628 4666 
L 1478 4666 
L 3547 763 
L 3547 4666 
L 4159 4666 
L 4159 0 
L 3309 0 
L 1241 3903 
L 1241 0 
L 628 0 
L 628 4666 
z
" id="DejaVuSans-4e" transform="scale(0.015625)"/>
       <path d="M 2906 1791 
Q 2906 2416 2648 2759 
Q 2391 3103 1925 3103 
Q 1463 3103 1205 2759 
Q 947 2416 947 1791 
Q 947 1169 1205 825 
Q 1463 481 1925 481 
Q 2391 481 2648 825 
Q 2906 1169 2906 1791 
z
M 3481 434 
Q 3481 -459 3084 -895 
Q 2688 -1331 1869 -1331 
Q 1566 -1331 1297 -1286 
Q 1028 -1241 775 -1147 
L 775 -588 
Q 1028 -725 1275 -790 
Q 1522 -856 1778 -856 
Q 2344 -856 2625 -561 
Q 2906 -266 2906 331 
L 2906 616 
Q 2728 306 2450 153 
Q 2172 0 1784 0 
Q 1141 0 747 490 
Q 353 981 353 1791 
Q 353 2603 747 3093 
Q 1141 3584 1784 3584 
Q 2172 3584 2450 3431 
Q 2728 3278 2906 2969 
L 2906 3500 
L 3481 3500 
L 3481 434 
z
" id="DejaVuSans-67" transform="scale(0.015625)"/>
       <path d="M 2194 1759 
Q 1497 1759 1228 1600 
Q 959 1441 959 1056 
Q 959 750 1161 570 
Q 1363 391 1709 391 
Q 2188 391 2477 730 
Q 2766 1069 2766 1631 
L 2766 1759 
L 2194 1759 
z
M 3341 1997 
L 3341 0 
L 2766 0 
L 2766 531 
Q 2569 213 2275 61 
Q 1981 -91 1556 -91 
Q 1019 -91 701 211 
Q 384 513 384 1019 
Q 384 1609 779 1909 
Q 1175 2209 1959 2209 
L 2766 2209 
L 2766 2266 
Q 2766 2663 2505 2880 
Q 2244 3097 1772 3097 
Q 1472 3097 1187 3025 
Q 903 2953 641 2809 
L 641 3341 
Q 956 3463 1253 3523 
Q 1550 3584 1831 3584 
Q 2591 3584 2966 3190 
Q 3341 2797 3341 1997 
z
" id="DejaVuSans-61" transform="scale(0.015625)"/>
      </defs>
      <use xlink:href="#DejaVuSans-4e"/>
      <use x="74.804688" xlink:href="#DejaVuSans-65"/>
      <use x="136.328125" xlink:href="#DejaVuSans-67"/>
      <use x="199.804688" xlink:href="#DejaVuSans-61"/>
      <use x="261.083984" xlink:href="#DejaVuSans-74"/>
      <use x="300.292969" xlink:href="#DejaVuSans-69"/>
      <use x="328.076172" xlink:href="#DejaVuSans-76"/>
      <use x="387.255859" xlink:href="#DejaVuSans-65"/>
     </g>
    </g>
    <g id="patch_145">
     <path d="M 332.83875 87.426688 
L 352.83875 87.426688 
L 352.83875 80.426688 
L 332.83875 80.426688 
z
" style="fill:#0000ff;"/>
    </g>
    <g id="text_3">
     <!-- Neutral -->
     <g transform="translate(360.83875 87.426688)scale(0.1 -0.1)">
      <defs>
       <path d="M 544 1381 
L 544 3500 
L 1119 3500 
L 1119 1403 
Q 1119 906 1312 657 
Q 1506 409 1894 409 
Q 2359 409 2629 706 
Q 2900 1003 2900 1516 
L 2900 3500 
L 3475 3500 
L 3475 0 
L 2900 0 
L 2900 538 
Q 2691 219 2414 64 
Q 2138 -91 1772 -91 
Q 1169 -91 856 284 
Q 544 659 544 1381 
z
M 1991 3584 
L 1991 3584 
z
" id="DejaVuSans-75" transform="scale(0.015625)"/>
       <path d="M 2631 2963 
Q 2534 3019 2420 3045 
Q 2306 3072 2169 3072 
Q 1681 3072 1420 2755 
Q 1159 2438 1159 1844 
L 1159 0 
L 581 0 
L 581 3500 
L 1159 3500 
L 1159 2956 
Q 1341 3275 1631 3429 
Q 1922 3584 2338 3584 
Q 2397 3584 2469 3576 
Q 2541 3569 2628 3553 
L 2631 2963 
z
" id="DejaVuSans-72" transform="scale(0.015625)"/>
       <path d="M 603 4863 
L 1178 4863 
L 1178 0 
L 603 0 
L 603 4863 
z
" id="DejaVuSans-6c" transform="scale(0.015625)"/>
      </defs>
      <use xlink:href="#DejaVuSans-4e"/>
      <use x="74.804688" xlink:href="#DejaVuSans-65"/>
      <use x="136.328125" xlink:href="#DejaVuSans-75"/>
      <use x="199.707031" xlink:href="#DejaVuSans-74"/>
      <use x="238.916016" xlink:href="#DejaVuSans-72"/>
      <use x="280.029297" xlink:href="#DejaVuSans-61"/>
      <use x="341.308594" xlink:href="#DejaVuSans-6c"/>
     </g>
    </g>
   </g>
  </g>
 </g>
</svg>
