<?xml version="1.0" encoding="utf-8" standalone="no"?>
<!DOCTYPE svg PUBLIC "-//W3C//DTD SVG 1.1//EN"
  "http://www.w3.org/Graphics/SVG/1.1/DTD/svg11.dtd">
<svg height="345.6pt" version="1.1" viewBox="0 0 460.8 345.6" width="460.8pt" xmlns="http://www.w3.org/2000/svg" xmlns:xlink="http://www.w3.org/1999/xlink">
 <metadata>
  <rdf:RDF xmlns:cc="http://creativecommons.org/ns#" xmlns:dc="http://purl.org/dc/elements/1.1/" xmlns:rdf="http://www.w3.org/1999/02/22-rdf-syntax-ns#">
   <cc:Work>
    <dc:type rdf:resource="http://purl.org/dc/dcmitype/StillImage"/>
    <dc:date>2021-05-26T23:47:33.583888</dc:date>
    <dc:format>image/svg+xml</dc:format>
    <dc:creator>
     <cc:Agent>
      <dc:title>Matplotlib v3.4.1, https://matplotlib.org/</dc:title>
     </cc:Agent>
    </dc:creator>
   </cc:Work>
  </rdf:RDF>
 </metadata>
 <defs>
  <style type="text/css">*{stroke-linecap:butt;stroke-linejoin:round;}</style>
 </defs>
 <g id="figure_1">
  <g id="patch_1">
   <path d="M 0 345.6 
L 460.8 345.6 
L 460.8 0 
L 0 0 
z
" style="fill:#ffffff;"/>
  </g>
  <g id="axes_1">
   <g id="patch_2">
    <path d="M 352.874057 177.248791 
C 352.874057 150.956467 344.123228 125.397386 328.008478 104.622375 
C 311.893727 83.847363 289.313876 69.015172 263.847574 62.476536 
C 238.381272 55.9379 211.448935 58.057519 187.319032 68.499459 
C 163.18913 78.941398 143.207538 97.123246 130.541112 120.163383 
L 234.379063 177.248791 
L 352.874057 177.248791 
z
" style="fill:#2e3e0f;opacity:0.5;stroke:#2e3e0f;stroke-linejoin:miter;"/>
   </g>
   <g id="patch_3">
    <path d="M 130.541112 120.163383 
C 119.709603 139.865822 114.706142 162.250014 116.117891 184.689146 
C 117.52964 207.128278 125.299128 228.708864 138.514596 246.898397 
C 151.730064 265.087929 169.853517 279.145921 190.758144 287.422649 
C 211.662772 295.699377 234.497558 297.8579 256.582811 293.644912 
L 234.379063 177.248791 
L 130.541112 120.163383 
z
" style="fill:#4c0000;opacity:0.5;stroke:#4c0000;stroke-linejoin:miter;"/>
   </g>
   <g id="patch_4">
    <path d="M 256.582811 293.644912 
C 283.662459 288.479193 308.108551 274.021814 325.681025 252.780342 
C 343.253499 231.53887 352.874057 204.816742 352.874057 177.248791 
L 234.379063 177.248791 
L 256.582811 293.644912 
z
" style="fill:#00004c;opacity:0.5;stroke:#00004c;stroke-linejoin:miter;"/>
   </g>
   <g id="patch_5">
    <path d="M 352.874057 177.248791 
C 352.874057 145.834017 340.381276 115.673776 318.167676 93.460177 
C 295.954077 71.246577 265.793836 58.753797 234.379063 58.753797 
C 202.964289 58.753797 172.804048 71.246577 150.590449 93.460177 
C 128.376849 115.673776 115.884069 145.834017 115.884069 177.248791 
L 234.379063 177.248791 
L 352.874057 177.248791 
z
" style="fill:#2e3e0f;opacity:0.5;stroke:#2e3e0f;stroke-linejoin:miter;"/>
   </g>
   <g id="patch_6">
    <path d="M 115.884069 177.248791 
C 115.884069 198.047459 121.360054 218.484114 131.759388 236.496289 
C 142.158723 254.508464 157.119394 269.469134 175.131569 279.868467 
C 193.143744 290.267801 213.5804 295.743786 234.379068 295.743785 
C 255.177736 295.743784 275.614392 290.267797 293.626566 279.868462 
L 234.379063 177.248791 
L 115.884069 177.248791 
z
" style="fill:#4c0000;opacity:0.5;stroke:#4c0000;stroke-linejoin:miter;"/>
   </g>
   <g id="patch_7">
    <path d="M 293.626566 279.868462 
C 311.63874 269.469127 326.59941 254.508455 336.998742 236.49628 
C 347.398075 218.484104 352.874059 198.047447 352.874057 177.248779 
L 234.379063 177.248791 
L 293.626566 279.868462 
z
" style="fill:#00004c;opacity:0.5;stroke:#00004c;stroke-linejoin:miter;"/>
   </g>
   <g id="patch_8">
    <path d="M 352.874057 177.248791 
C 352.874057 145.834017 340.381276 115.673776 318.167676 93.460177 
C 295.954077 71.246577 265.793836 58.753797 234.379063 58.753797 
C 202.964289 58.753797 172.804048 71.246577 150.590449 93.460177 
C 128.376849 115.673776 115.884069 145.834017 115.884069 177.248791 
L 234.379063 177.248791 
L 352.874057 177.248791 
z
" style="fill:#2e3e0f;opacity:0.5;stroke:#2e3e0f;stroke-linejoin:miter;"/>
   </g>
   <g id="patch_9">
    <path d="M 115.884069 177.248791 
C 115.884069 208.663564 128.376849 238.823805 150.590449 261.037404 
C 172.804048 283.251004 202.964289 295.743785 234.379063 295.743785 
C 265.793836 295.743785 295.954077 283.251004 318.167676 261.037404 
C 340.381276 238.823805 352.874057 208.663564 352.874057 177.248791 
L 234.379063 177.248791 
L 115.884069 177.248791 
z
" style="fill:#4c0000;opacity:0.5;stroke:#4c0000;stroke-linejoin:miter;"/>
   </g>
   <g id="patch_10">
    <path d="M 355.243956 174.878891 
C 355.243956 148.586567 346.493128 123.027487 330.378377 102.252475 
C 314.263627 81.477463 291.683775 66.645272 266.217474 60.106636 
C 240.751172 53.568 213.818834 55.68762 189.688932 66.129559 
C 165.55903 76.571498 145.577438 94.753346 132.911012 117.793483 
L 236.748962 174.878891 
L 355.243956 174.878891 
z
" style="fill:#9acd32;"/>
   </g>
   <g id="patch_11">
    <path d="M 132.911012 117.793483 
C 122.079503 137.495922 117.076042 159.880114 118.487791 182.319246 
C 119.89954 204.758378 127.669028 226.338964 140.884496 244.528497 
C 154.099964 262.71803 172.223416 276.776021 193.128044 285.052749 
C 214.032672 293.329477 236.867458 295.488 258.952711 291.275012 
L 236.748962 174.878891 
L 132.911012 117.793483 
z
" style="fill:#ff0000;"/>
   </g>
   <g id="patch_12">
    <path d="M 258.952711 291.275012 
C 286.032359 286.109293 310.478451 271.651914 328.050925 250.410442 
C 345.623399 229.16897 355.243956 202.446842 355.243956 174.878891 
L 236.748962 174.878891 
L 258.952711 291.275012 
z
" style="fill:#0000ff;"/>
   </g>
   <g id="patch_13">
    <path d="M 355.243956 174.878891 
C 355.243956 143.464117 342.751176 113.303876 320.537576 91.090277 
C 298.323977 68.876678 268.163736 56.383897 236.748962 56.383897 
C 205.334189 56.383897 175.173948 68.876678 152.960349 91.090277 
C 130.746749 113.303876 118.253968 143.464117 118.253968 174.878891 
L 236.748962 174.878891 
L 355.243956 174.878891 
z
" style="fill:#9acd32;"/>
   </g>
   <g id="patch_14">
    <path d="M 118.253968 174.878891 
C 118.253968 195.677559 123.729954 216.114215 134.129288 234.126389 
C 144.528623 252.138564 159.489293 267.099234 177.501469 277.498568 
C 195.513644 287.897901 215.9503 293.373886 236.748968 293.373885 
C 257.547636 293.373884 277.984292 287.897897 295.996466 277.498562 
L 236.748962 174.878891 
L 118.253968 174.878891 
z
" style="fill:#ff0000;"/>
   </g>
   <g id="patch_15">
    <path d="M 295.996466 277.498562 
C 314.00864 267.099227 328.96931 252.138555 339.368642 234.12638 
C 349.767975 216.114204 355.243958 195.677548 355.243956 174.87888 
L 236.748962 174.878891 
L 295.996466 277.498562 
z
" style="fill:#0000ff;"/>
   </g>
   <g id="patch_16">
    <path d="M 355.243956 174.878891 
C 355.243956 143.464117 342.751176 113.303876 320.537576 91.090277 
C 298.323977 68.876678 268.163736 56.383897 236.748962 56.383897 
C 205.334189 56.383897 175.173948 68.876678 152.960349 91.090277 
C 130.746749 113.303876 118.253968 143.464117 118.253968 174.878891 
L 236.748962 174.878891 
L 355.243956 174.878891 
z
" style="fill:#9acd32;"/>
   </g>
   <g id="patch_17">
    <path d="M 118.253968 174.878891 
C 118.253968 206.293664 130.746749 236.453905 152.960349 258.667504 
C 175.173948 280.881104 205.334189 293.373885 236.748962 293.373885 
C 268.163736 293.373885 298.323977 280.881104 320.537576 258.667504 
C 342.751176 236.453905 355.243956 206.293664 355.243956 174.878891 
L 236.748962 174.878891 
L 118.253968 174.878891 
z
" style="fill:#ff0000;"/>
   </g>
   <g id="matplotlib.axis_1"/>
   <g id="matplotlib.axis_2"/>
   <g id="legend_1">
    <g id="patch_18">
     <path d="M 330.83875 93.506375 
L 407.72 93.506375 
Q 409.72 93.506375 409.72 91.506375 
L 409.72 48.472 
Q 409.72 46.472 407.72 46.472 
L 330.83875 46.472 
Q 328.83875 46.472 328.83875 48.472 
L 328.83875 91.506375 
Q 328.83875 93.506375 330.83875 93.506375 
z
" style="fill:#ffffff;opacity:0.8;stroke:#cccccc;stroke-linejoin:miter;"/>
    </g>
    <g id="patch_19">
     <path d="M 332.83875 58.070438 
L 352.83875 58.070438 
L 352.83875 51.070438 
L 332.83875 51.070438 
z
" style="fill:#9acd32;"/>
    </g>
    <g id="text_1">
     <!-- Positive -->
     <g transform="translate(360.83875 58.070438)scale(0.1 -0.1)">
      <defs>
       <path d="M 1259 4147 
L 1259 2394 
L 2053 2394 
Q 2494 2394 2734 2622 
Q 2975 2850 2975 3272 
Q 2975 3691 2734 3919 
Q 2494 4147 2053 4147 
L 1259 4147 
z
M 628 4666 
L 2053 4666 
Q 2838 4666 3239 4311 
Q 3641 3956 3641 3272 
Q 3641 2581 3239 2228 
Q 2838 1875 2053 1875 
L 1259 1875 
L 1259 0 
L 628 0 
L 628 4666 
z
" id="DejaVuSans-50" transform="scale(0.015625)"/>
       <path d="M 1959 3097 
Q 1497 3097 1228 2736 
Q 959 2375 959 1747 
Q 959 1119 1226 758 
Q 1494 397 1959 397 
Q 2419 397 2687 759 
Q 2956 1122 2956 1747 
Q 2956 2369 2687 2733 
Q 2419 3097 1959 3097 
z
M 1959 3584 
Q 2709 3584 3137 3096 
Q 3566 2609 3566 1747 
Q 3566 888 3137 398 
Q 2709 -91 1959 -91 
Q 1206 -91 779 398 
Q 353 888 353 1747 
Q 353 2609 779 3096 
Q 1206 3584 1959 3584 
z
" id="DejaVuSans-6f" transform="scale(0.015625)"/>
       <path d="M 2834 3397 
L 2834 2853 
Q 2591 2978 2328 3040 
Q 2066 3103 1784 3103 
Q 1356 3103 1142 2972 
Q 928 2841 928 2578 
Q 928 2378 1081 2264 
Q 1234 2150 1697 2047 
L 1894 2003 
Q 2506 1872 2764 1633 
Q 3022 1394 3022 966 
Q 3022 478 2636 193 
Q 2250 -91 1575 -91 
Q 1294 -91 989 -36 
Q 684 19 347 128 
L 347 722 
Q 666 556 975 473 
Q 1284 391 1588 391 
Q 1994 391 2212 530 
Q 2431 669 2431 922 
Q 2431 1156 2273 1281 
Q 2116 1406 1581 1522 
L 1381 1569 
Q 847 1681 609 1914 
Q 372 2147 372 2553 
Q 372 3047 722 3315 
Q 1072 3584 1716 3584 
Q 2034 3584 2315 3537 
Q 2597 3491 2834 3397 
z
" id="DejaVuSans-73" transform="scale(0.015625)"/>
       <path d="M 603 3500 
L 1178 3500 
L 1178 0 
L 603 0 
L 603 3500 
z
M 603 4863 
L 1178 4863 
L 1178 4134 
L 603 4134 
L 603 4863 
z
" id="DejaVuSans-69" transform="scale(0.015625)"/>
       <path d="M 1172 4494 
L 1172 3500 
L 2356 3500 
L 2356 3053 
L 1172 3053 
L 1172 1153 
Q 1172 725 1289 603 
Q 1406 481 1766 481 
L 2356 481 
L 2356 0 
L 1766 0 
Q 1100 0 847 248 
Q 594 497 594 1153 
L 594 3053 
L 172 3053 
L 172 3500 
L 594 3500 
L 594 4494 
L 1172 4494 
z
" id="DejaVuSans-74" transform="scale(0.015625)"/>
       <path d="M 191 3500 
L 800 3500 
L 1894 563 
L 2988 3500 
L 3597 3500 
L 2284 0 
L 1503 0 
L 191 3500 
z
" id="DejaVuSans-76" transform="scale(0.015625)"/>
       <path d="M 3597 1894 
L 3597 1613 
L 953 1613 
Q 991 1019 1311 708 
Q 1631 397 2203 397 
Q 2534 397 2845 478 
Q 3156 559 3463 722 
L 3463 178 
Q 3153 47 2828 -22 
Q 2503 -91 2169 -91 
Q 1331 -91 842 396 
Q 353 884 353 1716 
Q 353 2575 817 3079 
Q 1281 3584 2069 3584 
Q 2775 3584 3186 3129 
Q 3597 2675 3597 1894 
z
M 3022 2063 
Q 3016 2534 2758 2815 
Q 2500 3097 2075 3097 
Q 1594 3097 1305 2825 
Q 1016 2553 972 2059 
L 3022 2063 
z
" id="DejaVuSans-65" transform="scale(0.015625)"/>
      </defs>
      <use xlink:href="#DejaVuSans-50"/>
      <use x="56.677734" xlink:href="#DejaVuSans-6f"/>
      <use x="117.859375" xlink:href="#DejaVuSans-73"/>
      <use x="169.958984" xlink:href="#DejaVuSans-69"/>
      <use x="197.742188" xlink:href="#DejaVuSans-74"/>
      <use x="236.951172" xlink:href="#DejaVuSans-69"/>
      <use x="264.734375" xlink:href="#DejaVuSans-76"/>
      <use x="323.914062" xlink:href="#DejaVuSans-65"/>
     </g>
    </g>
    <g id="patch_20">
     <path d="M 332.83875 72.748563 
L 352.83875 72.748563 
L 352.83875 65.748563 
L 332.83875 65.748563 
z
" style="fill:#ff0000;"/>
    </g>
    <g id="text_2">
     <!-- Negative -->
     <g transform="translate(360.83875 72.748563)scale(0.1 -0.1)">
      <defs>
       <path d="M 628 4666 
L 1478 4666 
L 3547 763 
L 3547 4666 
L 4159 4666 
L 4159 0 
L 3309 0 
L 1241 3903 
L 1241 0 
L 628 0 
L 628 4666 
z
" id="DejaVuSans-4e" transform="scale(0.015625)"/>
       <path d="M 2906 1791 
Q 2906 2416 2648 2759 
Q 2391 3103 1925 3103 
Q 1463 3103 1205 2759 
Q 947 2416 947 1791 
Q 947 1169 1205 825 
Q 1463 481 1925 481 
Q 2391 481 2648 825 
Q 2906 1169 2906 1791 
z
M 3481 434 
Q 3481 -459 3084 -895 
Q 2688 -1331 1869 -1331 
Q 1566 -1331 1297 -1286 
Q 1028 -1241 775 -1147 
L 775 -588 
Q 1028 -725 1275 -790 
Q 1522 -856 1778 -856 
Q 2344 -856 2625 -561 
Q 2906 -266 2906 331 
L 2906 616 
Q 2728 306 2450 153 
Q 2172 0 1784 0 
Q 1141 0 747 490 
Q 353 981 353 1791 
Q 353 2603 747 3093 
Q 1141 3584 1784 3584 
Q 2172 3584 2450 3431 
Q 2728 3278 2906 2969 
L 2906 3500 
L 3481 3500 
L 3481 434 
z
" id="DejaVuSans-67" transform="scale(0.015625)"/>
       <path d="M 2194 1759 
Q 1497 1759 1228 1600 
Q 959 1441 959 1056 
Q 959 750 1161 570 
Q 1363 391 1709 391 
Q 2188 391 2477 730 
Q 2766 1069 2766 1631 
L 2766 1759 
L 2194 1759 
z
M 3341 1997 
L 3341 0 
L 2766 0 
L 2766 531 
Q 2569 213 2275 61 
Q 1981 -91 1556 -91 
Q 1019 -91 701 211 
Q 384 513 384 1019 
Q 384 1609 779 1909 
Q 1175 2209 1959 2209 
L 2766 2209 
L 2766 2266 
Q 2766 2663 2505 2880 
Q 2244 3097 1772 3097 
Q 1472 3097 1187 3025 
Q 903 2953 641 2809 
L 641 3341 
Q 956 3463 1253 3523 
Q 1550 3584 1831 3584 
Q 2591 3584 2966 3190 
Q 3341 2797 3341 1997 
z
" id="DejaVuSans-61" transform="scale(0.015625)"/>
      </defs>
      <use xlink:href="#DejaVuSans-4e"/>
      <use x="74.804688" xlink:href="#DejaVuSans-65"/>
      <use x="136.328125" xlink:href="#DejaVuSans-67"/>
      <use x="199.804688" xlink:href="#DejaVuSans-61"/>
      <use x="261.083984" xlink:href="#DejaVuSans-74"/>
      <use x="300.292969" xlink:href="#DejaVuSans-69"/>
      <use x="328.076172" xlink:href="#DejaVuSans-76"/>
      <use x="387.255859" xlink:href="#DejaVuSans-65"/>
     </g>
    </g>
    <g id="patch_21">
     <path d="M 332.83875 87.426688 
L 352.83875 87.426688 
L 352.83875 80.426688 
L 332.83875 80.426688 
z
" style="fill:#0000ff;"/>
    </g>
    <g id="text_3">
     <!-- Neutral -->
     <g transform="translate(360.83875 87.426688)scale(0.1 -0.1)">
      <defs>
       <path d="M 544 1381 
L 544 3500 
L 1119 3500 
L 1119 1403 
Q 1119 906 1312 657 
Q 1506 409 1894 409 
Q 2359 409 2629 706 
Q 2900 1003 2900 1516 
L 2900 3500 
L 3475 3500 
L 3475 0 
L 2900 0 
L 2900 538 
Q 2691 219 2414 64 
Q 2138 -91 1772 -91 
Q 1169 -91 856 284 
Q 544 659 544 1381 
z
M 1991 3584 
L 1991 3584 
z
" id="DejaVuSans-75" transform="scale(0.015625)"/>
       <path d="M 2631 2963 
Q 2534 3019 2420 3045 
Q 2306 3072 2169 3072 
Q 1681 3072 1420 2755 
Q 1159 2438 1159 1844 
L 1159 0 
L 581 0 
L 581 3500 
L 1159 3500 
L 1159 2956 
Q 1341 3275 1631 3429 
Q 1922 3584 2338 3584 
Q 2397 3584 2469 3576 
Q 2541 3569 2628 3553 
L 2631 2963 
z
" id="DejaVuSans-72" transform="scale(0.015625)"/>
       <path d="M 603 4863 
L 1178 4863 
L 1178 0 
L 603 0 
L 603 4863 
z
" id="DejaVuSans-6c" transform="scale(0.015625)"/>
      </defs>
      <use xlink:href="#DejaVuSans-4e"/>
      <use x="74.804688" xlink:href="#DejaVuSans-65"/>
      <use x="136.328125" xlink:href="#DejaVuSans-75"/>
      <use x="199.707031" xlink:href="#DejaVuSans-74"/>
      <use x="238.916016" xlink:href="#DejaVuSans-72"/>
      <use x="280.029297" xlink:href="#DejaVuSans-61"/>
      <use x="341.308594" xlink:href="#DejaVuSans-6c"/>
     </g>
    </g>
   </g>
  </g>
 </g>
</svg>
