<?xml version="1.0" encoding="utf-8" standalone="no"?>
<!DOCTYPE svg PUBLIC "-//W3C//DTD SVG 1.1//EN"
  "http://www.w3.org/Graphics/SVG/1.1/DTD/svg11.dtd">
<svg height="345.6pt" version="1.1" viewBox="0 0 460.8 345.6" width="460.8pt" xmlns="http://www.w3.org/2000/svg" xmlns:xlink="http://www.w3.org/1999/xlink">
 <metadata>
  <rdf:RDF xmlns:cc="http://creativecommons.org/ns#" xmlns:dc="http://purl.org/dc/elements/1.1/" xmlns:rdf="http://www.w3.org/1999/02/22-rdf-syntax-ns#">
   <cc:Work>
    <dc:type rdf:resource="http://purl.org/dc/dcmitype/StillImage"/>
    <dc:date>2021-06-05T15:36:49.452572</dc:date>
    <dc:format>image/svg+xml</dc:format>
    <dc:creator>
     <cc:Agent>
      <dc:title>Matplotlib v3.4.2, https://matplotlib.org/</dc:title>
     </cc:Agent>
    </dc:creator>
   </cc:Work>
  </rdf:RDF>
 </metadata>
 <defs>
  <style type="text/css">*{stroke-linecap:butt;stroke-linejoin:round;}</style>
 </defs>
 <g id="figure_1">
  <g id="patch_1">
   <path d="M 0 345.6 
L 460.8 345.6 
L 460.8 0 
L 0 0 
z
" style="fill:#ffffff;"/>
  </g>
  <g id="axes_1">
   <g id="matplotlib.axis_1"/>
   <g id="matplotlib.axis_2"/>
   <g id="patch_2">
    <path d="M 353.291648 177.356419 
C 353.291648 148.452999 342.737131 120.521281 323.622956 98.840505 
C 304.508781 77.15973 278.120144 63.187667 249.444635 59.565109 
C 220.769127 55.94255 191.734827 62.91307 167.829371 79.159203 
C 143.923914 95.405336 126.754652 119.834727 119.566665 147.830094 
L 234.564136 177.356419 
L 353.291648 177.356419 
z
" style="fill:#2b472b;opacity:0.5;stroke:#2b472b;stroke-linejoin:miter;"/>
   </g>
   <g id="patch_3">
    <path d="M 119.566665 147.830094 
C 114.27925 168.423222 114.619203 190.063461 120.550857 210.480346 
C 126.482512 230.89723 137.790902 249.350843 153.289566 263.905056 
C 168.78823 278.459268 187.915491 288.58663 208.664539 293.22459 
C 229.413588 297.86255 251.032471 296.843028 271.252963 290.27299 
L 234.564136 177.356419 
L 119.566665 147.830094 
z
" style="fill:#482626;opacity:0.5;stroke:#482626;stroke-linejoin:miter;"/>
   </g>
   <g id="patch_4">
    <path d="M 271.252963 290.27299 
C 295.094897 282.526274 315.881592 267.423853 330.616716 247.142692 
C 345.35184 226.86153 353.29165 202.425301 353.291648 177.356408 
L 234.564136 177.356419 
L 271.252963 290.27299 
z
" style="fill:#344145;opacity:0.5;stroke:#344145;stroke-linejoin:miter;"/>
   </g>
   <g id="patch_5">
    <path d="M 355.666198 174.981869 
C 355.666198 146.078449 345.111681 118.14673 325.997506 96.465955 
C 306.883331 74.78518 280.494694 60.813117 251.819186 57.190558 
C 223.143678 53.568 194.109378 60.53852 170.203921 76.784653 
C 146.298464 93.030786 129.129202 117.460177 121.941215 145.455543 
L 236.938686 174.981869 
L 355.666198 174.981869 
z
" style="fill:#90ee90;stroke:#ffffff;stroke-linejoin:miter;"/>
   </g>
   <g id="patch_6">
    <path d="M 121.941215 145.455543 
C 116.6538 166.048671 116.993753 187.688911 122.925408 208.105795 
C 128.857062 228.52268 140.165453 246.976293 155.664117 261.530505 
C 171.162781 276.084718 190.290041 286.212079 211.039089 290.85004 
C 231.788138 295.488 253.407021 294.468478 273.627513 287.89844 
L 236.938686 174.981869 
L 121.941215 145.455543 
z
" style="fill:#f08080;stroke:#ffffff;stroke-linejoin:miter;"/>
   </g>
   <g id="patch_7">
    <path d="M 273.627513 287.89844 
C 297.469447 280.151724 318.256143 265.049303 332.991267 244.768141 
C 347.726391 224.486979 355.6662 200.050751 355.666198 174.981858 
L 236.938686 174.981869 
L 273.627513 287.89844 
z
" style="fill:#add8e6;stroke:#ffffff;stroke-linejoin:miter;"/>
   </g>
   <g id="text_1">
    <!-- Positive -->
    <g style="fill:#262626;" transform="translate(253.307236 48.255099)scale(0.11 -0.11)">
     <defs>
      <path d="M 494 0 
L 494 4581 
L 2222 4581 
Q 2678 4581 2919 4538 
Q 3256 4481 3484 4323 
Q 3713 4166 3852 3881 
Q 3991 3597 3991 3256 
Q 3991 2672 3619 2267 
Q 3247 1863 2275 1863 
L 1100 1863 
L 1100 0 
L 494 0 
z
M 1100 2403 
L 2284 2403 
Q 2872 2403 3119 2622 
Q 3366 2841 3366 3238 
Q 3366 3525 3220 3729 
Q 3075 3934 2838 4000 
Q 2684 4041 2272 4041 
L 1100 4041 
L 1100 2403 
z
" id="ArialMT-50" transform="scale(0.015625)"/>
      <path d="M 213 1659 
Q 213 2581 725 3025 
Q 1153 3394 1769 3394 
Q 2453 3394 2887 2945 
Q 3322 2497 3322 1706 
Q 3322 1066 3130 698 
Q 2938 331 2570 128 
Q 2203 -75 1769 -75 
Q 1072 -75 642 372 
Q 213 819 213 1659 
z
M 791 1659 
Q 791 1022 1069 705 
Q 1347 388 1769 388 
Q 2188 388 2466 706 
Q 2744 1025 2744 1678 
Q 2744 2294 2464 2611 
Q 2184 2928 1769 2928 
Q 1347 2928 1069 2612 
Q 791 2297 791 1659 
z
" id="ArialMT-6f" transform="scale(0.015625)"/>
      <path d="M 197 991 
L 753 1078 
Q 800 744 1014 566 
Q 1228 388 1613 388 
Q 2000 388 2187 545 
Q 2375 703 2375 916 
Q 2375 1106 2209 1216 
Q 2094 1291 1634 1406 
Q 1016 1563 777 1677 
Q 538 1791 414 1992 
Q 291 2194 291 2438 
Q 291 2659 392 2848 
Q 494 3038 669 3163 
Q 800 3259 1026 3326 
Q 1253 3394 1513 3394 
Q 1903 3394 2198 3281 
Q 2494 3169 2634 2976 
Q 2775 2784 2828 2463 
L 2278 2388 
Q 2241 2644 2061 2787 
Q 1881 2931 1553 2931 
Q 1166 2931 1000 2803 
Q 834 2675 834 2503 
Q 834 2394 903 2306 
Q 972 2216 1119 2156 
Q 1203 2125 1616 2013 
Q 2213 1853 2448 1751 
Q 2684 1650 2818 1456 
Q 2953 1263 2953 975 
Q 2953 694 2789 445 
Q 2625 197 2315 61 
Q 2006 -75 1616 -75 
Q 969 -75 630 194 
Q 291 463 197 991 
z
" id="ArialMT-73" transform="scale(0.015625)"/>
      <path d="M 425 3934 
L 425 4581 
L 988 4581 
L 988 3934 
L 425 3934 
z
M 425 0 
L 425 3319 
L 988 3319 
L 988 0 
L 425 0 
z
" id="ArialMT-69" transform="scale(0.015625)"/>
      <path d="M 1650 503 
L 1731 6 
Q 1494 -44 1306 -44 
Q 1000 -44 831 53 
Q 663 150 594 308 
Q 525 466 525 972 
L 525 2881 
L 113 2881 
L 113 3319 
L 525 3319 
L 525 4141 
L 1084 4478 
L 1084 3319 
L 1650 3319 
L 1650 2881 
L 1084 2881 
L 1084 941 
Q 1084 700 1114 631 
Q 1144 563 1211 522 
Q 1278 481 1403 481 
Q 1497 481 1650 503 
z
" id="ArialMT-74" transform="scale(0.015625)"/>
      <path d="M 1344 0 
L 81 3319 
L 675 3319 
L 1388 1331 
Q 1503 1009 1600 663 
Q 1675 925 1809 1294 
L 2547 3319 
L 3125 3319 
L 1869 0 
L 1344 0 
z
" id="ArialMT-76" transform="scale(0.015625)"/>
      <path d="M 2694 1069 
L 3275 997 
Q 3138 488 2766 206 
Q 2394 -75 1816 -75 
Q 1088 -75 661 373 
Q 234 822 234 1631 
Q 234 2469 665 2931 
Q 1097 3394 1784 3394 
Q 2450 3394 2872 2941 
Q 3294 2488 3294 1666 
Q 3294 1616 3291 1516 
L 816 1516 
Q 847 969 1125 678 
Q 1403 388 1819 388 
Q 2128 388 2347 550 
Q 2566 713 2694 1069 
z
M 847 1978 
L 2700 1978 
Q 2663 2397 2488 2606 
Q 2219 2931 1791 2931 
Q 1403 2931 1139 2672 
Q 875 2413 847 1978 
z
" id="ArialMT-65" transform="scale(0.015625)"/>
     </defs>
     <use xlink:href="#ArialMT-50"/>
     <use x="66.699219" xlink:href="#ArialMT-6f"/>
     <use x="122.314453" xlink:href="#ArialMT-73"/>
     <use x="172.314453" xlink:href="#ArialMT-69"/>
     <use x="194.53125" xlink:href="#ArialMT-74"/>
     <use x="222.314453" xlink:href="#ArialMT-69"/>
     <use x="244.53125" xlink:href="#ArialMT-76"/>
     <use x="294.53125" xlink:href="#ArialMT-65"/>
    </g>
   </g>
   <g id="text_2">
    <!-- 46.00% -->
    <g style="fill:#262626;" transform="translate(225.518548 107.40927)scale(0.12 -0.12)">
     <defs>
      <path d="M 2069 0 
L 2069 1097 
L 81 1097 
L 81 1613 
L 2172 4581 
L 2631 4581 
L 2631 1613 
L 3250 1613 
L 3250 1097 
L 2631 1097 
L 2631 0 
L 2069 0 
z
M 2069 1613 
L 2069 3678 
L 634 1613 
L 2069 1613 
z
" id="ArialMT-34" transform="scale(0.015625)"/>
      <path d="M 3184 3459 
L 2625 3416 
Q 2550 3747 2413 3897 
Q 2184 4138 1850 4138 
Q 1581 4138 1378 3988 
Q 1113 3794 959 3422 
Q 806 3050 800 2363 
Q 1003 2672 1297 2822 
Q 1591 2972 1913 2972 
Q 2475 2972 2870 2558 
Q 3266 2144 3266 1488 
Q 3266 1056 3080 686 
Q 2894 316 2569 119 
Q 2244 -78 1831 -78 
Q 1128 -78 684 439 
Q 241 956 241 2144 
Q 241 3472 731 4075 
Q 1159 4600 1884 4600 
Q 2425 4600 2770 4297 
Q 3116 3994 3184 3459 
z
M 888 1484 
Q 888 1194 1011 928 
Q 1134 663 1356 523 
Q 1578 384 1822 384 
Q 2178 384 2434 671 
Q 2691 959 2691 1453 
Q 2691 1928 2437 2201 
Q 2184 2475 1800 2475 
Q 1419 2475 1153 2201 
Q 888 1928 888 1484 
z
" id="ArialMT-36" transform="scale(0.015625)"/>
      <path d="M 581 0 
L 581 641 
L 1222 641 
L 1222 0 
L 581 0 
z
" id="ArialMT-2e" transform="scale(0.015625)"/>
      <path d="M 266 2259 
Q 266 3072 433 3567 
Q 600 4063 929 4331 
Q 1259 4600 1759 4600 
Q 2128 4600 2406 4451 
Q 2684 4303 2865 4023 
Q 3047 3744 3150 3342 
Q 3253 2941 3253 2259 
Q 3253 1453 3087 958 
Q 2922 463 2592 192 
Q 2263 -78 1759 -78 
Q 1097 -78 719 397 
Q 266 969 266 2259 
z
M 844 2259 
Q 844 1131 1108 757 
Q 1372 384 1759 384 
Q 2147 384 2411 759 
Q 2675 1134 2675 2259 
Q 2675 3391 2411 3762 
Q 2147 4134 1753 4134 
Q 1366 4134 1134 3806 
Q 844 3388 844 2259 
z
" id="ArialMT-30" transform="scale(0.015625)"/>
      <path d="M 372 3481 
Q 372 3972 619 4315 
Q 866 4659 1334 4659 
Q 1766 4659 2048 4351 
Q 2331 4044 2331 3447 
Q 2331 2866 2045 2552 
Q 1759 2238 1341 2238 
Q 925 2238 648 2547 
Q 372 2856 372 3481 
z
M 1350 4272 
Q 1141 4272 1002 4090 
Q 863 3909 863 3425 
Q 863 2984 1003 2804 
Q 1144 2625 1350 2625 
Q 1563 2625 1702 2806 
Q 1841 2988 1841 3469 
Q 1841 3913 1700 4092 
Q 1559 4272 1350 4272 
z
M 1353 -169 
L 3859 4659 
L 4316 4659 
L 1819 -169 
L 1353 -169 
z
M 3334 1075 
Q 3334 1569 3581 1911 
Q 3828 2253 4300 2253 
Q 4731 2253 5014 1945 
Q 5297 1638 5297 1041 
Q 5297 459 5011 145 
Q 4725 -169 4303 -169 
Q 3888 -169 3611 142 
Q 3334 453 3334 1075 
z
M 4316 1866 
Q 4103 1866 3964 1684 
Q 3825 1503 3825 1019 
Q 3825 581 3965 400 
Q 4106 219 4313 219 
Q 4528 219 4667 400 
Q 4806 581 4806 1063 
Q 4806 1506 4665 1686 
Q 4525 1866 4316 1866 
z
" id="ArialMT-25" transform="scale(0.015625)"/>
     </defs>
     <use xlink:href="#ArialMT-34"/>
     <use x="55.615234" xlink:href="#ArialMT-36"/>
     <use x="111.230469" xlink:href="#ArialMT-2e"/>
     <use x="139.013672" xlink:href="#ArialMT-30"/>
     <use x="194.628906" xlink:href="#ArialMT-30"/>
     <use x="250.244141" xlink:href="#ArialMT-25"/>
    </g>
   </g>
   <g id="text_3">
    <!-- Negative -->
    <g style="fill:#262626;" transform="translate(104.124472 272.964588)scale(0.11 -0.11)">
     <defs>
      <path d="M 488 0 
L 488 4581 
L 1109 4581 
L 3516 984 
L 3516 4581 
L 4097 4581 
L 4097 0 
L 3475 0 
L 1069 3600 
L 1069 0 
L 488 0 
z
" id="ArialMT-4e" transform="scale(0.015625)"/>
      <path d="M 319 -275 
L 866 -356 
Q 900 -609 1056 -725 
Q 1266 -881 1628 -881 
Q 2019 -881 2231 -725 
Q 2444 -569 2519 -288 
Q 2563 -116 2559 434 
Q 2191 0 1641 0 
Q 956 0 581 494 
Q 206 988 206 1678 
Q 206 2153 378 2554 
Q 550 2956 876 3175 
Q 1203 3394 1644 3394 
Q 2231 3394 2613 2919 
L 2613 3319 
L 3131 3319 
L 3131 450 
Q 3131 -325 2973 -648 
Q 2816 -972 2473 -1159 
Q 2131 -1347 1631 -1347 
Q 1038 -1347 672 -1080 
Q 306 -813 319 -275 
z
M 784 1719 
Q 784 1066 1043 766 
Q 1303 466 1694 466 
Q 2081 466 2343 764 
Q 2606 1063 2606 1700 
Q 2606 2309 2336 2618 
Q 2066 2928 1684 2928 
Q 1309 2928 1046 2623 
Q 784 2319 784 1719 
z
" id="ArialMT-67" transform="scale(0.015625)"/>
      <path d="M 2588 409 
Q 2275 144 1986 34 
Q 1697 -75 1366 -75 
Q 819 -75 525 192 
Q 231 459 231 875 
Q 231 1119 342 1320 
Q 453 1522 633 1644 
Q 813 1766 1038 1828 
Q 1203 1872 1538 1913 
Q 2219 1994 2541 2106 
Q 2544 2222 2544 2253 
Q 2544 2597 2384 2738 
Q 2169 2928 1744 2928 
Q 1347 2928 1158 2789 
Q 969 2650 878 2297 
L 328 2372 
Q 403 2725 575 2942 
Q 747 3159 1072 3276 
Q 1397 3394 1825 3394 
Q 2250 3394 2515 3294 
Q 2781 3194 2906 3042 
Q 3031 2891 3081 2659 
Q 3109 2516 3109 2141 
L 3109 1391 
Q 3109 606 3145 398 
Q 3181 191 3288 0 
L 2700 0 
Q 2613 175 2588 409 
z
M 2541 1666 
Q 2234 1541 1622 1453 
Q 1275 1403 1131 1340 
Q 988 1278 909 1158 
Q 831 1038 831 891 
Q 831 666 1001 516 
Q 1172 366 1500 366 
Q 1825 366 2078 508 
Q 2331 650 2450 897 
Q 2541 1088 2541 1459 
L 2541 1666 
z
" id="ArialMT-61" transform="scale(0.015625)"/>
     </defs>
     <use xlink:href="#ArialMT-4e"/>
     <use x="72.216797" xlink:href="#ArialMT-65"/>
     <use x="127.832031" xlink:href="#ArialMT-67"/>
     <use x="183.447266" xlink:href="#ArialMT-61"/>
     <use x="239.0625" xlink:href="#ArialMT-74"/>
     <use x="266.845703" xlink:href="#ArialMT-69"/>
     <use x="289.0625" xlink:href="#ArialMT-76"/>
     <use x="339.0625" xlink:href="#ArialMT-65"/>
    </g>
   </g>
   <g id="text_4">
    <!-- 34.00% -->
    <g style="fill:#262626;" transform="translate(167.825507 230.013238)scale(0.12 -0.12)">
     <defs>
      <path d="M 269 1209 
L 831 1284 
Q 928 806 1161 595 
Q 1394 384 1728 384 
Q 2125 384 2398 659 
Q 2672 934 2672 1341 
Q 2672 1728 2419 1979 
Q 2166 2231 1775 2231 
Q 1616 2231 1378 2169 
L 1441 2663 
Q 1497 2656 1531 2656 
Q 1891 2656 2178 2843 
Q 2466 3031 2466 3422 
Q 2466 3731 2256 3934 
Q 2047 4138 1716 4138 
Q 1388 4138 1169 3931 
Q 950 3725 888 3313 
L 325 3413 
Q 428 3978 793 4289 
Q 1159 4600 1703 4600 
Q 2078 4600 2393 4439 
Q 2709 4278 2876 4000 
Q 3044 3722 3044 3409 
Q 3044 3113 2884 2869 
Q 2725 2625 2413 2481 
Q 2819 2388 3044 2092 
Q 3269 1797 3269 1353 
Q 3269 753 2831 336 
Q 2394 -81 1725 -81 
Q 1122 -81 723 278 
Q 325 638 269 1209 
z
" id="ArialMT-33" transform="scale(0.015625)"/>
     </defs>
     <use xlink:href="#ArialMT-33"/>
     <use x="55.615234" xlink:href="#ArialMT-34"/>
     <use x="111.230469" xlink:href="#ArialMT-2e"/>
     <use x="139.013672" xlink:href="#ArialMT-30"/>
     <use x="194.628906" xlink:href="#ArialMT-30"/>
     <use x="250.244141" xlink:href="#ArialMT-25"/>
    </g>
   </g>
   <g id="text_5">
    <!-- Neutral -->
    <g style="fill:#262626;" transform="translate(342.596525 254.59044)scale(0.11 -0.11)">
     <defs>
      <path d="M 2597 0 
L 2597 488 
Q 2209 -75 1544 -75 
Q 1250 -75 995 37 
Q 741 150 617 320 
Q 494 491 444 738 
Q 409 903 409 1263 
L 409 3319 
L 972 3319 
L 972 1478 
Q 972 1038 1006 884 
Q 1059 663 1231 536 
Q 1403 409 1656 409 
Q 1909 409 2131 539 
Q 2353 669 2445 892 
Q 2538 1116 2538 1541 
L 2538 3319 
L 3100 3319 
L 3100 0 
L 2597 0 
z
" id="ArialMT-75" transform="scale(0.015625)"/>
      <path d="M 416 0 
L 416 3319 
L 922 3319 
L 922 2816 
Q 1116 3169 1280 3281 
Q 1444 3394 1641 3394 
Q 1925 3394 2219 3213 
L 2025 2691 
Q 1819 2813 1613 2813 
Q 1428 2813 1281 2702 
Q 1134 2591 1072 2394 
Q 978 2094 978 1738 
L 978 0 
L 416 0 
z
" id="ArialMT-72" transform="scale(0.015625)"/>
      <path d="M 409 0 
L 409 4581 
L 972 4581 
L 972 0 
L 409 0 
z
" id="ArialMT-6c" transform="scale(0.015625)"/>
     </defs>
     <use xlink:href="#ArialMT-4e"/>
     <use x="72.216797" xlink:href="#ArialMT-65"/>
     <use x="127.832031" xlink:href="#ArialMT-75"/>
     <use x="183.447266" xlink:href="#ArialMT-74"/>
     <use x="211.230469" xlink:href="#ArialMT-72"/>
     <use x="244.53125" xlink:href="#ArialMT-61"/>
     <use x="300.146484" xlink:href="#ArialMT-6c"/>
    </g>
   </g>
   <g id="text_6">
    <!-- 20.00% -->
    <g style="fill:#262626;" transform="translate(274.221797 219.95582)scale(0.12 -0.12)">
     <defs>
      <path d="M 3222 541 
L 3222 0 
L 194 0 
Q 188 203 259 391 
Q 375 700 629 1000 
Q 884 1300 1366 1694 
Q 2113 2306 2375 2664 
Q 2638 3022 2638 3341 
Q 2638 3675 2398 3904 
Q 2159 4134 1775 4134 
Q 1369 4134 1125 3890 
Q 881 3647 878 3216 
L 300 3275 
Q 359 3922 746 4261 
Q 1134 4600 1788 4600 
Q 2447 4600 2831 4234 
Q 3216 3869 3216 3328 
Q 3216 3053 3103 2787 
Q 2991 2522 2730 2228 
Q 2469 1934 1863 1422 
Q 1356 997 1212 845 
Q 1069 694 975 541 
L 3222 541 
z
" id="ArialMT-32" transform="scale(0.015625)"/>
     </defs>
     <use xlink:href="#ArialMT-32"/>
     <use x="55.615234" xlink:href="#ArialMT-30"/>
     <use x="111.230469" xlink:href="#ArialMT-2e"/>
     <use x="139.013672" xlink:href="#ArialMT-30"/>
     <use x="194.628906" xlink:href="#ArialMT-30"/>
     <use x="250.244141" xlink:href="#ArialMT-25"/>
    </g>
   </g>
   <g id="legend_1">
    <g id="patch_8">
     <path d="M 328.407813 97.080438 
L 407.02 97.080438 
Q 409.22 97.080438 409.22 94.880438 
L 409.22 49.172 
Q 409.22 46.972 407.02 46.972 
L 328.407813 46.972 
Q 326.207813 46.972 326.207813 49.172 
L 326.207813 94.880438 
Q 326.207813 97.080438 328.407813 97.080438 
z
" style="fill:#eaeaf2;opacity:0.8;stroke:#cccccc;stroke-linejoin:miter;"/>
    </g>
    <g id="patch_9">
     <path d="M 330.607813 59.245594 
L 352.607813 59.245594 
L 352.607813 51.545594 
L 330.607813 51.545594 
z
" style="fill:#90ee90;stroke:#ffffff;stroke-linejoin:miter;"/>
    </g>
    <g id="text_7">
     <!-- Positive -->
     <g style="fill:#262626;" transform="translate(361.407813 59.245594)scale(0.11 -0.11)">
      <use xlink:href="#ArialMT-50"/>
      <use x="66.699219" xlink:href="#ArialMT-6f"/>
      <use x="122.314453" xlink:href="#ArialMT-73"/>
      <use x="172.314453" xlink:href="#ArialMT-69"/>
      <use x="194.53125" xlink:href="#ArialMT-74"/>
      <use x="222.314453" xlink:href="#ArialMT-69"/>
      <use x="244.53125" xlink:href="#ArialMT-76"/>
      <use x="294.53125" xlink:href="#ArialMT-65"/>
     </g>
    </g>
    <g id="patch_10">
     <path d="M 330.607813 74.805437 
L 352.607813 74.805437 
L 352.607813 67.105437 
L 330.607813 67.105437 
z
" style="fill:#f08080;stroke:#ffffff;stroke-linejoin:miter;"/>
    </g>
    <g id="text_8">
     <!-- Negative -->
     <g style="fill:#262626;" transform="translate(361.407813 74.805437)scale(0.11 -0.11)">
      <use xlink:href="#ArialMT-4e"/>
      <use x="72.216797" xlink:href="#ArialMT-65"/>
      <use x="127.832031" xlink:href="#ArialMT-67"/>
      <use x="183.447266" xlink:href="#ArialMT-61"/>
      <use x="239.0625" xlink:href="#ArialMT-74"/>
      <use x="266.845703" xlink:href="#ArialMT-69"/>
      <use x="289.0625" xlink:href="#ArialMT-76"/>
      <use x="339.0625" xlink:href="#ArialMT-65"/>
     </g>
    </g>
    <g id="patch_11">
     <path d="M 330.607813 90.494188 
L 352.607813 90.494188 
L 352.607813 82.794188 
L 330.607813 82.794188 
z
" style="fill:#add8e6;stroke:#ffffff;stroke-linejoin:miter;"/>
    </g>
    <g id="text_9">
     <!-- Neutral -->
     <g style="fill:#262626;" transform="translate(361.407813 90.494188)scale(0.11 -0.11)">
      <use xlink:href="#ArialMT-4e"/>
      <use x="72.216797" xlink:href="#ArialMT-65"/>
      <use x="127.832031" xlink:href="#ArialMT-75"/>
      <use x="183.447266" xlink:href="#ArialMT-74"/>
      <use x="211.230469" xlink:href="#ArialMT-72"/>
      <use x="244.53125" xlink:href="#ArialMT-61"/>
      <use x="300.146484" xlink:href="#ArialMT-6c"/>
     </g>
    </g>
   </g>
  </g>
 </g>
</svg>
