<?xml version="1.0" encoding="utf-8" standalone="no"?>
<!DOCTYPE svg PUBLIC "-//W3C//DTD SVG 1.1//EN"
  "http://www.w3.org/Graphics/SVG/1.1/DTD/svg11.dtd">
<svg height="345.6pt" version="1.1" viewBox="0 0 460.8 345.6" width="460.8pt" xmlns="http://www.w3.org/2000/svg" xmlns:xlink="http://www.w3.org/1999/xlink">
 <metadata>
  <rdf:RDF xmlns:cc="http://creativecommons.org/ns#" xmlns:dc="http://purl.org/dc/elements/1.1/" xmlns:rdf="http://www.w3.org/1999/02/22-rdf-syntax-ns#">
   <cc:Work>
    <dc:type rdf:resource="http://purl.org/dc/dcmitype/StillImage"/>
    <dc:date>2021-05-24T16:25:13.414866</dc:date>
    <dc:format>image/svg+xml</dc:format>
    <dc:creator>
     <cc:Agent>
      <dc:title>Matplotlib v3.4.2, https://matplotlib.org/</dc:title>
     </cc:Agent>
    </dc:creator>
   </cc:Work>
  </rdf:RDF>
 </metadata>
 <defs>
  <style type="text/css">*{stroke-linecap:butt;stroke-linejoin:round;}</style>
 </defs>
 <g id="figure_1">
  <g id="patch_1">
   <path d="M 0 345.6 
L 460.8 345.6 
L 460.8 0 
L 0 0 
z
" style="fill:#ffffff;"/>
  </g>
  <g id="axes_1">
   <g id="patch_2">
    <path d="M 353.742779 177.638994 
C 353.742779 162.962007 351.026201 148.410993 345.730585 134.722661 
C 340.434969 121.03433 332.65122 108.443657 322.773424 97.588101 
C 312.895627 86.732544 301.093348 77.798453 287.964127 71.238153 
C 274.834907 64.677853 260.604123 60.603961 245.992273 59.222734 
C 231.380422 57.841508 216.638334 59.176657 202.51239 63.160585 
C 188.386447 67.144513 175.119136 73.708831 163.382174 82.521191 
C 151.645213 91.333551 141.640078 102.242679 133.873324 114.696253 
C 126.106571 127.149827 120.711523 140.934067 117.96133 155.351084 
C 115.211136 169.768102 115.153007 184.570413 117.789886 199.008586 
C 120.426764 213.446759 125.713385 227.272946 133.38209 239.787135 
C 141.050795 252.301324 150.969941 263.288695 162.63733 272.192965 
C 174.304718 281.097234 187.520064 287.76555 201.614282 291.860299 
C 215.708501 295.955048 230.439648 297.40594 245.061896 296.139516 
C 259.684144 294.873092 273.946485 290.911093 287.126824 284.454111 
C 300.307164 277.99713 312.179247 269.156007 322.141997 258.378365 
C 332.104748 247.600723 339.987143 235.071571 345.390103 221.425254 
L 234.79864 177.638994 
L 353.742779 177.638994 
z
" style="fill:#2e3e0f;opacity:0.5;stroke:#2e3e0f;stroke-linejoin:miter;"/>
   </g>
   <g id="patch_3">
    <path d="M 345.390103 221.425254 
C 347.22482 216.791286 348.766469 212.046579 350.005929 207.219201 
C 351.245389 202.391822 352.180212 197.491309 352.804868 192.54665 
L 234.79864 177.638994 
L 345.390103 221.425254 
z
" style="fill:#4c0000;opacity:0.5;stroke:#4c0000;stroke-linejoin:miter;"/>
   </g>
   <g id="patch_4">
    <path d="M 352.804868 192.54665 
C 353.117119 190.07493 353.351635 187.59401 353.508069 185.107561 
C 353.664503 182.621112 353.742779 180.130362 353.742779 177.638997 
L 234.79864 177.638994 
L 352.804868 192.54665 
z
" style="fill:#00004c;opacity:0.5;stroke:#00004c;stroke-linejoin:miter;"/>
   </g>
   <g id="patch_5">
    <path d="M 353.742779 177.638994 
C 353.742779 163.275984 351.141187 149.031025 346.064224 135.595233 
C 340.987261 122.159441 333.518383 109.753676 324.019954 98.979823 
C 314.521525 88.20597 303.149681 79.241132 290.456147 72.520252 
C 277.762612 65.799371 263.956044 61.432928 249.706291 59.632766 
C 235.456537 57.832603 220.997837 58.628314 207.031679 61.981293 
C 193.06552 65.334271 179.821479 71.189401 167.942113 79.262611 
C 156.062747 87.33582 145.743329 97.494402 137.484524 109.245494 
C 129.225718 120.996587 123.163284 134.147026 119.591349 148.058796 
C 116.019415 161.970566 114.996696 176.414983 116.572812 190.691254 
C 118.148927 204.967525 122.29797 218.840975 128.818641 231.63851 
C 135.339311 244.436045 144.124424 255.947299 154.747753 265.613783 
C 165.371082 275.280268 177.658002 282.943085 191.012391 288.230461 
C 204.36678 293.517836 218.569119 296.342856 232.930357 296.568459 
C 247.291595 296.794062 261.575661 294.41654 275.089541 289.551243 
C 288.60342 284.685946 301.12497 277.412849 312.046688 268.084819 
C 322.968405 258.756789 332.110758 247.527161 339.030189 234.940759 
L 234.79864 177.638994 
L 353.742779 177.638994 
z
" style="fill:#2e3e0f;opacity:0.5;stroke:#2e3e0f;stroke-linejoin:miter;"/>
   </g>
   <g id="patch_6">
    <path d="M 339.030189 234.940759 
C 343.836999 226.197202 347.524572 216.883454 350.005933 207.219187 
C 352.487294 197.55492 353.742779 187.616718 353.742779 177.638983 
L 234.79864 177.638994 
L 339.030189 234.940759 
z
" style="fill:#4c0000;opacity:0.5;stroke:#4c0000;stroke-linejoin:miter;"/>
   </g>
   <g id="patch_7">
    <path d="M 353.742779 177.638994 
C 353.742779 163.903615 351.363586 150.271458 346.710893 137.348104 
C 342.058199 124.42475 335.201934 112.404439 326.446674 101.821147 
C 317.691414 91.237856 307.168751 82.250653 295.346133 75.258776 
C 283.523515 68.266899 270.578638 63.375437 257.08655 60.801684 
C 243.594462 58.22793 229.757953 58.010569 216.191679 60.159255 
C 202.625405 62.307942 189.53327 66.790381 177.496866 73.407451 
C 165.460461 80.02452 154.660696 88.676763 145.577326 98.979823 
C 136.493957 109.282883 129.263508 121.081902 124.207178 133.852735 
C 119.150847 146.623567 116.344633 160.174265 115.913194 173.902867 
C 115.481755 187.631468 117.431576 201.33163 121.676042 214.394752 
C 125.920507 227.457874 132.395821 239.687615 140.814332 250.540694 
C 149.232842 261.393773 159.468018 270.707066 171.065182 278.06685 
C 182.662346 285.426635 195.447191 290.722291 208.851778 293.718572 
C 222.256364 296.714852 236.079219 297.366722 249.706291 295.645223 
C 263.333362 293.923724 276.559833 289.85473 288.798146 283.618999 
C 301.036459 277.383268 312.102669 269.074523 321.505183 259.061862 
L 234.79864 177.638994 
L 353.742779 177.638994 
z
" style="fill:#2e3e0f;opacity:0.5;stroke:#2e3e0f;stroke-linejoin:miter;"/>
   </g>
   <g id="patch_8">
    <path d="M 321.505183 259.061862 
C 328.335413 251.788407 334.22337 243.684329 339.030181 234.940774 
C 343.836992 226.197218 347.524566 216.88347 350.005929 207.219203 
L 234.79864 177.638994 
L 321.505183 259.061862 
z
" style="fill:#4c0000;opacity:0.5;stroke:#4c0000;stroke-linejoin:miter;"/>
   </g>
   <g id="patch_9">
    <path d="M 350.005929 207.219203 
C 351.245389 202.391825 352.180212 197.491312 352.804868 192.546653 
C 353.429524 187.601994 353.742778 182.622959 353.742779 177.639 
L 234.79864 177.638994 
L 350.005929 207.219203 
z
" style="fill:#00004c;opacity:0.5;stroke:#00004c;stroke-linejoin:miter;"/>
   </g>
   <g id="patch_10">
    <path d="M 353.742779 177.638994 
C 353.742779 163.903615 351.363586 150.271458 346.710893 137.348104 
C 342.058199 124.42475 335.201934 112.404439 326.446674 101.821147 
C 317.691414 91.237856 307.168751 82.250653 295.346133 75.258776 
C 283.523515 68.266899 270.578638 63.375437 257.08655 60.801684 
C 243.594462 58.22793 229.757953 58.010569 216.191679 60.159255 
C 202.625405 62.307942 189.53327 66.790381 177.496866 73.407451 
C 165.460461 80.02452 154.660696 88.676763 145.577326 98.979823 
C 136.493957 109.282883 129.263508 121.081902 124.207178 133.852735 
C 119.150847 146.623567 116.344633 160.174265 115.913194 173.902867 
C 115.481755 187.631468 117.431576 201.33163 121.676042 214.394752 
C 125.920507 227.457874 132.395821 239.687615 140.814332 250.540694 
C 149.232842 261.393773 159.468018 270.707066 171.065182 278.06685 
C 182.662346 285.426635 195.447191 290.722291 208.851778 293.718572 
C 222.256364 296.714852 236.079219 297.366722 249.706291 295.645223 
C 263.333362 293.923724 276.559833 289.85473 288.798146 283.618999 
C 301.036459 277.383268 312.102669 269.074523 321.505183 259.061862 
L 234.79864 177.638994 
L 353.742779 177.638994 
z
" style="fill:#2e3e0f;opacity:0.5;stroke:#2e3e0f;stroke-linejoin:miter;"/>
   </g>
   <g id="patch_11">
    <path d="M 321.505183 259.061862 
C 326.624917 253.6099 331.219042 247.687189 335.226496 241.372454 
C 339.233949 235.057719 342.636895 228.379062 345.390102 221.425256 
L 234.79864 177.638994 
L 321.505183 259.061862 
z
" style="fill:#4c0000;opacity:0.5;stroke:#4c0000;stroke-linejoin:miter;"/>
   </g>
   <g id="patch_12">
    <path d="M 345.390102 221.425256 
C 348.143308 214.47145 350.234523 207.273442 351.63595 199.926908 
C 353.037377 192.580374 353.742778 185.118008 353.742779 177.639 
L 234.79864 177.638994 
L 345.390102 221.425256 
z
" style="fill:#00004c;opacity:0.5;stroke:#00004c;stroke-linejoin:miter;"/>
   </g>
   <g id="patch_13">
    <path d="M 353.742779 177.638994 
C 353.742779 148.789941 343.24708 120.903539 324.225577 99.213673 
C 305.204074 77.523807 278.926208 63.477995 250.323962 59.712439 
C 221.721716 55.946883 192.703923 62.712884 168.716813 78.740561 
C 144.729702 94.768237 127.374106 118.987947 119.907423 146.853993 
L 234.79864 177.638994 
L 353.742779 177.638994 
z
" style="fill:#2e3e0f;opacity:0.5;stroke:#2e3e0f;stroke-linejoin:miter;"/>
   </g>
   <g id="patch_14">
    <path d="M 119.907423 146.853993 
C 113.819454 169.574609 114.605918 193.598545 122.166854 215.872341 
C 129.727791 238.146138 143.728695 257.684375 162.390042 272.003728 
C 181.05139 286.323082 203.547579 294.790046 227.019329 296.328464 
C 250.491079 297.866883 273.89997 292.408693 294.270716 280.647636 
L 234.79864 177.638994 
L 119.907423 146.853993 
z
" style="fill:#4c0000;opacity:0.5;stroke:#4c0000;stroke-linejoin:miter;"/>
   </g>
   <g id="patch_15">
    <path d="M 294.270716 280.647636 
C 312.351163 270.208883 327.36854 255.191504 337.80729 237.111055 
C 348.246041 219.030606 353.742781 198.516486 353.742779 177.638983 
L 234.79864 177.638994 
L 294.270716 280.647636 
z
" style="fill:#00004c;opacity:0.5;stroke:#00004c;stroke-linejoin:miter;"/>
   </g>
   <g id="patch_16">
    <path d="M 353.742779 177.638994 
C 353.742779 148.789941 343.24708 120.903539 324.225577 99.213673 
C 305.204074 77.523807 278.926208 63.477995 250.323962 59.712439 
C 221.721716 55.946883 192.703923 62.712884 168.716813 78.740561 
C 144.729702 94.768237 127.374106 118.987947 119.907423 146.853993 
L 234.79864 177.638994 
L 353.742779 177.638994 
z
" style="fill:#2e3e0f;opacity:0.5;stroke:#2e3e0f;stroke-linejoin:miter;"/>
   </g>
   <g id="patch_17">
    <path d="M 119.907423 146.853993 
C 113.819454 169.574609 114.605918 193.598545 122.166854 215.872341 
C 129.727791 238.146138 143.728695 257.684375 162.390042 272.003728 
C 181.05139 286.323082 203.547579 294.790046 227.019329 296.328464 
C 250.491079 297.866883 273.89997 292.408693 294.270716 280.647636 
L 234.79864 177.638994 
L 119.907423 146.853993 
z
" style="fill:#4c0000;opacity:0.5;stroke:#4c0000;stroke-linejoin:miter;"/>
   </g>
   <g id="patch_18">
    <path d="M 294.270716 280.647636 
C 312.351163 270.208883 327.36854 255.191504 337.80729 237.111055 
C 348.246041 219.030606 353.742781 198.516486 353.742779 177.638983 
L 234.79864 177.638994 
L 294.270716 280.647636 
z
" style="fill:#00004c;opacity:0.5;stroke:#00004c;stroke-linejoin:miter;"/>
   </g>
   <g id="patch_19">
    <path d="M 353.742779 177.638994 
C 353.742779 148.789941 343.24708 120.903539 324.225577 99.213673 
C 305.204074 77.523807 278.926208 63.477995 250.323962 59.712439 
C 221.721716 55.946883 192.703923 62.712884 168.716813 78.740561 
C 144.729702 94.768237 127.374106 118.987947 119.907423 146.853993 
L 234.79864 177.638994 
L 353.742779 177.638994 
z
" style="fill:#2e3e0f;opacity:0.5;stroke:#2e3e0f;stroke-linejoin:miter;"/>
   </g>
   <g id="patch_20">
    <path d="M 119.907423 146.853993 
C 113.819454 169.574609 114.605918 193.598545 122.166854 215.872341 
C 129.727791 238.146138 143.728695 257.684375 162.390042 272.003728 
C 181.05139 286.323082 203.547579 294.790046 227.019329 296.328464 
C 250.491079 297.866883 273.89997 292.408693 294.270716 280.647636 
L 234.79864 177.638994 
L 119.907423 146.853993 
z
" style="fill:#4c0000;opacity:0.5;stroke:#4c0000;stroke-linejoin:miter;"/>
   </g>
   <g id="patch_21">
    <path d="M 294.270716 280.647636 
C 312.351163 270.208883 327.36854 255.191504 337.80729 237.111055 
C 348.246041 219.030606 353.742781 198.516486 353.742779 177.638983 
L 234.79864 177.638994 
L 294.270716 280.647636 
z
" style="fill:#00004c;opacity:0.5;stroke:#00004c;stroke-linejoin:miter;"/>
   </g>
   <g id="patch_22">
    <path d="M 353.742779 177.638994 
C 353.742779 146.105146 341.202645 115.830585 318.904847 93.532787 
C 296.607049 71.234989 266.332489 58.694856 234.79864 58.694856 
C 203.264792 58.694856 172.990231 71.234989 150.692433 93.532787 
C 128.394635 115.830585 115.854502 146.105146 115.854502 177.638994 
L 234.79864 177.638994 
L 353.742779 177.638994 
z
" style="fill:#2e3e0f;opacity:0.5;stroke:#2e3e0f;stroke-linejoin:miter;"/>
   </g>
   <g id="patch_23">
    <path d="M 115.854502 177.638994 
C 115.854502 209.172842 128.394635 239.447403 150.692433 261.745201 
C 172.990231 284.042999 203.264792 296.583133 234.79864 296.583133 
C 266.332489 296.583133 296.607049 284.042999 318.904847 261.745201 
C 341.202645 239.447403 353.742779 209.172842 353.742779 177.638994 
L 234.79864 177.638994 
L 115.854502 177.638994 
z
" style="fill:#4c0000;opacity:0.5;stroke:#4c0000;stroke-linejoin:miter;"/>
   </g>
   <g id="patch_24">
    <path d="M 356.121661 175.260111 
C 356.121661 160.583124 353.405084 146.03211 348.109468 132.343779 
C 342.813852 118.655447 335.030103 106.064774 325.152306 95.209218 
C 315.27451 84.353662 303.472231 75.41957 290.34301 68.85927 
C 277.21379 62.29897 262.983006 58.225078 248.371156 56.843851 
C 233.759305 55.462625 219.017217 56.797774 204.891273 60.781702 
C 190.76533 64.765631 177.498019 71.329948 165.761057 80.142308 
C 154.024095 88.954668 144.018961 99.863797 136.252207 112.31737 
C 128.485453 124.770944 123.090406 138.555184 120.340213 152.972202 
C 117.590019 167.389219 117.53189 182.19153 120.168769 196.629703 
C 122.805647 211.067876 128.092268 224.894063 135.760973 237.408252 
C 143.429678 249.922441 153.348824 260.909812 165.016213 269.814082 
C 176.683601 278.718351 189.898947 285.386667 203.993165 289.481416 
C 218.087383 293.576165 232.818531 295.027057 247.440779 293.760633 
C 262.063027 292.494209 276.325367 288.53221 289.505707 282.075228 
C 302.686047 275.618247 314.55813 266.777125 324.52088 255.999482 
C 334.48363 245.22184 342.366026 232.692689 347.768985 219.046371 
L 237.177523 175.260111 
L 356.121661 175.260111 
z
" style="fill:#9acd32;"/>
   </g>
   <g id="patch_25">
    <path d="M 347.768985 219.046371 
C 349.603703 214.412403 351.145352 209.667696 352.384812 204.840318 
C 353.624272 200.012939 354.559095 195.112426 355.183751 190.167767 
L 237.177523 175.260111 
L 347.768985 219.046371 
z
" style="fill:#ff0000;"/>
   </g>
   <g id="patch_26">
    <path d="M 355.183751 190.167767 
C 355.496002 187.696047 355.730518 185.215127 355.886952 182.728678 
C 356.043386 180.242229 356.121661 177.751479 356.121661 175.260114 
L 237.177523 175.260111 
L 355.183751 190.167767 
z
" style="fill:#0000ff;"/>
   </g>
   <g id="patch_27">
    <path d="M 356.121661 175.260111 
C 356.121661 160.897102 353.52007 146.652142 348.443107 133.21635 
C 343.366144 119.780558 335.897266 107.374793 326.398837 96.60094 
C 316.900408 85.827088 305.528564 76.862249 292.835029 70.141369 
C 280.141495 63.420489 266.334927 59.054045 252.085173 57.253883 
C 237.83542 55.453721 223.37672 56.249431 209.410562 59.60241 
C 195.444403 62.955389 182.200362 68.810518 170.320996 76.883728 
C 158.44163 84.956937 148.122212 95.115519 139.863407 106.866612 
C 131.604601 118.617704 125.542167 131.768143 121.970232 145.679913 
C 118.398297 159.591683 117.375579 174.036101 118.951694 188.312371 
C 120.52781 202.588642 124.676852 216.462092 131.197523 229.259627 
C 137.718194 242.057162 146.503306 253.568416 157.126636 263.2349 
C 167.749965 272.901385 180.036885 280.564202 193.391274 285.851578 
C 206.745663 291.138953 220.948002 293.963973 235.30924 294.189576 
C 249.670478 294.415179 263.954544 292.037657 277.468423 287.17236 
C 290.982303 282.307063 303.503853 275.033966 314.42557 265.705936 
C 325.347288 256.377906 334.489641 245.148278 341.409072 232.561876 
L 237.177523 175.260111 
L 356.121661 175.260111 
z
" style="fill:#9acd32;"/>
   </g>
   <g id="patch_28">
    <path d="M 341.409072 232.561876 
C 346.215882 223.81832 349.903455 214.504571 352.384815 204.840304 
C 354.866176 195.176038 356.121662 185.237836 356.121661 175.2601 
L 237.177523 175.260111 
L 341.409072 232.561876 
z
" style="fill:#ff0000;"/>
   </g>
   <g id="patch_29">
    <path d="M 356.121661 175.260111 
C 356.121661 161.524732 353.742469 147.892576 349.089775 134.969222 
C 344.437082 122.045867 337.580817 110.025556 328.825557 99.442265 
C 320.070297 88.858973 309.547634 79.87177 297.725016 72.879893 
C 285.902398 65.888016 272.957521 60.996554 259.465433 58.422801 
C 245.973345 55.849047 232.136835 55.631686 218.570561 57.780373 
C 205.004288 59.929059 191.912153 64.411499 179.875749 71.028568 
C 167.839344 77.645637 157.039579 86.29788 147.956209 96.60094 
C 138.87284 106.904 131.642391 118.70302 126.586061 131.473852 
C 121.52973 144.244685 118.723515 157.795382 118.292076 171.523984 
C 117.860638 185.252585 119.810459 198.952747 124.054924 212.015869 
C 128.29939 225.078991 134.774704 237.308732 143.193214 248.161811 
C 151.611725 259.01489 161.8469 268.328183 173.444064 275.687968 
C 185.041228 283.047752 197.826074 288.343409 211.23066 291.339689 
C 224.635247 294.33597 238.458102 294.987839 252.085173 293.26634 
C 265.712245 291.544841 278.938716 287.475848 291.177029 281.240116 
C 303.415341 275.004385 314.481551 266.69564 323.884066 256.68298 
L 237.177523 175.260111 
L 356.121661 175.260111 
z
" style="fill:#9acd32;"/>
   </g>
   <g id="patch_30">
    <path d="M 323.884066 256.68298 
C 330.714296 249.409524 336.602253 241.305447 341.409064 232.561891 
C 346.215875 223.818335 349.903449 214.504587 352.384811 204.840321 
L 237.177523 175.260111 
L 323.884066 256.68298 
z
" style="fill:#ff0000;"/>
   </g>
   <g id="patch_31">
    <path d="M 352.384811 204.840321 
C 353.624272 200.012942 354.559095 195.112429 355.183751 190.16777 
C 355.808407 185.223111 356.121661 180.244076 356.121661 175.260117 
L 237.177523 175.260111 
L 352.384811 204.840321 
z
" style="fill:#0000ff;"/>
   </g>
   <g id="patch_32">
    <path d="M 356.121661 175.260111 
C 356.121661 161.524732 353.742469 147.892576 349.089775 134.969222 
C 344.437082 122.045867 337.580817 110.025556 328.825557 99.442265 
C 320.070297 88.858973 309.547634 79.87177 297.725016 72.879893 
C 285.902398 65.888016 272.957521 60.996554 259.465433 58.422801 
C 245.973345 55.849047 232.136835 55.631686 218.570561 57.780373 
C 205.004288 59.929059 191.912153 64.411499 179.875749 71.028568 
C 167.839344 77.645637 157.039579 86.29788 147.956209 96.60094 
C 138.87284 106.904 131.642391 118.70302 126.586061 131.473852 
C 121.52973 144.244685 118.723515 157.795382 118.292076 171.523984 
C 117.860638 185.252585 119.810459 198.952747 124.054924 212.015869 
C 128.29939 225.078991 134.774704 237.308732 143.193214 248.161811 
C 151.611725 259.01489 161.8469 268.328183 173.444064 275.687968 
C 185.041228 283.047752 197.826074 288.343409 211.23066 291.339689 
C 224.635247 294.33597 238.458102 294.987839 252.085173 293.26634 
C 265.712245 291.544841 278.938716 287.475848 291.177029 281.240116 
C 303.415341 275.004385 314.481551 266.69564 323.884066 256.68298 
L 237.177523 175.260111 
L 356.121661 175.260111 
z
" style="fill:#9acd32;"/>
   </g>
   <g id="patch_33">
    <path d="M 323.884066 256.68298 
C 329.003799 251.231018 333.597925 245.308307 337.605378 238.993571 
C 341.612832 232.678836 345.015777 226.000179 347.768984 219.046373 
L 237.177523 175.260111 
L 323.884066 256.68298 
z
" style="fill:#ff0000;"/>
   </g>
   <g id="patch_34">
    <path d="M 347.768984 219.046373 
C 350.522191 212.092568 352.613406 204.89456 354.014833 197.548025 
C 355.416259 190.201491 356.121661 182.739125 356.121661 175.260117 
L 237.177523 175.260111 
L 347.768984 219.046373 
z
" style="fill:#0000ff;"/>
   </g>
   <g id="patch_35">
    <path d="M 356.121661 175.260111 
C 356.121661 146.411058 345.625963 118.524657 326.60446 96.83479 
C 307.582957 75.144924 281.305091 61.099112 252.702845 57.333556 
C 224.100599 53.568 195.082806 60.334002 171.095696 76.361678 
C 147.108585 92.389354 129.752989 116.609064 122.286306 144.47511 
L 237.177523 175.260111 
L 356.121661 175.260111 
z
" style="fill:#9acd32;"/>
   </g>
   <g id="patch_36">
    <path d="M 122.286306 144.47511 
C 116.198337 167.195727 116.9848 191.219662 124.545737 213.493459 
C 132.106674 235.767255 146.107578 255.305492 164.768925 269.624845 
C 183.430273 283.944199 205.926462 292.411163 229.398212 293.949582 
C 252.869961 295.488 276.278852 290.029811 296.649599 278.268753 
L 237.177523 175.260111 
L 122.286306 144.47511 
z
" style="fill:#ff0000;"/>
   </g>
   <g id="patch_37">
    <path d="M 296.649599 278.268753 
C 314.730046 267.83 329.747423 252.812622 340.186173 234.732173 
C 350.624923 216.651723 356.121663 196.137604 356.121661 175.2601 
L 237.177523 175.260111 
L 296.649599 278.268753 
z
" style="fill:#0000ff;"/>
   </g>
   <g id="patch_38">
    <path d="M 356.121661 175.260111 
C 356.121661 146.411058 345.625963 118.524657 326.60446 96.83479 
C 307.582957 75.144924 281.305091 61.099112 252.702845 57.333556 
C 224.100599 53.568 195.082806 60.334002 171.095696 76.361678 
C 147.108585 92.389354 129.752989 116.609064 122.286306 144.47511 
L 237.177523 175.260111 
L 356.121661 175.260111 
z
" style="fill:#9acd32;"/>
   </g>
   <g id="patch_39">
    <path d="M 122.286306 144.47511 
C 116.198337 167.195727 116.9848 191.219662 124.545737 213.493459 
C 132.106674 235.767255 146.107578 255.305492 164.768925 269.624845 
C 183.430273 283.944199 205.926462 292.411163 229.398212 293.949582 
C 252.869961 295.488 276.278852 290.029811 296.649599 278.268753 
L 237.177523 175.260111 
L 122.286306 144.47511 
z
" style="fill:#ff0000;"/>
   </g>
   <g id="patch_40">
    <path d="M 296.649599 278.268753 
C 314.730046 267.83 329.747423 252.812622 340.186173 234.732173 
C 350.624923 216.651723 356.121663 196.137604 356.121661 175.2601 
L 237.177523 175.260111 
L 296.649599 278.268753 
z
" style="fill:#0000ff;"/>
   </g>
   <g id="patch_41">
    <path d="M 356.121661 175.260111 
C 356.121661 146.411058 345.625963 118.524657 326.60446 96.83479 
C 307.582957 75.144924 281.305091 61.099112 252.702845 57.333556 
C 224.100599 53.568 195.082806 60.334002 171.095696 76.361678 
C 147.108585 92.389354 129.752989 116.609064 122.286306 144.47511 
L 237.177523 175.260111 
L 356.121661 175.260111 
z
" style="fill:#9acd32;"/>
   </g>
   <g id="patch_42">
    <path d="M 122.286306 144.47511 
C 116.198337 167.195727 116.9848 191.219662 124.545737 213.493459 
C 132.106674 235.767255 146.107578 255.305492 164.768925 269.624845 
C 183.430273 283.944199 205.926462 292.411163 229.398212 293.949582 
C 252.869961 295.488 276.278852 290.029811 296.649599 278.268753 
L 237.177523 175.260111 
L 122.286306 144.47511 
z
" style="fill:#ff0000;"/>
   </g>
   <g id="patch_43">
    <path d="M 296.649599 278.268753 
C 314.730046 267.83 329.747423 252.812622 340.186173 234.732173 
C 350.624923 216.651723 356.121663 196.137604 356.121661 175.2601 
L 237.177523 175.260111 
L 296.649599 278.268753 
z
" style="fill:#0000ff;"/>
   </g>
   <g id="patch_44">
    <path d="M 356.121661 175.260111 
C 356.121661 143.726263 343.581528 113.451703 321.28373 91.153905 
C 298.985932 68.856107 268.711371 56.315973 237.177523 56.315973 
C 205.643675 56.315973 175.369114 68.856107 153.071316 91.153905 
C 130.773518 113.451703 118.233385 143.726263 118.233385 175.260111 
L 237.177523 175.260111 
L 356.121661 175.260111 
z
" style="fill:#9acd32;"/>
   </g>
   <g id="patch_45">
    <path d="M 118.233385 175.260111 
C 118.233385 206.79396 130.773518 237.06852 153.071316 259.366318 
C 175.369114 281.664116 205.643675 294.20425 237.177523 294.20425 
C 268.711371 294.20425 298.985932 281.664116 321.28373 259.366318 
C 343.581528 237.06852 356.121661 206.79396 356.121661 175.260111 
L 237.177523 175.260111 
L 118.233385 175.260111 
z
" style="fill:#ff0000;"/>
   </g>
   <g id="matplotlib.axis_1"/>
   <g id="matplotlib.axis_2"/>
   <g id="legend_1">
    <g id="patch_46">
     <path d="M 330.83875 93.506375 
L 407.72 93.506375 
Q 409.72 93.506375 409.72 91.506375 
L 409.72 48.472 
Q 409.72 46.472 407.72 46.472 
L 330.83875 46.472 
Q 328.83875 46.472 328.83875 48.472 
L 328.83875 91.506375 
Q 328.83875 93.506375 330.83875 93.506375 
z
" style="fill:#ffffff;opacity:0.8;stroke:#cccccc;stroke-linejoin:miter;"/>
    </g>
    <g id="patch_47">
     <path d="M 332.83875 58.070438 
L 352.83875 58.070438 
L 352.83875 51.070438 
L 332.83875 51.070438 
z
" style="fill:#9acd32;"/>
    </g>
    <g id="text_1">
     <!-- Positive -->
     <g transform="translate(360.83875 58.070438)scale(0.1 -0.1)">
      <defs>
       <path d="M 1259 4147 
L 1259 2394 
L 2053 2394 
Q 2494 2394 2734 2622 
Q 2975 2850 2975 3272 
Q 2975 3691 2734 3919 
Q 2494 4147 2053 4147 
L 1259 4147 
z
M 628 4666 
L 2053 4666 
Q 2838 4666 3239 4311 
Q 3641 3956 3641 3272 
Q 3641 2581 3239 2228 
Q 2838 1875 2053 1875 
L 1259 1875 
L 1259 0 
L 628 0 
L 628 4666 
z
" id="DejaVuSans-50" transform="scale(0.015625)"/>
       <path d="M 1959 3097 
Q 1497 3097 1228 2736 
Q 959 2375 959 1747 
Q 959 1119 1226 758 
Q 1494 397 1959 397 
Q 2419 397 2687 759 
Q 2956 1122 2956 1747 
Q 2956 2369 2687 2733 
Q 2419 3097 1959 3097 
z
M 1959 3584 
Q 2709 3584 3137 3096 
Q 3566 2609 3566 1747 
Q 3566 888 3137 398 
Q 2709 -91 1959 -91 
Q 1206 -91 779 398 
Q 353 888 353 1747 
Q 353 2609 779 3096 
Q 1206 3584 1959 3584 
z
" id="DejaVuSans-6f" transform="scale(0.015625)"/>
       <path d="M 2834 3397 
L 2834 2853 
Q 2591 2978 2328 3040 
Q 2066 3103 1784 3103 
Q 1356 3103 1142 2972 
Q 928 2841 928 2578 
Q 928 2378 1081 2264 
Q 1234 2150 1697 2047 
L 1894 2003 
Q 2506 1872 2764 1633 
Q 3022 1394 3022 966 
Q 3022 478 2636 193 
Q 2250 -91 1575 -91 
Q 1294 -91 989 -36 
Q 684 19 347 128 
L 347 722 
Q 666 556 975 473 
Q 1284 391 1588 391 
Q 1994 391 2212 530 
Q 2431 669 2431 922 
Q 2431 1156 2273 1281 
Q 2116 1406 1581 1522 
L 1381 1569 
Q 847 1681 609 1914 
Q 372 2147 372 2553 
Q 372 3047 722 3315 
Q 1072 3584 1716 3584 
Q 2034 3584 2315 3537 
Q 2597 3491 2834 3397 
z
" id="DejaVuSans-73" transform="scale(0.015625)"/>
       <path d="M 603 3500 
L 1178 3500 
L 1178 0 
L 603 0 
L 603 3500 
z
M 603 4863 
L 1178 4863 
L 1178 4134 
L 603 4134 
L 603 4863 
z
" id="DejaVuSans-69" transform="scale(0.015625)"/>
       <path d="M 1172 4494 
L 1172 3500 
L 2356 3500 
L 2356 3053 
L 1172 3053 
L 1172 1153 
Q 1172 725 1289 603 
Q 1406 481 1766 481 
L 2356 481 
L 2356 0 
L 1766 0 
Q 1100 0 847 248 
Q 594 497 594 1153 
L 594 3053 
L 172 3053 
L 172 3500 
L 594 3500 
L 594 4494 
L 1172 4494 
z
" id="DejaVuSans-74" transform="scale(0.015625)"/>
       <path d="M 191 3500 
L 800 3500 
L 1894 563 
L 2988 3500 
L 3597 3500 
L 2284 0 
L 1503 0 
L 191 3500 
z
" id="DejaVuSans-76" transform="scale(0.015625)"/>
       <path d="M 3597 1894 
L 3597 1613 
L 953 1613 
Q 991 1019 1311 708 
Q 1631 397 2203 397 
Q 2534 397 2845 478 
Q 3156 559 3463 722 
L 3463 178 
Q 3153 47 2828 -22 
Q 2503 -91 2169 -91 
Q 1331 -91 842 396 
Q 353 884 353 1716 
Q 353 2575 817 3079 
Q 1281 3584 2069 3584 
Q 2775 3584 3186 3129 
Q 3597 2675 3597 1894 
z
M 3022 2063 
Q 3016 2534 2758 2815 
Q 2500 3097 2075 3097 
Q 1594 3097 1305 2825 
Q 1016 2553 972 2059 
L 3022 2063 
z
" id="DejaVuSans-65" transform="scale(0.015625)"/>
      </defs>
      <use xlink:href="#DejaVuSans-50"/>
      <use x="56.677734" xlink:href="#DejaVuSans-6f"/>
      <use x="117.859375" xlink:href="#DejaVuSans-73"/>
      <use x="169.958984" xlink:href="#DejaVuSans-69"/>
      <use x="197.742188" xlink:href="#DejaVuSans-74"/>
      <use x="236.951172" xlink:href="#DejaVuSans-69"/>
      <use x="264.734375" xlink:href="#DejaVuSans-76"/>
      <use x="323.914062" xlink:href="#DejaVuSans-65"/>
     </g>
    </g>
    <g id="patch_48">
     <path d="M 332.83875 72.748563 
L 352.83875 72.748563 
L 352.83875 65.748563 
L 332.83875 65.748563 
z
" style="fill:#ff0000;"/>
    </g>
    <g id="text_2">
     <!-- Negative -->
     <g transform="translate(360.83875 72.748563)scale(0.1 -0.1)">
      <defs>
       <path d="M 628 4666 
L 1478 4666 
L 3547 763 
L 3547 4666 
L 4159 4666 
L 4159 0 
L 3309 0 
L 1241 3903 
L 1241 0 
L 628 0 
L 628 4666 
z
" id="DejaVuSans-4e" transform="scale(0.015625)"/>
       <path d="M 2906 1791 
Q 2906 2416 2648 2759 
Q 2391 3103 1925 3103 
Q 1463 3103 1205 2759 
Q 947 2416 947 1791 
Q 947 1169 1205 825 
Q 1463 481 1925 481 
Q 2391 481 2648 825 
Q 2906 1169 2906 1791 
z
M 3481 434 
Q 3481 -459 3084 -895 
Q 2688 -1331 1869 -1331 
Q 1566 -1331 1297 -1286 
Q 1028 -1241 775 -1147 
L 775 -588 
Q 1028 -725 1275 -790 
Q 1522 -856 1778 -856 
Q 2344 -856 2625 -561 
Q 2906 -266 2906 331 
L 2906 616 
Q 2728 306 2450 153 
Q 2172 0 1784 0 
Q 1141 0 747 490 
Q 353 981 353 1791 
Q 353 2603 747 3093 
Q 1141 3584 1784 3584 
Q 2172 3584 2450 3431 
Q 2728 3278 2906 2969 
L 2906 3500 
L 3481 3500 
L 3481 434 
z
" id="DejaVuSans-67" transform="scale(0.015625)"/>
       <path d="M 2194 1759 
Q 1497 1759 1228 1600 
Q 959 1441 959 1056 
Q 959 750 1161 570 
Q 1363 391 1709 391 
Q 2188 391 2477 730 
Q 2766 1069 2766 1631 
L 2766 1759 
L 2194 1759 
z
M 3341 1997 
L 3341 0 
L 2766 0 
L 2766 531 
Q 2569 213 2275 61 
Q 1981 -91 1556 -91 
Q 1019 -91 701 211 
Q 384 513 384 1019 
Q 384 1609 779 1909 
Q 1175 2209 1959 2209 
L 2766 2209 
L 2766 2266 
Q 2766 2663 2505 2880 
Q 2244 3097 1772 3097 
Q 1472 3097 1187 3025 
Q 903 2953 641 2809 
L 641 3341 
Q 956 3463 1253 3523 
Q 1550 3584 1831 3584 
Q 2591 3584 2966 3190 
Q 3341 2797 3341 1997 
z
" id="DejaVuSans-61" transform="scale(0.015625)"/>
      </defs>
      <use xlink:href="#DejaVuSans-4e"/>
      <use x="74.804688" xlink:href="#DejaVuSans-65"/>
      <use x="136.328125" xlink:href="#DejaVuSans-67"/>
      <use x="199.804688" xlink:href="#DejaVuSans-61"/>
      <use x="261.083984" xlink:href="#DejaVuSans-74"/>
      <use x="300.292969" xlink:href="#DejaVuSans-69"/>
      <use x="328.076172" xlink:href="#DejaVuSans-76"/>
      <use x="387.255859" xlink:href="#DejaVuSans-65"/>
     </g>
    </g>
    <g id="patch_49">
     <path d="M 332.83875 87.426688 
L 352.83875 87.426688 
L 352.83875 80.426688 
L 332.83875 80.426688 
z
" style="fill:#0000ff;"/>
    </g>
    <g id="text_3">
     <!-- Neutral -->
     <g transform="translate(360.83875 87.426688)scale(0.1 -0.1)">
      <defs>
       <path d="M 544 1381 
L 544 3500 
L 1119 3500 
L 1119 1403 
Q 1119 906 1312 657 
Q 1506 409 1894 409 
Q 2359 409 2629 706 
Q 2900 1003 2900 1516 
L 2900 3500 
L 3475 3500 
L 3475 0 
L 2900 0 
L 2900 538 
Q 2691 219 2414 64 
Q 2138 -91 1772 -91 
Q 1169 -91 856 284 
Q 544 659 544 1381 
z
M 1991 3584 
L 1991 3584 
z
" id="DejaVuSans-75" transform="scale(0.015625)"/>
       <path d="M 2631 2963 
Q 2534 3019 2420 3045 
Q 2306 3072 2169 3072 
Q 1681 3072 1420 2755 
Q 1159 2438 1159 1844 
L 1159 0 
L 581 0 
L 581 3500 
L 1159 3500 
L 1159 2956 
Q 1341 3275 1631 3429 
Q 1922 3584 2338 3584 
Q 2397 3584 2469 3576 
Q 2541 3569 2628 3553 
L 2631 2963 
z
" id="DejaVuSans-72" transform="scale(0.015625)"/>
       <path d="M 603 4863 
L 1178 4863 
L 1178 0 
L 603 0 
L 603 4863 
z
" id="DejaVuSans-6c" transform="scale(0.015625)"/>
      </defs>
      <use xlink:href="#DejaVuSans-4e"/>
      <use x="74.804688" xlink:href="#DejaVuSans-65"/>
      <use x="136.328125" xlink:href="#DejaVuSans-75"/>
      <use x="199.707031" xlink:href="#DejaVuSans-74"/>
      <use x="238.916016" xlink:href="#DejaVuSans-72"/>
      <use x="280.029297" xlink:href="#DejaVuSans-61"/>
      <use x="341.308594" xlink:href="#DejaVuSans-6c"/>
     </g>
    </g>
   </g>
  </g>
 </g>
</svg>
