<?xml version="1.0" encoding="utf-8" standalone="no"?>
<!DOCTYPE svg PUBLIC "-//W3C//DTD SVG 1.1//EN"
  "http://www.w3.org/Graphics/SVG/1.1/DTD/svg11.dtd">
<svg height="345.6pt" version="1.1" viewBox="0 0 460.8 345.6" width="460.8pt" xmlns="http://www.w3.org/2000/svg" xmlns:xlink="http://www.w3.org/1999/xlink">
 <metadata>
  <rdf:RDF xmlns:cc="http://creativecommons.org/ns#" xmlns:dc="http://purl.org/dc/elements/1.1/" xmlns:rdf="http://www.w3.org/1999/02/22-rdf-syntax-ns#">
   <cc:Work>
    <dc:type rdf:resource="http://purl.org/dc/dcmitype/StillImage"/>
    <dc:date>2021-05-24T16:39:33.822794</dc:date>
    <dc:format>image/svg+xml</dc:format>
    <dc:creator>
     <cc:Agent>
      <dc:title>Matplotlib v3.4.2, https://matplotlib.org/</dc:title>
     </cc:Agent>
    </dc:creator>
   </cc:Work>
  </rdf:RDF>
 </metadata>
 <defs>
  <style type="text/css">*{stroke-linecap:butt;stroke-linejoin:round;}</style>
 </defs>
 <g id="figure_1">
  <g id="patch_1">
   <path d="M 0 345.6 
L 460.8 345.6 
L 460.8 0 
L 0 0 
z
" style="fill:#ffffff;"/>
  </g>
  <g id="axes_1">
   <g id="patch_2">
    <path d="M 354.478559 176.935165 
C 354.478559 161.779772 351.613403 146.760099 346.034331 132.668971 
C 340.455259 118.577843 332.262194 105.667639 321.887614 94.619832 
C 311.513034 83.572026 299.142751 74.58449 285.429742 68.131637 
C 271.716733 61.678784 256.906602 57.876188 241.781115 56.924573 
C 226.655628 55.972957 211.485688 57.889366 197.072053 62.572639 
C 182.658417 67.255913 169.259241 74.622172 157.581809 84.282582 
C 145.904378 93.942992 136.157839 105.724532 128.856672 119.005304 
C 121.555505 132.286075 116.830477 146.828214 114.931002 161.864102 
C 113.031526 176.89999 113.991624 192.160328 117.760616 206.839587 
C 121.529608 221.518845 128.039989 235.354113 136.948105 247.615084 
C 145.85622 259.876055 157.002521 270.343131 169.798642 278.463798 
C 182.594763 286.584464 196.811519 292.213278 211.698468 295.053117 
C 226.585417 297.892956 241.875927 297.892957 256.762876 295.053122 
C 271.649826 292.213286 285.866583 286.584475 298.662706 278.463811 
C 311.458828 270.343147 322.605131 259.876074 331.513249 247.615105 
C 340.421367 235.354136 346.931752 221.518869 350.700747 206.839611 
L 234.230685 176.935165 
L 354.478559 176.935165 
z
" style="fill:#2e3e0f;opacity:0.5;stroke:#2e3e0f;stroke-linejoin:miter;"/>
   </g>
   <g id="patch_3">
    <path d="M 350.700747 206.839611 
C 351.953793 201.95932 352.898863 197.005093 353.530366 192.006237 
C 354.16187 187.00738 354.478558 181.97377 354.478559 176.935182 
L 234.230685 176.935165 
L 350.700747 206.839611 
z
" style="fill:#4c0000;opacity:0.5;stroke:#4c0000;stroke-linejoin:miter;"/>
   </g>
   <g id="patch_4">
    <path d="M 356.883516 174.530208 
C 356.883516 159.374815 354.01836 144.355142 348.439288 130.264014 
C 342.860216 116.172886 334.667151 103.262681 324.292571 92.214875 
C 313.917991 81.167069 301.547709 72.179532 287.834699 65.726679 
C 274.12169 59.273827 259.31156 55.471231 244.186073 54.519616 
C 229.060585 53.568 213.890645 55.484409 199.47701 60.167682 
C 185.063375 64.850955 171.664198 72.217214 159.986767 81.877624 
C 148.309335 91.538035 138.562797 103.319575 131.26163 116.600346 
C 123.960463 129.881118 119.235434 144.423257 117.335959 159.459145 
C 115.436484 174.495033 116.396582 189.755371 120.165573 204.434629 
C 123.934565 219.113888 130.444947 232.949156 139.353062 245.210127 
C 148.261178 257.471098 159.407479 267.938173 172.203599 276.05884 
C 184.99972 284.179507 199.216476 289.808321 214.103425 292.648159 
C 228.990374 295.487998 244.280884 295.488 259.167834 292.648164 
C 274.054783 289.808328 288.271541 284.179518 301.067663 276.058854 
C 313.863785 267.93819 325.010089 257.471117 333.918207 245.210147 
C 342.826325 232.949178 349.336709 219.113912 353.105704 204.434654 
L 236.635642 174.530208 
L 356.883516 174.530208 
z
" style="fill:#9acd32;"/>
   </g>
   <g id="patch_5">
    <path d="M 353.105704 204.434654 
C 354.358751 199.554363 355.303821 194.600136 355.935324 189.601279 
C 356.566827 184.602422 356.883516 179.568812 356.883516 174.530225 
L 236.635642 174.530208 
L 353.105704 204.434654 
z
" style="fill:#ff0000;"/>
   </g>
   <g id="matplotlib.axis_1"/>
   <g id="matplotlib.axis_2"/>
   <g id="legend_1">
    <g id="patch_6">
     <path d="M 330.83875 78.82825 
L 407.72 78.82825 
Q 409.72 78.82825 409.72 76.82825 
L 409.72 48.472 
Q 409.72 46.472 407.72 46.472 
L 330.83875 46.472 
Q 328.83875 46.472 328.83875 48.472 
L 328.83875 76.82825 
Q 328.83875 78.82825 330.83875 78.82825 
z
" style="fill:#ffffff;opacity:0.8;stroke:#cccccc;stroke-linejoin:miter;"/>
    </g>
    <g id="patch_7">
     <path d="M 332.83875 58.070437 
L 352.83875 58.070437 
L 352.83875 51.070437 
L 332.83875 51.070437 
z
" style="fill:#9acd32;"/>
    </g>
    <g id="text_1">
     <!-- Positive -->
     <g transform="translate(360.83875 58.070437)scale(0.1 -0.1)">
      <defs>
       <path d="M 1259 4147 
L 1259 2394 
L 2053 2394 
Q 2494 2394 2734 2622 
Q 2975 2850 2975 3272 
Q 2975 3691 2734 3919 
Q 2494 4147 2053 4147 
L 1259 4147 
z
M 628 4666 
L 2053 4666 
Q 2838 4666 3239 4311 
Q 3641 3956 3641 3272 
Q 3641 2581 3239 2228 
Q 2838 1875 2053 1875 
L 1259 1875 
L 1259 0 
L 628 0 
L 628 4666 
z
" id="DejaVuSans-50" transform="scale(0.015625)"/>
       <path d="M 1959 3097 
Q 1497 3097 1228 2736 
Q 959 2375 959 1747 
Q 959 1119 1226 758 
Q 1494 397 1959 397 
Q 2419 397 2687 759 
Q 2956 1122 2956 1747 
Q 2956 2369 2687 2733 
Q 2419 3097 1959 3097 
z
M 1959 3584 
Q 2709 3584 3137 3096 
Q 3566 2609 3566 1747 
Q 3566 888 3137 398 
Q 2709 -91 1959 -91 
Q 1206 -91 779 398 
Q 353 888 353 1747 
Q 353 2609 779 3096 
Q 1206 3584 1959 3584 
z
" id="DejaVuSans-6f" transform="scale(0.015625)"/>
       <path d="M 2834 3397 
L 2834 2853 
Q 2591 2978 2328 3040 
Q 2066 3103 1784 3103 
Q 1356 3103 1142 2972 
Q 928 2841 928 2578 
Q 928 2378 1081 2264 
Q 1234 2150 1697 2047 
L 1894 2003 
Q 2506 1872 2764 1633 
Q 3022 1394 3022 966 
Q 3022 478 2636 193 
Q 2250 -91 1575 -91 
Q 1294 -91 989 -36 
Q 684 19 347 128 
L 347 722 
Q 666 556 975 473 
Q 1284 391 1588 391 
Q 1994 391 2212 530 
Q 2431 669 2431 922 
Q 2431 1156 2273 1281 
Q 2116 1406 1581 1522 
L 1381 1569 
Q 847 1681 609 1914 
Q 372 2147 372 2553 
Q 372 3047 722 3315 
Q 1072 3584 1716 3584 
Q 2034 3584 2315 3537 
Q 2597 3491 2834 3397 
z
" id="DejaVuSans-73" transform="scale(0.015625)"/>
       <path d="M 603 3500 
L 1178 3500 
L 1178 0 
L 603 0 
L 603 3500 
z
M 603 4863 
L 1178 4863 
L 1178 4134 
L 603 4134 
L 603 4863 
z
" id="DejaVuSans-69" transform="scale(0.015625)"/>
       <path d="M 1172 4494 
L 1172 3500 
L 2356 3500 
L 2356 3053 
L 1172 3053 
L 1172 1153 
Q 1172 725 1289 603 
Q 1406 481 1766 481 
L 2356 481 
L 2356 0 
L 1766 0 
Q 1100 0 847 248 
Q 594 497 594 1153 
L 594 3053 
L 172 3053 
L 172 3500 
L 594 3500 
L 594 4494 
L 1172 4494 
z
" id="DejaVuSans-74" transform="scale(0.015625)"/>
       <path d="M 191 3500 
L 800 3500 
L 1894 563 
L 2988 3500 
L 3597 3500 
L 2284 0 
L 1503 0 
L 191 3500 
z
" id="DejaVuSans-76" transform="scale(0.015625)"/>
       <path d="M 3597 1894 
L 3597 1613 
L 953 1613 
Q 991 1019 1311 708 
Q 1631 397 2203 397 
Q 2534 397 2845 478 
Q 3156 559 3463 722 
L 3463 178 
Q 3153 47 2828 -22 
Q 2503 -91 2169 -91 
Q 1331 -91 842 396 
Q 353 884 353 1716 
Q 353 2575 817 3079 
Q 1281 3584 2069 3584 
Q 2775 3584 3186 3129 
Q 3597 2675 3597 1894 
z
M 3022 2063 
Q 3016 2534 2758 2815 
Q 2500 3097 2075 3097 
Q 1594 3097 1305 2825 
Q 1016 2553 972 2059 
L 3022 2063 
z
" id="DejaVuSans-65" transform="scale(0.015625)"/>
      </defs>
      <use xlink:href="#DejaVuSans-50"/>
      <use x="56.677734" xlink:href="#DejaVuSans-6f"/>
      <use x="117.859375" xlink:href="#DejaVuSans-73"/>
      <use x="169.958984" xlink:href="#DejaVuSans-69"/>
      <use x="197.742188" xlink:href="#DejaVuSans-74"/>
      <use x="236.951172" xlink:href="#DejaVuSans-69"/>
      <use x="264.734375" xlink:href="#DejaVuSans-76"/>
      <use x="323.914062" xlink:href="#DejaVuSans-65"/>
     </g>
    </g>
    <g id="patch_8">
     <path d="M 332.83875 72.748562 
L 352.83875 72.748562 
L 352.83875 65.748562 
L 332.83875 65.748562 
z
" style="fill:#ff0000;"/>
    </g>
    <g id="text_2">
     <!-- Negative -->
     <g transform="translate(360.83875 72.748562)scale(0.1 -0.1)">
      <defs>
       <path d="M 628 4666 
L 1478 4666 
L 3547 763 
L 3547 4666 
L 4159 4666 
L 4159 0 
L 3309 0 
L 1241 3903 
L 1241 0 
L 628 0 
L 628 4666 
z
" id="DejaVuSans-4e" transform="scale(0.015625)"/>
       <path d="M 2906 1791 
Q 2906 2416 2648 2759 
Q 2391 3103 1925 3103 
Q 1463 3103 1205 2759 
Q 947 2416 947 1791 
Q 947 1169 1205 825 
Q 1463 481 1925 481 
Q 2391 481 2648 825 
Q 2906 1169 2906 1791 
z
M 3481 434 
Q 3481 -459 3084 -895 
Q 2688 -1331 1869 -1331 
Q 1566 -1331 1297 -1286 
Q 1028 -1241 775 -1147 
L 775 -588 
Q 1028 -725 1275 -790 
Q 1522 -856 1778 -856 
Q 2344 -856 2625 -561 
Q 2906 -266 2906 331 
L 2906 616 
Q 2728 306 2450 153 
Q 2172 0 1784 0 
Q 1141 0 747 490 
Q 353 981 353 1791 
Q 353 2603 747 3093 
Q 1141 3584 1784 3584 
Q 2172 3584 2450 3431 
Q 2728 3278 2906 2969 
L 2906 3500 
L 3481 3500 
L 3481 434 
z
" id="DejaVuSans-67" transform="scale(0.015625)"/>
       <path d="M 2194 1759 
Q 1497 1759 1228 1600 
Q 959 1441 959 1056 
Q 959 750 1161 570 
Q 1363 391 1709 391 
Q 2188 391 2477 730 
Q 2766 1069 2766 1631 
L 2766 1759 
L 2194 1759 
z
M 3341 1997 
L 3341 0 
L 2766 0 
L 2766 531 
Q 2569 213 2275 61 
Q 1981 -91 1556 -91 
Q 1019 -91 701 211 
Q 384 513 384 1019 
Q 384 1609 779 1909 
Q 1175 2209 1959 2209 
L 2766 2209 
L 2766 2266 
Q 2766 2663 2505 2880 
Q 2244 3097 1772 3097 
Q 1472 3097 1187 3025 
Q 903 2953 641 2809 
L 641 3341 
Q 956 3463 1253 3523 
Q 1550 3584 1831 3584 
Q 2591 3584 2966 3190 
Q 3341 2797 3341 1997 
z
" id="DejaVuSans-61" transform="scale(0.015625)"/>
      </defs>
      <use xlink:href="#DejaVuSans-4e"/>
      <use x="74.804688" xlink:href="#DejaVuSans-65"/>
      <use x="136.328125" xlink:href="#DejaVuSans-67"/>
      <use x="199.804688" xlink:href="#DejaVuSans-61"/>
      <use x="261.083984" xlink:href="#DejaVuSans-74"/>
      <use x="300.292969" xlink:href="#DejaVuSans-69"/>
      <use x="328.076172" xlink:href="#DejaVuSans-76"/>
      <use x="387.255859" xlink:href="#DejaVuSans-65"/>
     </g>
    </g>
   </g>
  </g>
 </g>
</svg>
